%TF.GenerationSoftware,KiCad,Pcbnew,10.0.5*%
%TF.CreationDate,2026-09-07T22:51:22-04:00*%
%TF.ProjectId,BSPD 27,42535044-2032-4372-9e6b-696361645f70,rev?*%
%TF.SameCoordinates,Original*%
%TF.FileFunction,Copper,L1,Top*%
%TF.FilePolarity,Positive*%
%FSLAX46Y46*%
G04 Gerber Fmt 4.6, Leading zero omitted, Abs format (unit mm)*
G04 Created by KiCad (PCBNEW 10.0.5) date 2026-09-07 22:51:22*
%MOMM*%
%LPD*%
G01*
G04 APERTURE LIST*
G04 Aperture macros list*
%AMRoundRect*
0 Rectangle with rounded corners*
0 $1 Rounding radius*
0 $2 $3 $4 $5 $6 $7 $8 $9 X,Y pos of 4 corners*
0 Add a 4 corners polygon primitive as box body*
4,1,4,$2,$3,$4,$5,$6,$7,$8,$9,$2,$3,0*
0 Add four circle primitives for the rounded corners*
1,1,$1+$1,$2,$3*
1,1,$1+$1,$4,$5*
1,1,$1+$1,$6,$7*
1,1,$1+$1,$8,$9*
0 Add four rect primitives between the rounded corners*
20,1,$1+$1,$2,$3,$4,$5,0*
20,1,$1+$1,$4,$5,$6,$7,0*
20,1,$1+$1,$6,$7,$8,$9,0*
20,1,$1+$1,$8,$9,$2,$3,0*%
G04 Aperture macros list end*
%TA.AperFunction,SMDPad,CuDef*%
%ADD10R,1.300000X1.600000*%
%TD*%
%TA.AperFunction,SMDPad,CuDef*%
%ADD11R,2.000000X1.600000*%
%TD*%
%TA.AperFunction,SMDPad,CuDef*%
%ADD12RoundRect,0.087500X0.087500X-0.425000X0.087500X0.425000X-0.087500X0.425000X-0.087500X-0.425000X0*%
%TD*%
%TA.AperFunction,SMDPad,CuDef*%
%ADD13RoundRect,0.225000X0.225000X0.250000X-0.225000X0.250000X-0.225000X-0.250000X0.225000X-0.250000X0*%
%TD*%
%TA.AperFunction,ComponentPad*%
%ADD14C,5.600000*%
%TD*%
%TA.AperFunction,SMDPad,CuDef*%
%ADD15RoundRect,0.250000X-0.262500X-0.450000X0.262500X-0.450000X0.262500X0.450000X-0.262500X0.450000X0*%
%TD*%
%TA.AperFunction,SMDPad,CuDef*%
%ADD16R,1.400000X0.450000*%
%TD*%
%TA.AperFunction,SMDPad,CuDef*%
%ADD17RoundRect,0.250000X0.262500X0.450000X-0.262500X0.450000X-0.262500X-0.450000X0.262500X-0.450000X0*%
%TD*%
%TA.AperFunction,SMDPad,CuDef*%
%ADD18RoundRect,0.250000X-0.450000X0.262500X-0.450000X-0.262500X0.450000X-0.262500X0.450000X0.262500X0*%
%TD*%
%TA.AperFunction,SMDPad,CuDef*%
%ADD19RoundRect,0.087500X0.425000X0.087500X-0.425000X0.087500X-0.425000X-0.087500X0.425000X-0.087500X0*%
%TD*%
%TA.AperFunction,SMDPad,CuDef*%
%ADD20C,1.500000*%
%TD*%
%TA.AperFunction,SMDPad,CuDef*%
%ADD21R,1.219200X0.558800*%
%TD*%
%TA.AperFunction,SMDPad,CuDef*%
%ADD22RoundRect,0.150000X0.587500X0.150000X-0.587500X0.150000X-0.587500X-0.150000X0.587500X-0.150000X0*%
%TD*%
%TA.AperFunction,ComponentPad*%
%ADD23R,1.370000X1.370000*%
%TD*%
%TA.AperFunction,ComponentPad*%
%ADD24C,1.370000*%
%TD*%
%TA.AperFunction,ViaPad*%
%ADD25C,0.600000*%
%TD*%
%TA.AperFunction,Conductor*%
%ADD26C,0.200000*%
%TD*%
%TA.AperFunction,Conductor*%
%ADD27C,0.150000*%
%TD*%
G04 APERTURE END LIST*
D10*
%TO.P,RV2,1,1_1*%
%TO.N,+5V*%
X140400400Y-109321400D03*
D11*
%TO.P,RV2,2,2_2*%
%TO.N,/THRESH_BSE*%
X141650400Y-106421400D03*
D10*
%TO.P,RV2,3,3_3*%
%TO.N,GND*%
X142900400Y-109321400D03*
%TD*%
D12*
%TO.P,U7,1*%
%TO.N,Net-(U1-Pad1)*%
X152895933Y-101573900D03*
%TO.P,U7,2*%
%TO.N,Net-(U7-Pad2)*%
X153545933Y-101573900D03*
%TO.P,U7,3,GND_3*%
%TO.N,GND*%
X154195933Y-101573900D03*
%TO.P,U7,4*%
%TO.N,/DISCONNECT_HOLD*%
X154195933Y-99898900D03*
%TO.P,U7,5,VCC_5*%
%TO.N,+5V*%
X152895933Y-99898900D03*
%TD*%
D13*
%TO.P,C3,1*%
%TO.N,+5V*%
X157325000Y-103154600D03*
%TO.P,C3,2*%
%TO.N,GND*%
X155775000Y-103154600D03*
%TD*%
D14*
%TO.P,H1,1*%
%TO.N,N/C*%
X135550000Y-102565000D03*
%TD*%
D10*
%TO.P,RV1,1,1_1*%
%TO.N,+5V*%
X166197600Y-94742200D03*
D11*
%TO.P,RV1,2,2_2*%
%TO.N,/THRESH_ACCUM*%
X164947600Y-97642200D03*
D10*
%TO.P,RV1,3,3_3*%
%TO.N,GND*%
X163697600Y-94742200D03*
%TD*%
D15*
%TO.P,R1,1*%
%TO.N,/0.385V*%
X168627500Y-109060000D03*
%TO.P,R1,2*%
%TO.N,+5V*%
X170452500Y-109060000D03*
%TD*%
D14*
%TO.P,H2,1*%
%TO.N,N/C*%
X170490000Y-102565000D03*
%TD*%
D16*
%TO.P,U2,1*%
%TO.N,Net-(U2-Pad1)*%
X146933200Y-104770400D03*
%TO.P,U2,2,-_2*%
%TO.N,/0.385V*%
X146933200Y-105420400D03*
%TO.P,U2,3,+_3*%
%TO.N,/BSE_1*%
X146933200Y-106070400D03*
%TO.P,U2,4,V-_4*%
%TO.N,GND*%
X146933200Y-106720400D03*
%TO.P,U2,5,+_5*%
%TO.N,/BSE_1*%
X151333200Y-106720400D03*
%TO.P,U2,6,-_6*%
%TO.N,/THRESH_BSE*%
X151333200Y-106070400D03*
%TO.P,U2,7*%
%TO.N,Net-(U10-Pad1)*%
X151333200Y-105420400D03*
%TO.P,U2,8,V+_8*%
%TO.N,+5V*%
X151333200Y-104770400D03*
%TD*%
D12*
%TO.P,U10,1*%
%TO.N,Net-(U10-Pad1)*%
X155870667Y-101421500D03*
%TO.P,U10,2*%
%TO.N,Net-(U10-Pad2)*%
X156520667Y-101421500D03*
%TO.P,U10,3,GND_3*%
%TO.N,GND*%
X157170667Y-101421500D03*
%TO.P,U10,4*%
%TO.N,Net-(U10-Pad4)*%
X157170667Y-99746500D03*
%TO.P,U10,5,VCC_5*%
%TO.N,+5V*%
X155870667Y-99746500D03*
%TD*%
D17*
%TO.P,R7,1*%
%TO.N,/BRAKE+CURRENT_HOLD*%
X159232500Y-96910000D03*
%TO.P,R7,2*%
%TO.N,Net-(C7-Pad1)*%
X157407500Y-96910000D03*
%TD*%
%TO.P,R3,1*%
%TO.N,+12V*%
X143052500Y-100050000D03*
%TO.P,R3,2*%
%TO.N,Net-(Q1-G)*%
X141227500Y-100050000D03*
%TD*%
D18*
%TO.P,R8,1*%
%TO.N,GND*%
X162915600Y-109780700D03*
%TO.P,R8,2*%
%TO.N,/ACCUM_V*%
X162915600Y-111605700D03*
%TD*%
D19*
%TO.P,U4,1*%
%TO.N,Net-(C6-Pad1)*%
X154507500Y-97895000D03*
%TO.P,U4,2,GND_2*%
%TO.N,GND*%
X154507500Y-97245000D03*
%TO.P,U4,3*%
%TO.N,Net-(C7-Pad1)*%
X154507500Y-96595000D03*
%TO.P,U4,4*%
%TO.N,Net-(U4-Pad4)*%
X152832500Y-96595000D03*
%TO.P,U4,5,VCC_5*%
%TO.N,+5V*%
X152832500Y-97245000D03*
%TO.P,U4,6*%
%TO.N,Net-(U4-Pad6)*%
X152832500Y-97895000D03*
%TD*%
D17*
%TO.P,R4,1*%
%TO.N,+12V*%
X144422500Y-94437200D03*
%TO.P,R4,2*%
%TO.N,BSPD_OUT*%
X142597500Y-94437200D03*
%TD*%
D13*
%TO.P,C1,1*%
%TO.N,+5V*%
X164741800Y-103154600D03*
%TO.P,C1,2*%
%TO.N,GND*%
X163191800Y-103154600D03*
%TD*%
D16*
%TO.P,U1,1*%
%TO.N,Net-(U1-Pad1)*%
X161766800Y-104770400D03*
%TO.P,U1,2,-_2*%
%TO.N,/0.385V*%
X161766800Y-105420400D03*
%TO.P,U1,3,+_3*%
%TO.N,/ACCUM_V*%
X161766800Y-106070400D03*
%TO.P,U1,4,V-_4*%
%TO.N,GND*%
X161766800Y-106720400D03*
%TO.P,U1,5,+_5*%
%TO.N,/ACCUM_V*%
X166166800Y-106720400D03*
%TO.P,U1,6,-_6*%
%TO.N,/THRESH_ACCUM*%
X166166800Y-106070400D03*
%TO.P,U1,7*%
%TO.N,Net-(U1-Pad7)*%
X166166800Y-105420400D03*
%TO.P,U1,8,V+_8*%
%TO.N,+5V*%
X166166800Y-104770400D03*
%TD*%
D20*
%TO.P,TP2,1,1_1*%
%TO.N,/THRESH_BSE*%
X136347200Y-107188000D03*
%TD*%
D18*
%TO.P,R10,1*%
%TO.N,GND*%
X160477200Y-109780700D03*
%TO.P,R10,2*%
%TO.N,/BSE_2*%
X160477200Y-111605700D03*
%TD*%
D13*
%TO.P,C2,1*%
%TO.N,+5V*%
X149908200Y-103154600D03*
%TO.P,C2,2*%
%TO.N,GND*%
X148358200Y-103154600D03*
%TD*%
D16*
%TO.P,U3,1*%
%TO.N,Net-(U3-Pad1)*%
X154350000Y-104770400D03*
%TO.P,U3,2,-_2*%
%TO.N,/0.385V*%
X154350000Y-105420400D03*
%TO.P,U3,3,+_3*%
%TO.N,/BSE_2*%
X154350000Y-106070400D03*
%TO.P,U3,4,V-_4*%
%TO.N,GND*%
X154350000Y-106720400D03*
%TO.P,U3,5,+_5*%
%TO.N,/BSE_2*%
X158750000Y-106720400D03*
%TO.P,U3,6,-_6*%
%TO.N,/THRESH_BSE*%
X158750000Y-106070400D03*
%TO.P,U3,7*%
%TO.N,Net-(U10-Pad2)*%
X158750000Y-105420400D03*
%TO.P,U3,8,V+_8*%
%TO.N,+5V*%
X158750000Y-104770400D03*
%TD*%
D12*
%TO.P,U9,1*%
%TO.N,Net-(U1-Pad7)*%
X158845400Y-101421500D03*
%TO.P,U9,2*%
%TO.N,Net-(U10-Pad4)*%
X159495400Y-101421500D03*
%TO.P,U9,3,GND_3*%
%TO.N,GND*%
X160145400Y-101421500D03*
%TO.P,U9,4*%
%TO.N,/BRAKE+CURRENT_HOLD*%
X160145400Y-99746500D03*
%TO.P,U9,5,VCC_5*%
%TO.N,+5V*%
X158845400Y-99746500D03*
%TD*%
%TO.P,U8,1*%
%TO.N,Net-(U2-Pad1)*%
X149921200Y-101573900D03*
%TO.P,U8,2*%
%TO.N,Net-(U3-Pad1)*%
X150571200Y-101573900D03*
%TO.P,U8,3,GND_3*%
%TO.N,GND*%
X151221200Y-101573900D03*
%TO.P,U8,4*%
%TO.N,Net-(U7-Pad2)*%
X151221200Y-99898900D03*
%TO.P,U8,5,VCC_5*%
%TO.N,+5V*%
X149921200Y-99898900D03*
%TD*%
D20*
%TO.P,TP1,1,1_1*%
%TO.N,/THRESH_ACCUM*%
X169976800Y-97383600D03*
%TD*%
D21*
%TO.P,U5,1*%
%TO.N,Net-(R6-Pad2)*%
X146951700Y-97917000D03*
%TO.P,U5,2*%
%TO.N,Net-(U5-Pad2)*%
X146951700Y-96647000D03*
%TO.P,U5,3*%
%TO.N,GNDPWR*%
X140271500Y-96647000D03*
%TO.P,U5,4*%
%TO.N,Net-(Q1-G)*%
X140271500Y-97917000D03*
%TD*%
D18*
%TO.P,R9,1*%
%TO.N,GND*%
X147015200Y-109831500D03*
%TO.P,R9,2*%
%TO.N,/BSE_1*%
X147015200Y-111656500D03*
%TD*%
D22*
%TO.P,Q1,1,G_1*%
%TO.N,Net-(Q1-G)*%
X138046700Y-97774800D03*
%TO.P,Q1,2,S_2*%
%TO.N,GNDPWR*%
X138046700Y-95874800D03*
%TO.P,Q1,3,D_3*%
%TO.N,BSPD_OUT*%
X136171700Y-96824800D03*
%TD*%
D15*
%TO.P,R2,1*%
%TO.N,GND*%
X166887500Y-111020000D03*
%TO.P,R2,2*%
%TO.N,/0.385V*%
X168712500Y-111020000D03*
%TD*%
D19*
%TO.P,U6,1*%
%TO.N,Net-(U4-Pad6)*%
X150849900Y-97881200D03*
%TO.P,U6,2*%
%TO.N,Net-(U4-Pad4)*%
X150849900Y-97231200D03*
%TO.P,U6,3,GND_3*%
%TO.N,GND*%
X150849900Y-96581200D03*
%TO.P,U6,4*%
%TO.N,Net-(U5-Pad2)*%
X149174900Y-96581200D03*
%TO.P,U6,5,VCC_5*%
%TO.N,+5V*%
X149174900Y-97881200D03*
%TD*%
D23*
%TO.P,J2,1,Pin_1_1*%
%TO.N,GND*%
X149961600Y-110642400D03*
D24*
%TO.P,J2,2,Pin_2_2*%
%TO.N,/BSE_1*%
X152501600Y-110642400D03*
%TO.P,J2,3,Pin_3_3*%
%TO.N,/BSE_2*%
X155041600Y-110642400D03*
%TO.P,J2,4,Pin_4_4*%
%TO.N,/ACCUM_V*%
X157581600Y-110642400D03*
%TD*%
D23*
%TO.P,J1,1,Pin_1_1*%
%TO.N,GNDPWR*%
X149950000Y-94200000D03*
D24*
%TO.P,J1,2,Pin_2_2*%
%TO.N,BSPD_OUT*%
X152490000Y-94200000D03*
%TO.P,J1,3,Pin_3_3*%
%TO.N,+12V*%
X155030000Y-94200000D03*
%TO.P,J1,4,Pin_4_4*%
%TO.N,+5V*%
X157570000Y-94200000D03*
%TD*%
D25*
%TO.N,+5V*%
X162790000Y-99060000D03*
X158000320Y-99649680D03*
X150940000Y-103370000D03*
X149290000Y-106310000D03*
X153520933Y-99860000D03*
X149440000Y-98970000D03*
X153670774Y-96038018D03*
X156495667Y-99710000D03*
X156266428Y-104650001D03*
X156531473Y-106480000D03*
X147860000Y-107880000D03*
X157346387Y-104103613D03*
%TO.N,/THRESH_BSE*%
X150069265Y-105657935D03*
X144272000Y-106426000D03*
X157640000Y-106100000D03*
%TO.N,GND*%
X160560000Y-106690000D03*
X141800000Y-111610000D03*
X167710000Y-98980000D03*
X150510000Y-108760000D03*
X154350000Y-107600000D03*
X138610000Y-108080000D03*
X167210000Y-109430000D03*
X161810000Y-94270000D03*
X150620000Y-98700000D03*
X162570000Y-100620000D03*
X159240000Y-107890000D03*
X163450000Y-101060000D03*
X144670000Y-95940000D03*
X146980000Y-103200000D03*
X152090000Y-99130000D03*
X152110000Y-102700000D03*
X150300000Y-95670000D03*
X158590000Y-102850000D03*
X170120000Y-110800000D03*
X150594500Y-100561401D03*
X163360000Y-98180000D03*
X133200000Y-107470000D03*
X161940000Y-95120000D03*
X168170000Y-93790000D03*
X136830000Y-109810000D03*
X159810000Y-94270000D03*
X152650000Y-108960000D03*
X171420000Y-106850000D03*
X172640000Y-97410000D03*
X144910000Y-103250000D03*
X137980000Y-111600000D03*
X165600000Y-110980000D03*
X161640000Y-108620000D03*
X150410000Y-107900000D03*
X145690000Y-95980000D03*
X161900000Y-103210000D03*
X139260000Y-102910000D03*
X144690000Y-108670000D03*
X166390000Y-100700000D03*
X149190000Y-108090000D03*
X134000000Y-108510000D03*
X154970000Y-102868473D03*
X161080000Y-102610000D03*
X145360000Y-110050000D03*
X162200000Y-96370000D03*
X169870000Y-93960000D03*
X153470933Y-102620000D03*
X155930000Y-95840000D03*
X172980000Y-106520000D03*
X156000000Y-108250000D03*
X138850000Y-105160000D03*
X144770000Y-96910000D03*
X144040000Y-111520000D03*
X168000000Y-95390000D03*
X167370000Y-96190000D03*
X146840000Y-101480000D03*
X152820000Y-107350000D03*
X155560000Y-104220000D03*
X169990000Y-106260000D03*
X159010000Y-108640000D03*
X147120000Y-95690000D03*
X144610000Y-101830000D03*
X134980000Y-110740000D03*
X159030000Y-95040000D03*
X155625000Y-97275000D03*
X141020000Y-103540000D03*
X169700000Y-95080000D03*
X159920000Y-103450000D03*
X166370000Y-102650000D03*
X164620000Y-111570000D03*
X158070000Y-109050000D03*
X148570000Y-108750000D03*
X161380000Y-101460000D03*
X134140000Y-106100000D03*
X142620000Y-104530000D03*
X154620000Y-108720000D03*
%TO.N,Net-(U1-Pad1)*%
X153043066Y-103443473D03*
X160908413Y-104251587D03*
%TO.N,/DISCONNECT_HOLD*%
X154963929Y-99871200D03*
%TO.N,/THRESH_ACCUM*%
X164439600Y-105867200D03*
X164998400Y-99060000D03*
X169950000Y-97400000D03*
%TO.N,/0.385V*%
X155467846Y-105270000D03*
X163118800Y-105460800D03*
X165630000Y-109950000D03*
X148336000Y-105057935D03*
%TO.N,Net-(C7-Pad1)*%
X156540000Y-97590000D03*
%TO.N,/ACCUM_V*%
X167770000Y-106940000D03*
X164950000Y-108710000D03*
%TO.N,Net-(C6-Pad1)*%
X153880000Y-98480000D03*
%TO.N,BSPD_OUT*%
X143984700Y-93050000D03*
%TO.N,Net-(U1-Pad7)*%
X159412266Y-102434000D03*
X163576000Y-104394000D03*
%TO.N,Net-(U3-Pad1)*%
X152510000Y-104040000D03*
X154200000Y-104457935D03*
%TO.N,Net-(R6-Pad2)*%
X145590000Y-98180000D03*
%TO.N,GNDPWR*%
X139670000Y-101380000D03*
X138880000Y-99300000D03*
X142080000Y-98250000D03*
X139700000Y-95280000D03*
X141960000Y-96060000D03*
X135270000Y-97980000D03*
X135530000Y-94010000D03*
X133370000Y-97600000D03*
X140870000Y-93190000D03*
X134160000Y-96340000D03*
X137770000Y-93720000D03*
%TD*%
%TO.N,+5V*%
D26*
X167066800Y-104770400D02*
X166166800Y-104770400D01*
X170452500Y-109060000D02*
X170452500Y-108156100D01*
X157325000Y-103345400D02*
X158750000Y-104770400D01*
X164741800Y-103154600D02*
X164741800Y-103345400D01*
X149440000Y-98146300D02*
X149174900Y-97881200D01*
X149440000Y-99417700D02*
X149921200Y-99898900D01*
X157346387Y-104103613D02*
X157346387Y-103175987D01*
X157581600Y-94437200D02*
X158558800Y-93460000D01*
X151333200Y-104770400D02*
X150108271Y-104770400D01*
X170452500Y-108156100D02*
X167066800Y-104770400D01*
X166197600Y-94742200D02*
X166680000Y-95224600D01*
X158000320Y-99649680D02*
X158097140Y-99746500D01*
X162760000Y-98428529D02*
X162760000Y-97931471D01*
X156340818Y-104650001D02*
X156400000Y-104709183D01*
X152934833Y-99860000D02*
X152895933Y-99898900D01*
X156495667Y-99710000D02*
X155907167Y-99710000D01*
X157325000Y-103154600D02*
X157325000Y-103345400D01*
X150123600Y-103370000D02*
X149908200Y-103154600D01*
X162790000Y-98458529D02*
X162760000Y-98428529D01*
X158558800Y-93460000D02*
X164915400Y-93460000D01*
X158097140Y-99746500D02*
X158845400Y-99746500D01*
X157346387Y-103175987D02*
X157325000Y-103154600D01*
X166197600Y-94882400D02*
X166197600Y-94742200D01*
X163460000Y-96270000D02*
X164810000Y-96270000D01*
X141841800Y-107880000D02*
X147860000Y-107880000D01*
X156266428Y-104650001D02*
X156340818Y-104650001D01*
X153413000Y-97197000D02*
X152832500Y-97197000D01*
X164741800Y-103345400D02*
X166166800Y-104770400D01*
X156400000Y-106451728D02*
X156428272Y-106480000D01*
X162790000Y-97901471D02*
X162790000Y-96940000D01*
X159890000Y-107380000D02*
X160500000Y-107990000D01*
X156400000Y-104709183D02*
X156400000Y-106451728D01*
X159890000Y-105040000D02*
X159890000Y-107380000D01*
X149440000Y-98970000D02*
X149440000Y-98146300D01*
X164810000Y-96270000D02*
X166197600Y-94882400D01*
X149290000Y-105588671D02*
X149290000Y-106310000D01*
X155907167Y-99710000D02*
X155870667Y-99746500D01*
X159620400Y-104770400D02*
X159890000Y-105040000D01*
X150108271Y-104770400D02*
X149290000Y-105588671D01*
X153520933Y-99860000D02*
X152934833Y-99860000D01*
X160500000Y-107990000D02*
X169382500Y-107990000D01*
X164915400Y-93460000D02*
X166197600Y-94742200D01*
X150940000Y-103370000D02*
X150123600Y-103370000D01*
X162790000Y-96940000D02*
X163460000Y-96270000D01*
X149908200Y-103345400D02*
X151333200Y-104770400D01*
X158750000Y-104770400D02*
X159620400Y-104770400D01*
X162790000Y-99060000D02*
X162790000Y-98458529D01*
X162760000Y-97931471D02*
X162790000Y-97901471D01*
X169382500Y-107990000D02*
X170452500Y-109060000D01*
X156428272Y-106480000D02*
X156531473Y-106480000D01*
X140400400Y-109321400D02*
X141841800Y-107880000D01*
X153670774Y-96038018D02*
X153670774Y-96939226D01*
X149440000Y-98970000D02*
X149440000Y-99417700D01*
X153670774Y-96939226D02*
X153413000Y-97197000D01*
X149908200Y-103154600D02*
X149908200Y-103345400D01*
%TO.N,/THRESH_BSE*%
X150069265Y-105657935D02*
X150481730Y-106070400D01*
X150481730Y-106070400D02*
X151333200Y-106070400D01*
X141650400Y-106421400D02*
X144267400Y-106421400D01*
D27*
X136347200Y-107188000D02*
X137113800Y-106421400D01*
D26*
X157640000Y-106100000D02*
X157845962Y-106100000D01*
X144267400Y-106421400D02*
X144272000Y-106426000D01*
D27*
X137113800Y-106421400D02*
X141650400Y-106421400D01*
D26*
X157875562Y-106070400D02*
X158750000Y-106070400D01*
X157845962Y-106100000D02*
X157875562Y-106070400D01*
%TO.N,Net-(U1-Pad1)*%
D27*
X161247987Y-104251587D02*
X161766800Y-104770400D01*
X160908413Y-104251587D02*
X161247987Y-104251587D01*
X152895933Y-103296340D02*
X152895933Y-101573900D01*
X153043066Y-103443473D02*
X152895933Y-103296340D01*
%TO.N,Net-(U7-Pad2)*%
X152008700Y-100686400D02*
X151221200Y-99898900D01*
X153545933Y-101573900D02*
X153545933Y-101096324D01*
X153545933Y-101096324D02*
X153136009Y-100686400D01*
X153136009Y-100686400D02*
X152008700Y-100686400D01*
%TO.N,/DISCONNECT_HOLD*%
X154936229Y-99898900D02*
X154195933Y-99898900D01*
X154963929Y-99871200D02*
X154936229Y-99898900D01*
%TO.N,/THRESH_ACCUM*%
D26*
X164947600Y-97642200D02*
X164947600Y-99009200D01*
X164439600Y-105867200D02*
X164642800Y-106070400D01*
X164642800Y-106070400D02*
X166166800Y-106070400D01*
X164947600Y-99009200D02*
X164998400Y-99060000D01*
D27*
X169966400Y-97383600D02*
X169950000Y-97400000D01*
X169976800Y-97383600D02*
X169966400Y-97383600D01*
X165206200Y-97383600D02*
X164947600Y-97642200D01*
%TO.N,/0.385V*%
X168127500Y-108560000D02*
X168627500Y-109060000D01*
D26*
X155467846Y-105270000D02*
X155467846Y-105292089D01*
X148336000Y-105057935D02*
X147973535Y-105420400D01*
X161807200Y-105460800D02*
X161766800Y-105420400D01*
D27*
X167020000Y-108560000D02*
X168127500Y-108560000D01*
D26*
X147973535Y-105420400D02*
X146933200Y-105420400D01*
X163118800Y-105460800D02*
X161807200Y-105460800D01*
D27*
X165630000Y-109950000D02*
X167020000Y-108560000D01*
X168712500Y-111020000D02*
X168712500Y-109145000D01*
D26*
X155467846Y-105292089D02*
X155339535Y-105420400D01*
D27*
X168712500Y-109145000D02*
X168627500Y-109060000D01*
D26*
X155339535Y-105420400D02*
X154350000Y-105420400D01*
%TO.N,Net-(U2-Pad1)*%
D27*
X147774000Y-103929600D02*
X148806896Y-103929600D01*
X149158200Y-102336900D02*
X149921200Y-101573900D01*
X148806896Y-103929600D02*
X149158200Y-103578296D01*
X146933200Y-104770400D02*
X147774000Y-103929600D01*
X149158200Y-103578296D02*
X149158200Y-102336900D01*
%TO.N,/BSE_1*%
D26*
X151384000Y-111760000D02*
X152501600Y-110642400D01*
X147015200Y-111656500D02*
X147118700Y-111760000D01*
X147118700Y-111760000D02*
X151384000Y-111760000D01*
X151333200Y-106720400D02*
X150963600Y-107090000D01*
X152501600Y-110642400D02*
X151333200Y-109474000D01*
X150963600Y-107090000D02*
X148880000Y-107090000D01*
X147860400Y-106070400D02*
X146933200Y-106070400D01*
X151333200Y-109474000D02*
X151333200Y-106720400D01*
X148880000Y-107090000D02*
X147860400Y-106070400D01*
%TO.N,Net-(U10-Pad1)*%
D27*
X152183200Y-105420400D02*
X154060000Y-103543600D01*
X155478500Y-101421500D02*
X155870667Y-101421500D01*
X154060000Y-103543600D02*
X154060000Y-102840000D01*
X151333200Y-105420400D02*
X152183200Y-105420400D01*
X154060000Y-102840000D02*
X155478500Y-101421500D01*
%TO.N,Net-(U10-Pad2)*%
X156550000Y-101450833D02*
X156520667Y-101421500D01*
X158750000Y-105420400D02*
X157850000Y-105420400D01*
X156550000Y-104120400D02*
X156550000Y-101450833D01*
X157850000Y-105420400D02*
X156550000Y-104120400D01*
%TO.N,Net-(U10-Pad4)*%
X159495400Y-101421500D02*
X159495400Y-100943924D01*
X159085476Y-100534000D02*
X157958167Y-100534000D01*
X159495400Y-100943924D02*
X159085476Y-100534000D01*
X157958167Y-100534000D02*
X157170667Y-99746500D01*
%TO.N,/BRAKE+CURRENT_HOLD*%
X160145400Y-99746500D02*
X160145400Y-98679300D01*
X160145400Y-98679300D02*
X159232500Y-97766400D01*
X159232500Y-97766400D02*
X159232500Y-96910000D01*
%TO.N,Net-(C7-Pad1)*%
X156710000Y-96910000D02*
X157407500Y-96910000D01*
X156540000Y-97590000D02*
X156540000Y-97080000D01*
X157407500Y-96910000D02*
X157044500Y-96547000D01*
X157044500Y-96547000D02*
X154507500Y-96547000D01*
X156540000Y-97080000D02*
X156710000Y-96910000D01*
%TO.N,+12V*%
X153120000Y-93050000D02*
X154270000Y-94200000D01*
X143052500Y-95807200D02*
X144422500Y-94437200D01*
X145809700Y-93050000D02*
X153120000Y-93050000D01*
X154270000Y-94200000D02*
X155030000Y-94200000D01*
X144422500Y-94437200D02*
X145809700Y-93050000D01*
X143052500Y-100050000D02*
X143052500Y-95807200D01*
%TO.N,Net-(Q1-G)*%
X138046700Y-97774800D02*
X138952300Y-97774800D01*
X138046700Y-97774800D02*
X140129300Y-97774800D01*
X138952300Y-97774800D02*
X141227500Y-100050000D01*
X140129300Y-97774800D02*
X140271500Y-97917000D01*
%TO.N,/ACCUM_V*%
D26*
X163291800Y-106720400D02*
X162641800Y-106070400D01*
X157632400Y-110693200D02*
X157581600Y-110642400D01*
X166166800Y-106720400D02*
X163291800Y-106720400D01*
X162915600Y-111605700D02*
X162003100Y-110693200D01*
X162003100Y-110693200D02*
X157632400Y-110693200D01*
X166386400Y-106940000D02*
X166166800Y-106720400D01*
X162641800Y-106070400D02*
X161766800Y-106070400D01*
X164950000Y-109571300D02*
X164950000Y-108710000D01*
X167770000Y-106940000D02*
X166386400Y-106940000D01*
X162915600Y-111605700D02*
X164950000Y-109571300D01*
%TO.N,Net-(C6-Pad1)*%
D27*
X153880000Y-98474500D02*
X154507500Y-97847000D01*
X153880000Y-98480000D02*
X153880000Y-98474500D01*
%TO.N,Net-(U4-Pad4)*%
X152832500Y-96547000D02*
X151911676Y-96547000D01*
X151227476Y-97231200D02*
X150849900Y-97231200D01*
X151911676Y-96547000D02*
X151227476Y-97231200D01*
%TO.N,Net-(U4-Pad6)*%
X152832500Y-97847000D02*
X150884100Y-97847000D01*
X150884100Y-97847000D02*
X150849900Y-97881200D01*
%TO.N,BSPD_OUT*%
X136972800Y-94437200D02*
X142597500Y-94437200D01*
X136171700Y-96824800D02*
X136171700Y-95238300D01*
X142597500Y-94437200D02*
X143984700Y-93050000D01*
X136171700Y-95238300D02*
X136972800Y-94437200D01*
%TO.N,Net-(U1-Pad7)*%
X166166800Y-105420400D02*
X164841329Y-105420400D01*
X158845400Y-101867134D02*
X158845400Y-101421500D01*
X163814929Y-104394000D02*
X163576000Y-104394000D01*
X164841329Y-105420400D02*
X163814929Y-104394000D01*
X159412266Y-102434000D02*
X158845400Y-101867134D01*
%TO.N,/BSE_2*%
D26*
X156120000Y-107080000D02*
X155110400Y-106070400D01*
X156210000Y-111810800D02*
X155041600Y-110642400D01*
X155110400Y-106070400D02*
X154350000Y-106070400D01*
X155041600Y-110642400D02*
X158750000Y-106934000D01*
X158390400Y-107080000D02*
X156120000Y-107080000D01*
X160272100Y-111810800D02*
X156210000Y-111810800D01*
X158750000Y-106720400D02*
X158390400Y-107080000D01*
X160477200Y-111605700D02*
X160272100Y-111810800D01*
X158750000Y-106934000D02*
X158750000Y-106720400D01*
%TO.N,Net-(U3-Pad1)*%
D27*
X154200000Y-104620400D02*
X154350000Y-104770400D01*
X152510000Y-103950000D02*
X150571200Y-102011200D01*
X154200000Y-104457935D02*
X154200000Y-104620400D01*
X152510000Y-104040000D02*
X152510000Y-103950000D01*
X150571200Y-102011200D02*
X150571200Y-101573900D01*
%TO.N,Net-(R6-Pad2)*%
X146688700Y-98180000D02*
X146951700Y-97917000D01*
X145590000Y-98180000D02*
X146688700Y-98180000D01*
%TO.N,Net-(U5-Pad2)*%
X149174900Y-96581200D02*
X147017500Y-96581200D01*
X147017500Y-96581200D02*
X146951700Y-96647000D01*
%TD*%
%TA.AperFunction,Conductor*%
%TO.N,GND*%
G36*
X153430741Y-95332043D02*
G01*
X153476538Y-95384811D01*
X153486537Y-95453961D01*
X153457563Y-95517540D01*
X153425786Y-95543798D01*
X153332765Y-95597505D01*
X153332756Y-95597511D01*
X153230267Y-95700000D01*
X153230262Y-95700006D01*
X153157791Y-95825529D01*
X153157790Y-95825533D01*
X153120274Y-95965543D01*
X153120274Y-95965545D01*
X153120274Y-96045500D01*
X153100589Y-96112539D01*
X153047785Y-96158294D01*
X152996274Y-96169500D01*
X152367895Y-96169500D01*
X152318674Y-96175980D01*
X152318666Y-96175982D01*
X152245970Y-96209882D01*
X152193565Y-96221500D01*
X151868823Y-96221500D01*
X151786035Y-96243682D01*
X151711814Y-96286535D01*
X151711811Y-96286537D01*
X151228967Y-96769381D01*
X151167644Y-96802866D01*
X151141286Y-96805700D01*
X150385295Y-96805700D01*
X150336074Y-96812180D01*
X150336066Y-96812182D01*
X150228040Y-96862556D01*
X150143756Y-96946840D01*
X150093380Y-97054871D01*
X150086901Y-97104086D01*
X150086900Y-97104103D01*
X150086900Y-97358304D01*
X150093380Y-97407525D01*
X150093382Y-97407533D01*
X150138270Y-97503795D01*
X150148762Y-97572873D01*
X150138271Y-97608603D01*
X150124783Y-97637529D01*
X150078611Y-97689969D01*
X150011418Y-97709122D01*
X149944536Y-97688907D01*
X149900018Y-97637531D01*
X149896273Y-97629500D01*
X149881044Y-97596841D01*
X149796759Y-97512556D01*
X149688730Y-97462181D01*
X149688728Y-97462180D01*
X149639513Y-97455701D01*
X149639508Y-97455700D01*
X149639503Y-97455700D01*
X149639496Y-97455700D01*
X148710295Y-97455700D01*
X148661074Y-97462180D01*
X148661066Y-97462182D01*
X148553040Y-97512556D01*
X148468756Y-97596840D01*
X148418380Y-97704871D01*
X148411901Y-97754086D01*
X148411900Y-97754103D01*
X148411900Y-98008304D01*
X148418380Y-98057525D01*
X148418382Y-98057533D01*
X148441694Y-98107525D01*
X148468756Y-98165559D01*
X148553041Y-98249844D01*
X148661070Y-98300219D01*
X148710297Y-98306700D01*
X148965501Y-98306699D01*
X149032539Y-98326383D01*
X149078294Y-98379187D01*
X149089500Y-98430699D01*
X149089500Y-98490614D01*
X149069815Y-98557653D01*
X149053181Y-98578295D01*
X148999493Y-98631982D01*
X148999488Y-98631988D01*
X148927017Y-98757511D01*
X148927016Y-98757515D01*
X148889500Y-98897525D01*
X148889500Y-99042475D01*
X148927016Y-99182485D01*
X148927017Y-99182488D01*
X148999488Y-99308011D01*
X148999493Y-99308017D01*
X149053181Y-99361705D01*
X149086666Y-99423028D01*
X149089500Y-99449386D01*
X149089500Y-99463843D01*
X149104680Y-99520499D01*
X149113384Y-99552983D01*
X149113387Y-99552990D01*
X149159527Y-99632908D01*
X149159531Y-99632913D01*
X149459381Y-99932763D01*
X149492866Y-99994086D01*
X149495700Y-100020444D01*
X149495700Y-100363504D01*
X149502180Y-100412725D01*
X149502182Y-100412733D01*
X149544283Y-100503017D01*
X149552556Y-100520759D01*
X149636841Y-100605044D01*
X149677531Y-100624018D01*
X149729969Y-100670188D01*
X149749122Y-100737381D01*
X149728907Y-100804263D01*
X149677533Y-100848780D01*
X149636841Y-100867755D01*
X149552556Y-100952040D01*
X149502180Y-101060071D01*
X149495701Y-101109286D01*
X149495700Y-101109303D01*
X149495700Y-101487710D01*
X149476015Y-101554749D01*
X149459381Y-101575391D01*
X148897737Y-102137035D01*
X148897732Y-102137041D01*
X148895886Y-102140240D01*
X148893623Y-102142397D01*
X148892787Y-102143487D01*
X148892616Y-102143356D01*
X148845315Y-102188452D01*
X148776707Y-102201670D01*
X148749499Y-102195938D01*
X148730806Y-102189744D01*
X148631522Y-102179600D01*
X148608200Y-102179600D01*
X148608200Y-103480100D01*
X148588515Y-103547139D01*
X148535711Y-103592894D01*
X148484200Y-103604100D01*
X148232200Y-103604100D01*
X148165161Y-103584415D01*
X148119406Y-103531611D01*
X148108200Y-103480100D01*
X148108200Y-103404600D01*
X147408201Y-103404600D01*
X147408201Y-103452922D01*
X147418344Y-103552207D01*
X147462164Y-103684447D01*
X147464566Y-103754276D01*
X147432139Y-103811132D01*
X146984692Y-104258581D01*
X146923369Y-104292066D01*
X146897011Y-104294900D01*
X146208523Y-104294900D01*
X146135464Y-104309432D01*
X146135460Y-104309433D01*
X146052599Y-104364799D01*
X145997233Y-104447660D01*
X145997232Y-104447664D01*
X145982700Y-104520721D01*
X145982700Y-105020073D01*
X145992871Y-105071210D01*
X145992871Y-105119590D01*
X145982700Y-105170726D01*
X145982700Y-105670073D01*
X145992871Y-105721210D01*
X145992871Y-105769590D01*
X145982700Y-105820726D01*
X145982700Y-106320078D01*
X145997232Y-106393135D01*
X145997233Y-106393139D01*
X146009076Y-106410863D01*
X146052599Y-106476001D01*
X146122173Y-106522488D01*
X146135460Y-106531366D01*
X146135464Y-106531367D01*
X146208521Y-106545899D01*
X146208524Y-106545900D01*
X146208526Y-106545900D01*
X147657876Y-106545900D01*
X147657877Y-106545899D01*
X147684976Y-106540509D01*
X147742919Y-106528984D01*
X147743703Y-106532926D01*
X147790832Y-106527850D01*
X147853317Y-106559112D01*
X147856521Y-106562203D01*
X148664788Y-107370470D01*
X148664789Y-107370471D01*
X148664791Y-107370472D01*
X148694896Y-107387853D01*
X148744712Y-107416614D01*
X148833856Y-107440500D01*
X150858700Y-107440500D01*
X150925739Y-107460185D01*
X150971494Y-107512989D01*
X150982700Y-107564500D01*
X150982700Y-109520144D01*
X150992807Y-109557864D01*
X150994001Y-109562320D01*
X150992338Y-109632170D01*
X150953175Y-109690032D01*
X150888946Y-109717536D01*
X150824141Y-109707848D01*
X150716476Y-109660310D01*
X150691394Y-109657400D01*
X150211600Y-109657400D01*
X150211600Y-110197839D01*
X150158453Y-110167155D01*
X150028743Y-110132400D01*
X149894457Y-110132400D01*
X149764747Y-110167155D01*
X149711600Y-110197839D01*
X149711600Y-109657400D01*
X149231814Y-109657400D01*
X149231791Y-109657402D01*
X149206730Y-109660308D01*
X149206726Y-109660309D01*
X149104125Y-109705611D01*
X149104120Y-109705614D01*
X149024814Y-109784920D01*
X149024811Y-109784925D01*
X148979510Y-109887522D01*
X148979510Y-109887524D01*
X148976600Y-109912605D01*
X148976600Y-110392400D01*
X149517040Y-110392400D01*
X149486355Y-110445547D01*
X149451600Y-110575257D01*
X149451600Y-110709543D01*
X149486355Y-110839253D01*
X149517040Y-110892400D01*
X148976601Y-110892400D01*
X148976601Y-111285500D01*
X148956916Y-111352539D01*
X148904112Y-111398294D01*
X148852601Y-111409500D01*
X148083896Y-111409500D01*
X148016857Y-111389815D01*
X147971102Y-111337011D01*
X147960606Y-111298750D01*
X147959291Y-111286517D01*
X147908997Y-111151671D01*
X147908993Y-111151664D01*
X147822747Y-111036455D01*
X147761357Y-110990498D01*
X147719487Y-110934564D01*
X147714503Y-110864872D01*
X147747989Y-110803550D01*
X147778290Y-110782335D01*
X147778175Y-110782149D01*
X147781389Y-110780166D01*
X147783281Y-110778842D01*
X147784326Y-110778354D01*
X147933545Y-110686315D01*
X148057515Y-110562345D01*
X148149556Y-110413124D01*
X148149558Y-110413119D01*
X148204705Y-110246697D01*
X148204706Y-110246690D01*
X148215199Y-110143986D01*
X148215200Y-110143973D01*
X148215200Y-110081500D01*
X145815201Y-110081500D01*
X145815201Y-110143986D01*
X145825694Y-110246697D01*
X145880841Y-110413119D01*
X145880843Y-110413124D01*
X145972884Y-110562345D01*
X146096854Y-110686315D01*
X146246077Y-110778356D01*
X146247124Y-110778845D01*
X146247722Y-110779371D01*
X146252225Y-110782149D01*
X146251750Y-110782917D01*
X146299568Y-110825012D01*
X146318726Y-110892204D01*
X146298517Y-110959087D01*
X146269042Y-110990498D01*
X146207652Y-111036455D01*
X146121406Y-111151664D01*
X146121402Y-111151671D01*
X146077269Y-111270000D01*
X146071109Y-111286517D01*
X146064700Y-111346127D01*
X146064700Y-111346134D01*
X146064700Y-111346135D01*
X146064700Y-111966870D01*
X146064701Y-111966876D01*
X146071108Y-112026483D01*
X146121402Y-112161328D01*
X146121406Y-112161335D01*
X146143755Y-112191189D01*
X146168173Y-112256653D01*
X146153322Y-112324926D01*
X146103917Y-112374332D01*
X146044489Y-112389500D01*
X137492561Y-112389500D01*
X137487437Y-112389394D01*
X137040983Y-112370928D01*
X137030769Y-112370082D01*
X136589900Y-112315128D01*
X136579791Y-112313441D01*
X136144970Y-112222269D01*
X136135035Y-112219753D01*
X135709226Y-112092984D01*
X135699533Y-112089656D01*
X135285650Y-111928158D01*
X135276265Y-111924041D01*
X134877145Y-111728923D01*
X134868131Y-111724046D01*
X134486454Y-111496616D01*
X134477875Y-111491010D01*
X134124556Y-111238746D01*
X134116310Y-111232858D01*
X134108224Y-111226565D01*
X133769203Y-110939428D01*
X133761663Y-110932487D01*
X133447512Y-110618336D01*
X133440571Y-110610796D01*
X133347155Y-110500500D01*
X133153430Y-110271770D01*
X133147139Y-110263687D01*
X133146237Y-110262424D01*
X132888989Y-109902124D01*
X132883383Y-109893545D01*
X132655953Y-109511868D01*
X132651076Y-109502854D01*
X132455958Y-109103734D01*
X132451841Y-109094349D01*
X132386106Y-108925884D01*
X132290338Y-108680454D01*
X132287019Y-108670786D01*
X132160242Y-108244951D01*
X132157733Y-108235043D01*
X132066555Y-107800194D01*
X132064873Y-107790114D01*
X132009915Y-107349209D01*
X132009072Y-107339036D01*
X132006901Y-107286543D01*
X135346699Y-107286543D01*
X135385147Y-107479829D01*
X135385150Y-107479839D01*
X135460564Y-107661907D01*
X135460571Y-107661920D01*
X135570060Y-107825781D01*
X135570063Y-107825785D01*
X135709415Y-107965137D01*
X135873279Y-108074628D01*
X135873292Y-108074635D01*
X136055360Y-108150049D01*
X136055365Y-108150051D01*
X136055369Y-108150051D01*
X136055370Y-108150052D01*
X136248656Y-108188500D01*
X136248659Y-108188500D01*
X136445743Y-108188500D01*
X136575782Y-108162632D01*
X136639035Y-108150051D01*
X136821114Y-108074632D01*
X136984982Y-107965139D01*
X136984981Y-107965139D01*
X136984985Y-107965137D01*
X136984985Y-107965136D01*
X137124336Y-107825785D01*
X137124339Y-107825782D01*
X137233832Y-107661914D01*
X137309251Y-107479835D01*
X137329008Y-107380511D01*
X137347700Y-107286543D01*
X137347700Y-107089456D01*
X137347699Y-107089454D01*
X137309038Y-106895091D01*
X137315265Y-106825500D01*
X137358128Y-106770323D01*
X137424018Y-106747078D01*
X137430655Y-106746900D01*
X140275900Y-106746900D01*
X140342939Y-106766585D01*
X140388694Y-106819389D01*
X140399900Y-106870900D01*
X140399900Y-107246078D01*
X140414432Y-107319135D01*
X140414433Y-107319139D01*
X140432805Y-107346635D01*
X140469799Y-107402001D01*
X140527418Y-107440500D01*
X140552660Y-107457366D01*
X140552664Y-107457367D01*
X140625721Y-107471899D01*
X140625724Y-107471900D01*
X141454857Y-107471900D01*
X141521896Y-107491585D01*
X141567651Y-107544389D01*
X141577595Y-107613547D01*
X141548570Y-107677103D01*
X141542538Y-107683581D01*
X140991538Y-108234581D01*
X140930215Y-108268066D01*
X140903857Y-108270900D01*
X139725723Y-108270900D01*
X139652664Y-108285432D01*
X139652660Y-108285433D01*
X139569799Y-108340799D01*
X139514433Y-108423660D01*
X139514432Y-108423664D01*
X139499900Y-108496721D01*
X139499900Y-110146078D01*
X139514432Y-110219135D01*
X139514433Y-110219139D01*
X139514434Y-110219140D01*
X139569799Y-110302001D01*
X139640629Y-110349327D01*
X139652660Y-110357366D01*
X139652664Y-110357367D01*
X139725721Y-110371899D01*
X139725724Y-110371900D01*
X139725726Y-110371900D01*
X141075076Y-110371900D01*
X141075077Y-110371899D01*
X141148140Y-110357366D01*
X141231001Y-110302001D01*
X141286366Y-110219140D01*
X141296291Y-110169244D01*
X141750400Y-110169244D01*
X141756801Y-110228772D01*
X141756803Y-110228779D01*
X141807045Y-110363486D01*
X141807049Y-110363493D01*
X141893209Y-110478587D01*
X141893212Y-110478590D01*
X142008306Y-110564750D01*
X142008313Y-110564754D01*
X142143020Y-110614996D01*
X142143027Y-110614998D01*
X142202555Y-110621399D01*
X142202572Y-110621400D01*
X142650400Y-110621400D01*
X143150400Y-110621400D01*
X143598228Y-110621400D01*
X143598244Y-110621399D01*
X143657772Y-110614998D01*
X143657779Y-110614996D01*
X143792486Y-110564754D01*
X143792493Y-110564750D01*
X143907587Y-110478590D01*
X143907590Y-110478587D01*
X143993750Y-110363493D01*
X143993754Y-110363486D01*
X144043996Y-110228779D01*
X144043998Y-110228772D01*
X144050399Y-110169244D01*
X144050400Y-110169227D01*
X144050400Y-109571400D01*
X143150400Y-109571400D01*
X143150400Y-110621400D01*
X142650400Y-110621400D01*
X142650400Y-109571400D01*
X141750400Y-109571400D01*
X141750400Y-110169244D01*
X141296291Y-110169244D01*
X141300900Y-110146074D01*
X141300900Y-109519013D01*
X145815200Y-109519013D01*
X145815200Y-109581500D01*
X146765200Y-109581500D01*
X147265200Y-109581500D01*
X148215199Y-109581500D01*
X148215199Y-109519028D01*
X148215198Y-109519013D01*
X148204705Y-109416302D01*
X148149558Y-109249880D01*
X148149556Y-109249875D01*
X148057515Y-109100654D01*
X147933545Y-108976684D01*
X147784324Y-108884643D01*
X147784319Y-108884641D01*
X147617897Y-108829494D01*
X147617890Y-108829493D01*
X147515186Y-108819000D01*
X147265200Y-108819000D01*
X147265200Y-109581500D01*
X146765200Y-109581500D01*
X146765200Y-108819000D01*
X146515229Y-108819000D01*
X146515212Y-108819001D01*
X146412502Y-108829494D01*
X146246080Y-108884641D01*
X146246075Y-108884643D01*
X146096854Y-108976684D01*
X145972884Y-109100654D01*
X145880843Y-109249875D01*
X145880841Y-109249880D01*
X145825694Y-109416302D01*
X145825693Y-109416309D01*
X145815200Y-109519013D01*
X141300900Y-109519013D01*
X141300900Y-108967942D01*
X141320585Y-108900903D01*
X141337214Y-108880266D01*
X141538721Y-108678759D01*
X141600042Y-108645276D01*
X141669734Y-108650260D01*
X141725667Y-108692132D01*
X141750084Y-108757596D01*
X141750400Y-108766442D01*
X141750400Y-109071400D01*
X144050400Y-109071400D01*
X144050400Y-108473572D01*
X144050399Y-108473555D01*
X144043998Y-108414027D01*
X144043996Y-108414019D01*
X144037960Y-108397835D01*
X144032975Y-108328143D01*
X144066459Y-108266820D01*
X144127782Y-108233334D01*
X144154141Y-108230500D01*
X147380614Y-108230500D01*
X147447653Y-108250185D01*
X147468295Y-108266819D01*
X147521985Y-108320509D01*
X147521986Y-108320510D01*
X147521988Y-108320511D01*
X147647511Y-108392982D01*
X147647512Y-108392982D01*
X147647515Y-108392984D01*
X147787525Y-108430500D01*
X147787528Y-108430500D01*
X147932472Y-108430500D01*
X147932475Y-108430500D01*
X148072485Y-108392984D01*
X148198015Y-108320509D01*
X148300509Y-108218015D01*
X148372984Y-108092485D01*
X148410500Y-107952475D01*
X148410500Y-107807525D01*
X148372984Y-107667515D01*
X148369750Y-107661914D01*
X148300511Y-107541988D01*
X148300506Y-107541982D01*
X148198017Y-107439493D01*
X148198011Y-107439488D01*
X148072488Y-107367017D01*
X148072489Y-107367017D01*
X148048055Y-107360470D01*
X147932475Y-107329500D01*
X147787525Y-107329500D01*
X147671945Y-107360470D01*
X147647511Y-107367017D01*
X147521988Y-107439488D01*
X147521982Y-107439493D01*
X147468295Y-107493181D01*
X147406972Y-107526666D01*
X147380614Y-107529500D01*
X142977796Y-107529500D01*
X142910757Y-107509815D01*
X142865002Y-107457011D01*
X142855058Y-107387853D01*
X142874693Y-107336610D01*
X142886366Y-107319140D01*
X142900900Y-107246074D01*
X142900900Y-106895900D01*
X142920585Y-106828861D01*
X142973389Y-106783106D01*
X143024900Y-106771900D01*
X143788014Y-106771900D01*
X143855053Y-106791585D01*
X143875695Y-106808219D01*
X143933985Y-106866509D01*
X143933986Y-106866510D01*
X143933988Y-106866511D01*
X144059511Y-106938982D01*
X144059512Y-106938982D01*
X144059515Y-106938984D01*
X144199525Y-106976500D01*
X144199528Y-106976500D01*
X144344472Y-106976500D01*
X144344475Y-106976500D01*
X144484485Y-106938984D01*
X144610015Y-106866509D01*
X144712509Y-106764015D01*
X144784984Y-106638485D01*
X144822500Y-106498475D01*
X144822500Y-106353525D01*
X144784984Y-106213515D01*
X144769689Y-106187024D01*
X144712511Y-106087988D01*
X144712506Y-106087982D01*
X144610017Y-105985493D01*
X144610011Y-105985488D01*
X144484488Y-105913017D01*
X144484489Y-105913017D01*
X144473006Y-105909940D01*
X144344475Y-105875500D01*
X144199525Y-105875500D01*
X144070993Y-105909940D01*
X144059511Y-105913017D01*
X143933988Y-105985488D01*
X143933982Y-105985493D01*
X143884895Y-106034581D01*
X143823572Y-106068066D01*
X143797214Y-106070900D01*
X143024900Y-106070900D01*
X142957861Y-106051215D01*
X142912106Y-105998411D01*
X142900900Y-105946900D01*
X142900900Y-105596723D01*
X142900899Y-105596721D01*
X142886367Y-105523664D01*
X142886366Y-105523660D01*
X142872662Y-105503150D01*
X142831001Y-105440799D01*
X142752467Y-105388325D01*
X142748139Y-105385433D01*
X142748135Y-105385432D01*
X142675077Y-105370900D01*
X142675074Y-105370900D01*
X140625726Y-105370900D01*
X140625723Y-105370900D01*
X140552664Y-105385432D01*
X140552660Y-105385433D01*
X140469799Y-105440799D01*
X140414433Y-105523660D01*
X140414432Y-105523664D01*
X140399900Y-105596721D01*
X140399900Y-105971900D01*
X140380215Y-106038939D01*
X140327411Y-106084694D01*
X140275900Y-106095900D01*
X137070947Y-106095900D01*
X136988159Y-106118082D01*
X136913938Y-106160935D01*
X136913934Y-106160938D01*
X136846034Y-106228837D01*
X136784710Y-106262322D01*
X136715019Y-106257336D01*
X136710903Y-106255717D01*
X136684435Y-106244754D01*
X136639035Y-106225949D01*
X136639031Y-106225948D01*
X136639028Y-106225947D01*
X136445743Y-106187500D01*
X136445741Y-106187500D01*
X136248659Y-106187500D01*
X136248657Y-106187500D01*
X136055370Y-106225947D01*
X136055360Y-106225950D01*
X135873292Y-106301364D01*
X135873279Y-106301371D01*
X135709418Y-106410860D01*
X135709414Y-106410863D01*
X135570063Y-106550214D01*
X135570060Y-106550218D01*
X135460571Y-106714079D01*
X135460564Y-106714092D01*
X135385150Y-106896160D01*
X135385147Y-106896170D01*
X135346700Y-107089456D01*
X135346700Y-107089459D01*
X135346700Y-107286541D01*
X135346700Y-107286543D01*
X135346699Y-107286543D01*
X132006901Y-107286543D01*
X131990606Y-106892562D01*
X131990500Y-106887438D01*
X131990500Y-99227704D01*
X132010185Y-99160665D01*
X132062989Y-99114910D01*
X132112977Y-99103713D01*
X135661827Y-99060222D01*
X135697471Y-99065002D01*
X137955801Y-99711618D01*
X138014832Y-99748996D01*
X138039985Y-99793718D01*
X138379372Y-100875763D01*
X138380653Y-100945621D01*
X138343962Y-101005081D01*
X138280949Y-101035267D01*
X138211620Y-101026593D01*
X138157986Y-100981814D01*
X138156061Y-100978845D01*
X138131333Y-100939491D01*
X138041789Y-100796982D01*
X137828166Y-100529107D01*
X137585893Y-100286834D01*
X137580369Y-100282429D01*
X137490942Y-100211113D01*
X137318018Y-100073211D01*
X137027910Y-99890924D01*
X137027907Y-99890922D01*
X136719216Y-99742264D01*
X136395818Y-99629103D01*
X136395816Y-99629102D01*
X136138024Y-99570262D01*
X136061783Y-99552861D01*
X136061780Y-99552860D01*
X136061768Y-99552858D01*
X135721318Y-99514500D01*
X135721312Y-99514500D01*
X135378688Y-99514500D01*
X135378681Y-99514500D01*
X135038231Y-99552858D01*
X135038217Y-99552861D01*
X134704183Y-99629102D01*
X134704181Y-99629103D01*
X134380783Y-99742264D01*
X134072092Y-99890922D01*
X133781983Y-100073210D01*
X133514107Y-100286833D01*
X133271833Y-100529107D01*
X133058210Y-100796983D01*
X132875922Y-101087092D01*
X132727264Y-101395783D01*
X132614103Y-101719181D01*
X132614102Y-101719183D01*
X132537861Y-102053217D01*
X132537858Y-102053231D01*
X132499500Y-102393681D01*
X132499500Y-102736318D01*
X132537858Y-103076768D01*
X132537861Y-103076782D01*
X132614102Y-103410816D01*
X132614103Y-103410818D01*
X132727264Y-103734216D01*
X132875922Y-104042907D01*
X132884141Y-104055988D01*
X133058211Y-104333018D01*
X133183342Y-104489927D01*
X133262826Y-104589598D01*
X133271834Y-104600893D01*
X133514107Y-104843166D01*
X133781982Y-105056789D01*
X134048762Y-105224418D01*
X134072092Y-105239077D01*
X134205355Y-105303253D01*
X134380785Y-105387736D01*
X134704183Y-105500897D01*
X135038217Y-105577139D01*
X135038226Y-105577140D01*
X135038231Y-105577141D01*
X135265197Y-105602713D01*
X135378682Y-105615499D01*
X135378685Y-105615500D01*
X135378688Y-105615500D01*
X135721315Y-105615500D01*
X135721316Y-105615499D01*
X135895311Y-105595895D01*
X136061768Y-105577141D01*
X136061771Y-105577140D01*
X136061783Y-105577139D01*
X136395817Y-105500897D01*
X136719215Y-105387736D01*
X137027910Y-105239076D01*
X137318018Y-105056789D01*
X137585893Y-104843166D01*
X137828166Y-104600893D01*
X138041789Y-104333018D01*
X138224076Y-104042910D01*
X138372736Y-103734215D01*
X138485897Y-103410817D01*
X138562139Y-103076783D01*
X138562141Y-103076768D01*
X138586984Y-102856277D01*
X147408200Y-102856277D01*
X147408200Y-102904600D01*
X148108200Y-102904600D01*
X148108200Y-102179599D01*
X148084893Y-102179600D01*
X148084874Y-102179601D01*
X147985592Y-102189744D01*
X147824718Y-102243052D01*
X147824707Y-102243057D01*
X147680471Y-102332024D01*
X147680467Y-102332027D01*
X147560627Y-102451867D01*
X147560624Y-102451871D01*
X147471657Y-102596107D01*
X147471652Y-102596118D01*
X147418344Y-102756993D01*
X147408200Y-102856277D01*
X138586984Y-102856277D01*
X138588903Y-102839245D01*
X138599491Y-102745269D01*
X138600500Y-102736312D01*
X138600500Y-102393688D01*
X138600500Y-102393685D01*
X138600500Y-102390443D01*
X138620185Y-102323404D01*
X138672989Y-102277649D01*
X138742147Y-102267705D01*
X138805703Y-102296730D01*
X138842816Y-102353331D01*
X138870000Y-102440000D01*
X138870000Y-102439999D01*
X138870001Y-102440000D01*
X141362493Y-102424048D01*
X143854986Y-102408096D01*
X143851960Y-98107525D01*
X145039500Y-98107525D01*
X145039500Y-98252475D01*
X145064467Y-98345651D01*
X145077017Y-98392488D01*
X145149488Y-98518011D01*
X145149490Y-98518013D01*
X145149491Y-98518015D01*
X145251985Y-98620509D01*
X145251986Y-98620510D01*
X145251988Y-98620511D01*
X145377511Y-98692982D01*
X145377512Y-98692982D01*
X145377515Y-98692984D01*
X145517525Y-98730500D01*
X145517528Y-98730500D01*
X145662472Y-98730500D01*
X145662475Y-98730500D01*
X145802485Y-98692984D01*
X145928015Y-98620509D01*
X146006706Y-98541818D01*
X146068030Y-98508334D01*
X146094387Y-98505500D01*
X146731551Y-98505500D01*
X146731553Y-98505500D01*
X146814339Y-98483318D01*
X146829311Y-98474674D01*
X146848643Y-98463513D01*
X146910643Y-98446900D01*
X147585976Y-98446900D01*
X147585977Y-98446899D01*
X147659040Y-98432366D01*
X147741901Y-98377001D01*
X147797266Y-98294140D01*
X147811800Y-98221074D01*
X147811800Y-97612926D01*
X147811800Y-97612923D01*
X147811799Y-97612921D01*
X147797267Y-97539864D01*
X147797266Y-97539860D01*
X147797019Y-97539491D01*
X147741901Y-97456999D01*
X147686535Y-97420005D01*
X147659039Y-97401633D01*
X147647756Y-97396960D01*
X147649275Y-97393292D01*
X147607103Y-97371233D01*
X147572528Y-97310518D01*
X147576267Y-97240748D01*
X147617133Y-97184076D01*
X147648818Y-97169605D01*
X147647756Y-97167040D01*
X147659038Y-97162366D01*
X147659040Y-97162366D01*
X147741901Y-97107001D01*
X147797266Y-97024140D01*
X147797990Y-97020500D01*
X147800774Y-97006508D01*
X147833159Y-96944597D01*
X147893875Y-96910023D01*
X147922391Y-96906700D01*
X148458535Y-96906700D01*
X148525574Y-96926385D01*
X148546216Y-96943019D01*
X148553041Y-96949844D01*
X148661070Y-97000219D01*
X148710297Y-97006700D01*
X149639502Y-97006699D01*
X149639504Y-97006699D01*
X149653567Y-97004847D01*
X149688730Y-97000219D01*
X149796759Y-96949844D01*
X149881044Y-96865559D01*
X149931419Y-96757530D01*
X149937900Y-96708303D01*
X149937899Y-96454098D01*
X149931419Y-96404870D01*
X149881044Y-96296841D01*
X149796759Y-96212556D01*
X149688730Y-96162181D01*
X149688728Y-96162180D01*
X149639513Y-96155701D01*
X149639508Y-96155700D01*
X149639503Y-96155700D01*
X149639496Y-96155700D01*
X148710295Y-96155700D01*
X148661074Y-96162180D01*
X148661066Y-96162182D01*
X148553040Y-96212556D01*
X148546216Y-96219381D01*
X148484893Y-96252866D01*
X148458535Y-96255700D01*
X147854085Y-96255700D01*
X147787046Y-96236015D01*
X147750984Y-96200592D01*
X147741902Y-96187000D01*
X147725412Y-96175982D01*
X147659040Y-96131634D01*
X147659039Y-96131633D01*
X147659035Y-96131632D01*
X147585977Y-96117100D01*
X147585974Y-96117100D01*
X146317426Y-96117100D01*
X146317423Y-96117100D01*
X146244364Y-96131632D01*
X146244360Y-96131633D01*
X146161499Y-96186999D01*
X146106133Y-96269860D01*
X146106132Y-96269864D01*
X146091600Y-96342921D01*
X146091600Y-96951078D01*
X146106132Y-97024135D01*
X146106133Y-97024139D01*
X146114825Y-97037147D01*
X146161499Y-97107001D01*
X146225091Y-97149491D01*
X146244360Y-97162366D01*
X146255644Y-97167040D01*
X146254125Y-97170706D01*
X146296305Y-97192775D01*
X146330874Y-97253494D01*
X146327128Y-97323263D01*
X146286257Y-97379932D01*
X146254582Y-97394396D01*
X146255644Y-97396960D01*
X146244360Y-97401633D01*
X146161499Y-97456999D01*
X146106133Y-97539860D01*
X146106132Y-97539864D01*
X146091600Y-97612921D01*
X146091600Y-97619162D01*
X146071915Y-97686201D01*
X146019111Y-97731956D01*
X145949953Y-97741900D01*
X145905600Y-97726549D01*
X145802488Y-97667017D01*
X145802489Y-97667017D01*
X145785527Y-97662472D01*
X145662475Y-97629500D01*
X145517525Y-97629500D01*
X145394473Y-97662472D01*
X145377511Y-97667017D01*
X145251988Y-97739488D01*
X145251982Y-97739493D01*
X145149493Y-97841982D01*
X145149488Y-97841988D01*
X145077017Y-97967511D01*
X145077016Y-97967515D01*
X145039500Y-98107525D01*
X143851960Y-98107525D01*
X143850141Y-95521330D01*
X143869778Y-95454280D01*
X143886453Y-95433571D01*
X143913296Y-95406728D01*
X143974615Y-95373245D01*
X144044304Y-95378227D01*
X144052517Y-95381291D01*
X144112127Y-95387700D01*
X144732872Y-95387699D01*
X144792483Y-95381291D01*
X144927331Y-95330996D01*
X144927333Y-95330994D01*
X144935640Y-95327896D01*
X144936565Y-95330377D01*
X144980667Y-95319098D01*
X153363688Y-95312412D01*
X153430741Y-95332043D01*
G37*
%TD.AperFunction*%
%TA.AperFunction,Conductor*%
G36*
X153318834Y-104847607D02*
G01*
X153374767Y-104889479D01*
X153399184Y-104954943D01*
X153399500Y-104963789D01*
X153399500Y-105020073D01*
X153409671Y-105071210D01*
X153409671Y-105119590D01*
X153399500Y-105170726D01*
X153399500Y-105670073D01*
X153409671Y-105721210D01*
X153409671Y-105769590D01*
X153399500Y-105820726D01*
X153399500Y-106320078D01*
X153414032Y-106393135D01*
X153414033Y-106393139D01*
X153425876Y-106410863D01*
X153469399Y-106476001D01*
X153538973Y-106522488D01*
X153552260Y-106531366D01*
X153552264Y-106531367D01*
X153625321Y-106545899D01*
X153625324Y-106545900D01*
X155038856Y-106545900D01*
X155105895Y-106565585D01*
X155126537Y-106582219D01*
X155904788Y-107360470D01*
X155956802Y-107390500D01*
X155956804Y-107390501D01*
X155984709Y-107406613D01*
X155984711Y-107406613D01*
X155984712Y-107406614D01*
X156073856Y-107430500D01*
X157458456Y-107430500D01*
X157525495Y-107450185D01*
X157571250Y-107502989D01*
X157581194Y-107572147D01*
X157552169Y-107635703D01*
X157546137Y-107642181D01*
X155465686Y-109722630D01*
X155404363Y-109756115D01*
X155334671Y-109751131D01*
X155330556Y-109749512D01*
X155330554Y-109749511D01*
X155314475Y-109742851D01*
X155314471Y-109742850D01*
X155314468Y-109742849D01*
X155133741Y-109706900D01*
X155133739Y-109706900D01*
X154949461Y-109706900D01*
X154949459Y-109706900D01*
X154768730Y-109742849D01*
X154768724Y-109742851D01*
X154598477Y-109813369D01*
X154598468Y-109813374D01*
X154445254Y-109915749D01*
X154445250Y-109915752D01*
X154314952Y-110046050D01*
X154314949Y-110046054D01*
X154212574Y-110199268D01*
X154212569Y-110199277D01*
X154142051Y-110369524D01*
X154142049Y-110369530D01*
X154106100Y-110550258D01*
X154106100Y-110550261D01*
X154106100Y-110734539D01*
X154106100Y-110734541D01*
X154106099Y-110734541D01*
X154142049Y-110915269D01*
X154142051Y-110915275D01*
X154212569Y-111085522D01*
X154212574Y-111085531D01*
X154314949Y-111238745D01*
X154314952Y-111238749D01*
X154445250Y-111369047D01*
X154445254Y-111369050D01*
X154598468Y-111471425D01*
X154598474Y-111471428D01*
X154598475Y-111471429D01*
X154768725Y-111541949D01*
X154768729Y-111541949D01*
X154768730Y-111541950D01*
X154949458Y-111577900D01*
X154949461Y-111577900D01*
X155133741Y-111577900D01*
X155255332Y-111553713D01*
X155314475Y-111541949D01*
X155330553Y-111535288D01*
X155400022Y-111527820D01*
X155462502Y-111559095D01*
X155465686Y-111562168D01*
X155994788Y-112091270D01*
X155994789Y-112091271D01*
X155994791Y-112091272D01*
X156028094Y-112110499D01*
X156074712Y-112137414D01*
X156105732Y-112145725D01*
X156165391Y-112182090D01*
X156195920Y-112244937D01*
X156187625Y-112314313D01*
X156143140Y-112368191D01*
X156076588Y-112389465D01*
X156073637Y-112389500D01*
X147985911Y-112389500D01*
X147918872Y-112369815D01*
X147873117Y-112317011D01*
X147863173Y-112247853D01*
X147886645Y-112191188D01*
X147909852Y-112160188D01*
X147965786Y-112118318D01*
X148009118Y-112110500D01*
X151430142Y-112110500D01*
X151430144Y-112110500D01*
X151519288Y-112086614D01*
X151599212Y-112040470D01*
X152077514Y-111562166D01*
X152138835Y-111528683D01*
X152208526Y-111533667D01*
X152212596Y-111535268D01*
X152228725Y-111541949D01*
X152228729Y-111541949D01*
X152228730Y-111541950D01*
X152409458Y-111577900D01*
X152409461Y-111577900D01*
X152593741Y-111577900D01*
X152715332Y-111553713D01*
X152774475Y-111541949D01*
X152944725Y-111471429D01*
X153097946Y-111369050D01*
X153228250Y-111238746D01*
X153330629Y-111085525D01*
X153401149Y-110915275D01*
X153428024Y-110780166D01*
X153437100Y-110734541D01*
X153437100Y-110550258D01*
X153401150Y-110369530D01*
X153401149Y-110369529D01*
X153401149Y-110369525D01*
X153330629Y-110199275D01*
X153330628Y-110199274D01*
X153330625Y-110199268D01*
X153228250Y-110046054D01*
X153228247Y-110046050D01*
X153097949Y-109915752D01*
X153097945Y-109915749D01*
X152944731Y-109813374D01*
X152944722Y-109813369D01*
X152774475Y-109742851D01*
X152774469Y-109742849D01*
X152593741Y-109706900D01*
X152593739Y-109706900D01*
X152409461Y-109706900D01*
X152409459Y-109706900D01*
X152228726Y-109742850D01*
X152228715Y-109742853D01*
X152212642Y-109749511D01*
X152143173Y-109756978D01*
X152080695Y-109725701D01*
X152077512Y-109722630D01*
X151720019Y-109365137D01*
X151686534Y-109303814D01*
X151683700Y-109277456D01*
X151683700Y-107319900D01*
X151703385Y-107252861D01*
X151756189Y-107207106D01*
X151807700Y-107195900D01*
X152057876Y-107195900D01*
X152057877Y-107195899D01*
X152130940Y-107181366D01*
X152213801Y-107126001D01*
X152269166Y-107043140D01*
X152283700Y-106970074D01*
X152283700Y-106470726D01*
X152273528Y-106419588D01*
X152273528Y-106371211D01*
X152283700Y-106320074D01*
X152283700Y-105820726D01*
X152283700Y-105814634D01*
X152285293Y-105814634D01*
X152296860Y-105753603D01*
X152344916Y-105702888D01*
X152383062Y-105680865D01*
X153187819Y-104876108D01*
X153249142Y-104842623D01*
X153318834Y-104847607D01*
G37*
%TD.AperFunction*%
%TA.AperFunction,Conductor*%
G36*
X167807539Y-108905185D02*
G01*
X167853294Y-108957989D01*
X167864500Y-109009500D01*
X167864500Y-109557870D01*
X167864501Y-109557876D01*
X167870908Y-109617483D01*
X167921202Y-109752328D01*
X167921206Y-109752335D01*
X168007452Y-109867544D01*
X168007455Y-109867547D01*
X168122664Y-109953793D01*
X168130454Y-109958047D01*
X168129504Y-109959785D01*
X168176278Y-109994795D01*
X168200700Y-110060257D01*
X168185854Y-110128531D01*
X168151330Y-110168379D01*
X168092452Y-110212455D01*
X168046498Y-110273842D01*
X167990563Y-110315713D01*
X167920872Y-110320696D01*
X167859549Y-110287210D01*
X167838335Y-110256909D01*
X167838149Y-110257025D01*
X167836170Y-110253816D01*
X167834845Y-110251924D01*
X167834356Y-110250877D01*
X167742315Y-110101654D01*
X167618345Y-109977684D01*
X167469124Y-109885643D01*
X167469119Y-109885641D01*
X167302697Y-109830494D01*
X167302690Y-109830493D01*
X167199986Y-109820000D01*
X167137500Y-109820000D01*
X167137500Y-110896000D01*
X167117815Y-110963039D01*
X167065011Y-111008794D01*
X167013500Y-111020000D01*
X166887500Y-111020000D01*
X166887500Y-111146000D01*
X166867815Y-111213039D01*
X166815011Y-111258794D01*
X166763500Y-111270000D01*
X165875001Y-111270000D01*
X165875001Y-111519986D01*
X165885494Y-111622697D01*
X165940641Y-111789119D01*
X165940643Y-111789124D01*
X166032684Y-111938345D01*
X166156654Y-112062315D01*
X166312025Y-112158149D01*
X166310936Y-112159913D01*
X166355657Y-112199289D01*
X166374810Y-112266482D01*
X166354595Y-112333363D01*
X166301431Y-112378699D01*
X166250814Y-112389500D01*
X163848282Y-112389500D01*
X163781243Y-112369815D01*
X163735488Y-112317011D01*
X163725544Y-112247853D01*
X163749016Y-112191189D01*
X163809393Y-112110535D01*
X163809392Y-112110535D01*
X163809396Y-112110531D01*
X163859691Y-111975683D01*
X163866100Y-111916073D01*
X163866099Y-111295328D01*
X163859691Y-111235717D01*
X163859691Y-111235716D01*
X163858862Y-111228004D01*
X163861239Y-111227748D01*
X163864340Y-111169817D01*
X163893597Y-111123383D01*
X164909672Y-110107308D01*
X164970994Y-110073825D01*
X165040686Y-110078809D01*
X165096619Y-110120681D01*
X165113386Y-110155197D01*
X165113908Y-110154981D01*
X165117017Y-110162488D01*
X165189488Y-110288011D01*
X165189490Y-110288013D01*
X165189491Y-110288015D01*
X165291985Y-110390509D01*
X165291986Y-110390510D01*
X165291988Y-110390511D01*
X165417511Y-110462982D01*
X165417512Y-110462982D01*
X165417515Y-110462984D01*
X165557525Y-110500500D01*
X165557528Y-110500500D01*
X165702472Y-110500500D01*
X165702475Y-110500500D01*
X165718906Y-110496097D01*
X165788753Y-110497758D01*
X165846617Y-110536919D01*
X165874123Y-110601147D01*
X165875000Y-110615871D01*
X165875000Y-110770000D01*
X166637500Y-110770000D01*
X166637500Y-109820000D01*
X166637499Y-109819999D01*
X166575028Y-109820000D01*
X166575006Y-109820002D01*
X166526710Y-109824935D01*
X166458017Y-109812164D01*
X166407133Y-109764283D01*
X166390214Y-109696493D01*
X166412631Y-109630317D01*
X166426422Y-109613903D01*
X167118508Y-108921819D01*
X167179831Y-108888334D01*
X167206189Y-108885500D01*
X167740500Y-108885500D01*
X167807539Y-108905185D01*
G37*
%TD.AperFunction*%
%TA.AperFunction,Conductor*%
G36*
X168552562Y-92740605D02*
G01*
X168999036Y-92759072D01*
X169009209Y-92759915D01*
X169450114Y-92814873D01*
X169460194Y-92816555D01*
X169895043Y-92907733D01*
X169904951Y-92910242D01*
X170330786Y-93037019D01*
X170340454Y-93040338D01*
X170578914Y-93133386D01*
X170754349Y-93201841D01*
X170763734Y-93205958D01*
X171162854Y-93401076D01*
X171171868Y-93405953D01*
X171553545Y-93633383D01*
X171562124Y-93638989D01*
X171585083Y-93655381D01*
X171923693Y-93897143D01*
X171931770Y-93903430D01*
X172143168Y-94082475D01*
X172270796Y-94190571D01*
X172278336Y-94197512D01*
X172592487Y-94511663D01*
X172599428Y-94519203D01*
X172809315Y-94767016D01*
X172886565Y-94858224D01*
X172892858Y-94866310D01*
X172941954Y-94935073D01*
X173151010Y-95227875D01*
X173156616Y-95236454D01*
X173384046Y-95618131D01*
X173388923Y-95627145D01*
X173584041Y-96026265D01*
X173588158Y-96035650D01*
X173749656Y-96449533D01*
X173752984Y-96459226D01*
X173879753Y-96885035D01*
X173882269Y-96894970D01*
X173973441Y-97329791D01*
X173975128Y-97339900D01*
X174030082Y-97780769D01*
X174030928Y-97790983D01*
X174049394Y-98237437D01*
X174049500Y-98242561D01*
X174049500Y-106887438D01*
X174049394Y-106892562D01*
X174030928Y-107339016D01*
X174030082Y-107349230D01*
X173975128Y-107790099D01*
X173973441Y-107800208D01*
X173882269Y-108235029D01*
X173879753Y-108244964D01*
X173752984Y-108670773D01*
X173749656Y-108680466D01*
X173588158Y-109094349D01*
X173584041Y-109103734D01*
X173388923Y-109502854D01*
X173384046Y-109511868D01*
X173156616Y-109893545D01*
X173151010Y-109902124D01*
X172892860Y-110263687D01*
X172886565Y-110271775D01*
X172599428Y-110610796D01*
X172592487Y-110618336D01*
X172278336Y-110932487D01*
X172270796Y-110939428D01*
X171931775Y-111226565D01*
X171923687Y-111232860D01*
X171562124Y-111491010D01*
X171553545Y-111496616D01*
X171171868Y-111724046D01*
X171162854Y-111728923D01*
X170763734Y-111924041D01*
X170754349Y-111928158D01*
X170340466Y-112089656D01*
X170330773Y-112092984D01*
X169904964Y-112219753D01*
X169895029Y-112222269D01*
X169460208Y-112313441D01*
X169450099Y-112315128D01*
X169009230Y-112370082D01*
X168999016Y-112370928D01*
X168552563Y-112389394D01*
X168547439Y-112389500D01*
X167524186Y-112389500D01*
X167457147Y-112369815D01*
X167411392Y-112317011D01*
X167401448Y-112247853D01*
X167430473Y-112184297D01*
X167463655Y-112159251D01*
X167462975Y-112158149D01*
X167618345Y-112062315D01*
X167742315Y-111938345D01*
X167834354Y-111789126D01*
X167834842Y-111788081D01*
X167835368Y-111787482D01*
X167838149Y-111782975D01*
X167838918Y-111783449D01*
X167881007Y-111735635D01*
X167948198Y-111716473D01*
X168015082Y-111736679D01*
X168046498Y-111766157D01*
X168092455Y-111827547D01*
X168207664Y-111913793D01*
X168207671Y-111913797D01*
X168252618Y-111930561D01*
X168342517Y-111964091D01*
X168402127Y-111970500D01*
X169022872Y-111970499D01*
X169082483Y-111964091D01*
X169217331Y-111913796D01*
X169332546Y-111827546D01*
X169418796Y-111712331D01*
X169469091Y-111577483D01*
X169475500Y-111517873D01*
X169475499Y-110522128D01*
X169469091Y-110462517D01*
X169434408Y-110369528D01*
X169418797Y-110327671D01*
X169418793Y-110327664D01*
X169332547Y-110212455D01*
X169332544Y-110212452D01*
X169217335Y-110126206D01*
X169209546Y-110121953D01*
X169210494Y-110120215D01*
X169163714Y-110085195D01*
X169139298Y-110019730D01*
X169154151Y-109951458D01*
X169188668Y-109911621D01*
X169247546Y-109867546D01*
X169333796Y-109752331D01*
X169384091Y-109617483D01*
X169390500Y-109557873D01*
X169390499Y-108793042D01*
X169410183Y-108726004D01*
X169462987Y-108680249D01*
X169532146Y-108670305D01*
X169595702Y-108699330D01*
X169602180Y-108705362D01*
X169653181Y-108756363D01*
X169686666Y-108817686D01*
X169689500Y-108844044D01*
X169689500Y-109557870D01*
X169689501Y-109557876D01*
X169695908Y-109617483D01*
X169746202Y-109752328D01*
X169746206Y-109752335D01*
X169832452Y-109867544D01*
X169832455Y-109867547D01*
X169947664Y-109953793D01*
X169947671Y-109953797D01*
X169963726Y-109959785D01*
X170082517Y-110004091D01*
X170142127Y-110010500D01*
X170762872Y-110010499D01*
X170822483Y-110004091D01*
X170957331Y-109953796D01*
X171072546Y-109867546D01*
X171158796Y-109752331D01*
X171209091Y-109617483D01*
X171215500Y-109557873D01*
X171215499Y-108562128D01*
X171209091Y-108502517D01*
X171207225Y-108497515D01*
X171158797Y-108367671D01*
X171158793Y-108367664D01*
X171072547Y-108252455D01*
X171072544Y-108252452D01*
X170957335Y-108166206D01*
X170957326Y-108166201D01*
X170862505Y-108130836D01*
X170806571Y-108088965D01*
X170786064Y-108046750D01*
X170779114Y-108020812D01*
X170746971Y-107965139D01*
X170732970Y-107940888D01*
X167282012Y-104489930D01*
X167282011Y-104489929D01*
X167282008Y-104489927D01*
X167202089Y-104443786D01*
X167197600Y-104442583D01*
X167189824Y-104440500D01*
X167176650Y-104436970D01*
X167123033Y-104422603D01*
X167063373Y-104386237D01*
X167052026Y-104371721D01*
X167047401Y-104364799D01*
X166964540Y-104309434D01*
X166964538Y-104309433D01*
X166964535Y-104309432D01*
X166891477Y-104294900D01*
X166891474Y-104294900D01*
X166238343Y-104294900D01*
X166171304Y-104275215D01*
X166150662Y-104258581D01*
X165807524Y-103915443D01*
X165474527Y-103582445D01*
X165441044Y-103521125D01*
X165438921Y-103481513D01*
X165442300Y-103450085D01*
X165442299Y-102859116D01*
X165436212Y-102802486D01*
X165424847Y-102772017D01*
X165404240Y-102716768D01*
X165388428Y-102674374D01*
X165306487Y-102564913D01*
X165306485Y-102564912D01*
X165306485Y-102564911D01*
X165205715Y-102489476D01*
X165205714Y-102489475D01*
X165197030Y-102482974D01*
X165197027Y-102482973D01*
X165197026Y-102482972D01*
X165068914Y-102435188D01*
X165068912Y-102435187D01*
X165068910Y-102435187D01*
X165012293Y-102429100D01*
X164471318Y-102429100D01*
X164471309Y-102429101D01*
X164414685Y-102435187D01*
X164286571Y-102482973D01*
X164204995Y-102544039D01*
X164139530Y-102568455D01*
X164071258Y-102553602D01*
X164025147Y-102509868D01*
X163989371Y-102451866D01*
X163931186Y-102393681D01*
X167439500Y-102393681D01*
X167439500Y-102736318D01*
X167477858Y-103076768D01*
X167477861Y-103076782D01*
X167554102Y-103410816D01*
X167554103Y-103410818D01*
X167667264Y-103734216D01*
X167815922Y-104042907D01*
X167824141Y-104055988D01*
X167998211Y-104333018D01*
X168123342Y-104489927D01*
X168202826Y-104589598D01*
X168211834Y-104600893D01*
X168454107Y-104843166D01*
X168721982Y-105056789D01*
X168988762Y-105224418D01*
X169012092Y-105239077D01*
X169145355Y-105303253D01*
X169320785Y-105387736D01*
X169644183Y-105500897D01*
X169978217Y-105577139D01*
X169978226Y-105577140D01*
X169978231Y-105577141D01*
X170205197Y-105602713D01*
X170318682Y-105615499D01*
X170318685Y-105615500D01*
X170318688Y-105615500D01*
X170661315Y-105615500D01*
X170661316Y-105615499D01*
X170835311Y-105595895D01*
X171001768Y-105577141D01*
X171001771Y-105577140D01*
X171001783Y-105577139D01*
X171335817Y-105500897D01*
X171659215Y-105387736D01*
X171967910Y-105239076D01*
X172258018Y-105056789D01*
X172525893Y-104843166D01*
X172768166Y-104600893D01*
X172981789Y-104333018D01*
X173164076Y-104042910D01*
X173312736Y-103734215D01*
X173425897Y-103410817D01*
X173502139Y-103076783D01*
X173507343Y-103030600D01*
X173533044Y-102802485D01*
X173540500Y-102736312D01*
X173540500Y-102393688D01*
X173518865Y-102201670D01*
X173502141Y-102053231D01*
X173502140Y-102053226D01*
X173502139Y-102053217D01*
X173425897Y-101719183D01*
X173312736Y-101395785D01*
X173164076Y-101087090D01*
X172981789Y-100796982D01*
X172768166Y-100529107D01*
X172525893Y-100286834D01*
X172520369Y-100282429D01*
X172430942Y-100211113D01*
X172258018Y-100073211D01*
X171967910Y-99890924D01*
X171967907Y-99890922D01*
X171659216Y-99742264D01*
X171335818Y-99629103D01*
X171335816Y-99629102D01*
X171078024Y-99570262D01*
X171001783Y-99552861D01*
X171001780Y-99552860D01*
X171001768Y-99552858D01*
X170661318Y-99514500D01*
X170661312Y-99514500D01*
X170318688Y-99514500D01*
X170318681Y-99514500D01*
X169978231Y-99552858D01*
X169978217Y-99552861D01*
X169644183Y-99629102D01*
X169644181Y-99629103D01*
X169320783Y-99742264D01*
X169012092Y-99890922D01*
X168721983Y-100073210D01*
X168454107Y-100286833D01*
X168211833Y-100529107D01*
X167998210Y-100796983D01*
X167815922Y-101087092D01*
X167667264Y-101395783D01*
X167554103Y-101719181D01*
X167554102Y-101719183D01*
X167477861Y-102053217D01*
X167477858Y-102053231D01*
X167439500Y-102393681D01*
X163931186Y-102393681D01*
X163869532Y-102332027D01*
X163869528Y-102332024D01*
X163725292Y-102243057D01*
X163725281Y-102243052D01*
X163564406Y-102189744D01*
X163465122Y-102179600D01*
X163441800Y-102179600D01*
X163441800Y-103030600D01*
X163422115Y-103097639D01*
X163369311Y-103143394D01*
X163317800Y-103154600D01*
X163191800Y-103154600D01*
X163191800Y-103280600D01*
X163172115Y-103347639D01*
X163119311Y-103393394D01*
X163067800Y-103404600D01*
X162241801Y-103404600D01*
X162241801Y-103452922D01*
X162251944Y-103552207D01*
X162305252Y-103713081D01*
X162305257Y-103713092D01*
X162394224Y-103857328D01*
X162394227Y-103857332D01*
X162514067Y-103977172D01*
X162514071Y-103977175D01*
X162658307Y-104066142D01*
X162658318Y-104066147D01*
X162819193Y-104119455D01*
X162918467Y-104129598D01*
X162921613Y-104129758D01*
X162987568Y-104152817D01*
X163030587Y-104207873D01*
X163037011Y-104277447D01*
X163035101Y-104285690D01*
X163025500Y-104321520D01*
X163025500Y-104321525D01*
X163025500Y-104466475D01*
X163061518Y-104600893D01*
X163063017Y-104606488D01*
X163132064Y-104726080D01*
X163148537Y-104793980D01*
X163125685Y-104860007D01*
X163070763Y-104903198D01*
X163054010Y-104907581D01*
X163054176Y-104908197D01*
X163046327Y-104910300D01*
X163046325Y-104910300D01*
X162906315Y-104947816D01*
X162906314Y-104947816D01*
X162906312Y-104947817D01*
X162903299Y-104949557D01*
X162900431Y-104950252D01*
X162898801Y-104950928D01*
X162898695Y-104950673D01*
X162835399Y-104966029D01*
X162769372Y-104943176D01*
X162726182Y-104888254D01*
X162717300Y-104842169D01*
X162717300Y-104520723D01*
X162717299Y-104520721D01*
X162702767Y-104447664D01*
X162702766Y-104447660D01*
X162702765Y-104447659D01*
X162647401Y-104364799D01*
X162568364Y-104311989D01*
X162564539Y-104309433D01*
X162564535Y-104309432D01*
X162491477Y-104294900D01*
X162491474Y-104294900D01*
X161802989Y-104294900D01*
X161735950Y-104275215D01*
X161715308Y-104258581D01*
X161447851Y-103991124D01*
X161447849Y-103991122D01*
X161447846Y-103991120D01*
X161447842Y-103991117D01*
X161395391Y-103960834D01*
X161354273Y-103919714D01*
X161353872Y-103920023D01*
X161351530Y-103916971D01*
X161350002Y-103915443D01*
X161348922Y-103913572D01*
X161246430Y-103811080D01*
X161246424Y-103811075D01*
X161120901Y-103738604D01*
X161120902Y-103738604D01*
X161087821Y-103729740D01*
X160980888Y-103701087D01*
X160835938Y-103701087D01*
X160729005Y-103729740D01*
X160695924Y-103738604D01*
X160570401Y-103811075D01*
X160570395Y-103811080D01*
X160467906Y-103913569D01*
X160467901Y-103913575D01*
X160395430Y-104039098D01*
X160395429Y-104039102D01*
X160357913Y-104179112D01*
X160357913Y-104324062D01*
X160395429Y-104464072D01*
X160395430Y-104464075D01*
X160467901Y-104589598D01*
X160467903Y-104589600D01*
X160467904Y-104589602D01*
X160570398Y-104692096D01*
X160695928Y-104764571D01*
X160724392Y-104772197D01*
X160784052Y-104808560D01*
X160814583Y-104871406D01*
X160816300Y-104891972D01*
X160816300Y-105020073D01*
X160826471Y-105071210D01*
X160826471Y-105119590D01*
X160816300Y-105170726D01*
X160816300Y-105670073D01*
X160826471Y-105721210D01*
X160826471Y-105769590D01*
X160816300Y-105820726D01*
X160816300Y-106320078D01*
X160830832Y-106393135D01*
X160830833Y-106393139D01*
X160842676Y-106410863D01*
X160886199Y-106476001D01*
X160955773Y-106522488D01*
X160969060Y-106531366D01*
X160969064Y-106531367D01*
X161042121Y-106545899D01*
X161042124Y-106545900D01*
X161042126Y-106545900D01*
X162491475Y-106545900D01*
X162505946Y-106543021D01*
X162535019Y-106537238D01*
X162604609Y-106543464D01*
X162646892Y-106571174D01*
X163076588Y-107000870D01*
X163076589Y-107000871D01*
X163076591Y-107000872D01*
X163126176Y-107029499D01*
X163126178Y-107029501D01*
X163126179Y-107029501D01*
X163156512Y-107047014D01*
X163245656Y-107070900D01*
X165183103Y-107070900D01*
X165250142Y-107090585D01*
X165277486Y-107117446D01*
X165277566Y-107117367D01*
X165286196Y-107125997D01*
X165286199Y-107126001D01*
X165369060Y-107181366D01*
X165369063Y-107181366D01*
X165369064Y-107181367D01*
X165442121Y-107195899D01*
X165442124Y-107195900D01*
X165442126Y-107195900D01*
X166097077Y-107195900D01*
X166164116Y-107215585D01*
X166170492Y-107220067D01*
X166251106Y-107266611D01*
X166251107Y-107266611D01*
X166251112Y-107266614D01*
X166340256Y-107290500D01*
X167290614Y-107290500D01*
X167357653Y-107310185D01*
X167378295Y-107326819D01*
X167431985Y-107380509D01*
X167431986Y-107380510D01*
X167431988Y-107380511D01*
X167479796Y-107408113D01*
X167528012Y-107458680D01*
X167541234Y-107527288D01*
X167515266Y-107592152D01*
X167458352Y-107632680D01*
X167417796Y-107639500D01*
X160696543Y-107639500D01*
X160629504Y-107619815D01*
X160608862Y-107603181D01*
X160276819Y-107271137D01*
X160243334Y-107209814D01*
X160240500Y-107183456D01*
X160240500Y-104993858D01*
X160240500Y-104993856D01*
X160216614Y-104904712D01*
X160209258Y-104891972D01*
X160193810Y-104865214D01*
X160193808Y-104865212D01*
X160192234Y-104862486D01*
X160170470Y-104824788D01*
X159835612Y-104489930D01*
X159835611Y-104489929D01*
X159835608Y-104489927D01*
X159755689Y-104443786D01*
X159751200Y-104442583D01*
X159743424Y-104440500D01*
X159743423Y-104440499D01*
X159712687Y-104432263D01*
X159653027Y-104395898D01*
X159641681Y-104381382D01*
X159630601Y-104364799D01*
X159569633Y-104324062D01*
X159547739Y-104309433D01*
X159547735Y-104309432D01*
X159474677Y-104294900D01*
X159474674Y-104294900D01*
X158821543Y-104294900D01*
X158754504Y-104275215D01*
X158733862Y-104258581D01*
X158390724Y-103915443D01*
X158057727Y-103582445D01*
X158024244Y-103521125D01*
X158022121Y-103481513D01*
X158025500Y-103450085D01*
X158025499Y-102859116D01*
X158019412Y-102802486D01*
X158008047Y-102772017D01*
X157987440Y-102716768D01*
X157971628Y-102674374D01*
X157889687Y-102564913D01*
X157811619Y-102506472D01*
X157780228Y-102482973D01*
X157780226Y-102482972D01*
X157652114Y-102435188D01*
X157652112Y-102435187D01*
X157652110Y-102435187D01*
X157595493Y-102429100D01*
X157054518Y-102429100D01*
X157054509Y-102429101D01*
X157012752Y-102433590D01*
X156943993Y-102421183D01*
X156892857Y-102373571D01*
X156875500Y-102310300D01*
X156875500Y-102100466D01*
X156887118Y-102048061D01*
X156889311Y-102043359D01*
X156939686Y-101935330D01*
X156946167Y-101886103D01*
X156946166Y-100956898D01*
X156946164Y-100956886D01*
X156942887Y-100931989D01*
X156939686Y-100907670D01*
X156889311Y-100799641D01*
X156805026Y-100715356D01*
X156696997Y-100664981D01*
X156696995Y-100664980D01*
X156647780Y-100658501D01*
X156647775Y-100658500D01*
X156647770Y-100658500D01*
X156647763Y-100658500D01*
X156393562Y-100658500D01*
X156344341Y-100664980D01*
X156344330Y-100664983D01*
X156248070Y-100709870D01*
X156178993Y-100720362D01*
X156143263Y-100709871D01*
X156143261Y-100709870D01*
X156114335Y-100696381D01*
X156061897Y-100650211D01*
X156042744Y-100583018D01*
X156062959Y-100516136D01*
X156114336Y-100471618D01*
X156155026Y-100452644D01*
X156239311Y-100368359D01*
X156260471Y-100322980D01*
X156306643Y-100270541D01*
X156373836Y-100251389D01*
X156404943Y-100255610D01*
X156423192Y-100260500D01*
X156423194Y-100260500D01*
X156568139Y-100260500D01*
X156568142Y-100260500D01*
X156630835Y-100243701D01*
X156700683Y-100245364D01*
X156758546Y-100284526D01*
X156775309Y-100311071D01*
X156802023Y-100368359D01*
X156886308Y-100452644D01*
X156994337Y-100503019D01*
X157043564Y-100509500D01*
X157297769Y-100509499D01*
X157297771Y-100509499D01*
X157322383Y-100506259D01*
X157346997Y-100503019D01*
X157350046Y-100501596D01*
X157353870Y-100501016D01*
X157356107Y-100500364D01*
X157356194Y-100500662D01*
X157419123Y-100491102D01*
X157482908Y-100519620D01*
X157490136Y-100526296D01*
X157758305Y-100794465D01*
X157832528Y-100837318D01*
X157915314Y-100859500D01*
X158001020Y-100859500D01*
X158295900Y-100859500D01*
X158362939Y-100879185D01*
X158408694Y-100931989D01*
X158419900Y-100983500D01*
X158419900Y-101886104D01*
X158426380Y-101935325D01*
X158426382Y-101935333D01*
X158445519Y-101976372D01*
X158476756Y-102043359D01*
X158561041Y-102127644D01*
X158669070Y-102178019D01*
X158669074Y-102178019D01*
X158676505Y-102180186D01*
X158729490Y-102211551D01*
X158781846Y-102263907D01*
X158825447Y-102307507D01*
X158858932Y-102368830D01*
X158861766Y-102395189D01*
X158861766Y-102506475D01*
X158897582Y-102640139D01*
X158899283Y-102646488D01*
X158971754Y-102772011D01*
X158971756Y-102772013D01*
X158971757Y-102772015D01*
X159074251Y-102874509D01*
X159074252Y-102874510D01*
X159074254Y-102874511D01*
X159199777Y-102946982D01*
X159199778Y-102946982D01*
X159199781Y-102946984D01*
X159339791Y-102984500D01*
X159339794Y-102984500D01*
X159484738Y-102984500D01*
X159484741Y-102984500D01*
X159624751Y-102946984D01*
X159750281Y-102874509D01*
X159768513Y-102856277D01*
X162241800Y-102856277D01*
X162241800Y-102904600D01*
X162941800Y-102904600D01*
X162941800Y-102179599D01*
X162918493Y-102179600D01*
X162918474Y-102179601D01*
X162819192Y-102189744D01*
X162658318Y-102243052D01*
X162658307Y-102243057D01*
X162514071Y-102332024D01*
X162514067Y-102332027D01*
X162394227Y-102451867D01*
X162394224Y-102451871D01*
X162305257Y-102596107D01*
X162305252Y-102596118D01*
X162251944Y-102756993D01*
X162241800Y-102856277D01*
X159768513Y-102856277D01*
X159852775Y-102772015D01*
X159925250Y-102646485D01*
X159962766Y-102506475D01*
X159962766Y-102361525D01*
X159925250Y-102221515D01*
X159925248Y-102221512D01*
X159925248Y-102221510D01*
X159925247Y-102221509D01*
X159877709Y-102139172D01*
X159861235Y-102071272D01*
X159872711Y-102024772D01*
X159914419Y-101935330D01*
X159920900Y-101886103D01*
X159920899Y-100956898D01*
X159920897Y-100956886D01*
X159917620Y-100931989D01*
X159914419Y-100907670D01*
X159864044Y-100799641D01*
X159779759Y-100715356D01*
X159701011Y-100678634D01*
X159665738Y-100653935D01*
X159307218Y-100295415D01*
X159273733Y-100234092D01*
X159270899Y-100207743D01*
X159270899Y-99281898D01*
X159270897Y-99281886D01*
X159265205Y-99238643D01*
X159264419Y-99232670D01*
X159214044Y-99124641D01*
X159129759Y-99040356D01*
X159021730Y-98989981D01*
X159021728Y-98989980D01*
X158972513Y-98983501D01*
X158972508Y-98983500D01*
X158972503Y-98983500D01*
X158972496Y-98983500D01*
X158718295Y-98983500D01*
X158669074Y-98989980D01*
X158669066Y-98989982D01*
X158561040Y-99040356D01*
X158476755Y-99124641D01*
X158473527Y-99131565D01*
X158427353Y-99184004D01*
X158360159Y-99203154D01*
X158299146Y-99186545D01*
X158212805Y-99136696D01*
X158072795Y-99099180D01*
X157927845Y-99099180D01*
X157811332Y-99130400D01*
X157787831Y-99136697D01*
X157713648Y-99179527D01*
X157645748Y-99196000D01*
X157579721Y-99173147D01*
X157546297Y-99132993D01*
X157545534Y-99133528D01*
X157539311Y-99124641D01*
X157455026Y-99040356D01*
X157356158Y-98994253D01*
X157346997Y-98989981D01*
X157346995Y-98989980D01*
X157297780Y-98983501D01*
X157297775Y-98983500D01*
X157297770Y-98983500D01*
X157297763Y-98983500D01*
X157043562Y-98983500D01*
X156994341Y-98989980D01*
X156994333Y-98989982D01*
X156886307Y-99040356D01*
X156802021Y-99124642D01*
X156795798Y-99133530D01*
X156792863Y-99131474D01*
X156759355Y-99169501D01*
X156692154Y-99188627D01*
X156661093Y-99184406D01*
X156603662Y-99169017D01*
X156568142Y-99159500D01*
X156423192Y-99159500D01*
X156372779Y-99173008D01*
X156302929Y-99171345D01*
X156245066Y-99132182D01*
X156239380Y-99124710D01*
X156155026Y-99040356D01*
X156056158Y-98994253D01*
X156046997Y-98989981D01*
X156046995Y-98989980D01*
X155997780Y-98983501D01*
X155997775Y-98983500D01*
X155997770Y-98983500D01*
X155997763Y-98983500D01*
X155743562Y-98983500D01*
X155694341Y-98989980D01*
X155694333Y-98989982D01*
X155586307Y-99040356D01*
X155502023Y-99124640D01*
X155451647Y-99232671D01*
X155445168Y-99281886D01*
X155445167Y-99281903D01*
X155445167Y-99298606D01*
X155425482Y-99365645D01*
X155372678Y-99411400D01*
X155303520Y-99421344D01*
X155259167Y-99405993D01*
X155176417Y-99358217D01*
X155176418Y-99358217D01*
X155153033Y-99351951D01*
X155036404Y-99320700D01*
X154891454Y-99320700D01*
X154793242Y-99347016D01*
X154751439Y-99358217D01*
X154751436Y-99358219D01*
X154751220Y-99358344D01*
X154751014Y-99358393D01*
X154743930Y-99361328D01*
X154743472Y-99360222D01*
X154683318Y-99374810D01*
X154617293Y-99351951D01*
X154576848Y-99303357D01*
X154564577Y-99277041D01*
X154480292Y-99192756D01*
X154372263Y-99142381D01*
X154372261Y-99142380D01*
X154323046Y-99135901D01*
X154323041Y-99135900D01*
X154323036Y-99135900D01*
X154323029Y-99135900D01*
X154301985Y-99135900D01*
X154234946Y-99116215D01*
X154189191Y-99063411D01*
X154179247Y-98994253D01*
X154208272Y-98930697D01*
X154214304Y-98924218D01*
X154218010Y-98920511D01*
X154218015Y-98920509D01*
X154320509Y-98818015D01*
X154392984Y-98692485D01*
X154430500Y-98552475D01*
X154430500Y-98444499D01*
X154450185Y-98377460D01*
X154502989Y-98331705D01*
X154554500Y-98320499D01*
X154972104Y-98320499D01*
X154986167Y-98318647D01*
X155021330Y-98314019D01*
X155129359Y-98263644D01*
X155213644Y-98179359D01*
X155264019Y-98071330D01*
X155270500Y-98022103D01*
X155270499Y-97767898D01*
X155268682Y-97754098D01*
X155264336Y-97721080D01*
X155264019Y-97718670D01*
X155213644Y-97610641D01*
X155129359Y-97526356D01*
X155021330Y-97475981D01*
X155021328Y-97475980D01*
X154972113Y-97469501D01*
X154972108Y-97469500D01*
X154972103Y-97469500D01*
X154972096Y-97469500D01*
X154042895Y-97469500D01*
X153993674Y-97475980D01*
X153993668Y-97475981D01*
X153949036Y-97496794D01*
X153879958Y-97507285D01*
X153816175Y-97478765D01*
X153777935Y-97420288D01*
X153777382Y-97350420D01*
X153808948Y-97296733D01*
X153951243Y-97154439D01*
X153992777Y-97082499D01*
X154043343Y-97034284D01*
X154100160Y-97020499D01*
X154972102Y-97020499D01*
X154972104Y-97020499D01*
X154986167Y-97018647D01*
X155021330Y-97014019D01*
X155129359Y-96963644D01*
X155184184Y-96908819D01*
X155245507Y-96875334D01*
X155271865Y-96872500D01*
X156097017Y-96872500D01*
X156164056Y-96892185D01*
X156209811Y-96944989D01*
X156219755Y-97014147D01*
X156216791Y-97028595D01*
X156214905Y-97035630D01*
X156214906Y-97035631D01*
X156214500Y-97037147D01*
X156214500Y-97085613D01*
X156194815Y-97152652D01*
X156178182Y-97173294D01*
X156099488Y-97251988D01*
X156027017Y-97377511D01*
X156027016Y-97377515D01*
X155989500Y-97517525D01*
X155989500Y-97662475D01*
X156027016Y-97802485D01*
X156027017Y-97802488D01*
X156099488Y-97928011D01*
X156099490Y-97928013D01*
X156099491Y-97928015D01*
X156201985Y-98030509D01*
X156201986Y-98030510D01*
X156201988Y-98030511D01*
X156327511Y-98102982D01*
X156327512Y-98102982D01*
X156327515Y-98102984D01*
X156467525Y-98140500D01*
X156467528Y-98140500D01*
X156612472Y-98140500D01*
X156612475Y-98140500D01*
X156752485Y-98102984D01*
X156878015Y-98030509D01*
X156980509Y-97928015D01*
X156983773Y-97922360D01*
X157034339Y-97874144D01*
X157093806Y-97861394D01*
X157093806Y-97860500D01*
X157097126Y-97860499D01*
X157097127Y-97860500D01*
X157717872Y-97860499D01*
X157777483Y-97854091D01*
X157912331Y-97803796D01*
X158027546Y-97717546D01*
X158113796Y-97602331D01*
X158164091Y-97467483D01*
X158170500Y-97407873D01*
X158170499Y-96412135D01*
X158469500Y-96412135D01*
X158469500Y-97407870D01*
X158469501Y-97407876D01*
X158475908Y-97467483D01*
X158526202Y-97602328D01*
X158526206Y-97602335D01*
X158612452Y-97717544D01*
X158612455Y-97717547D01*
X158727664Y-97803793D01*
X158727671Y-97803797D01*
X158869785Y-97856802D01*
X158869316Y-97858057D01*
X158922950Y-97888592D01*
X158941111Y-97912701D01*
X158972035Y-97966262D01*
X159395002Y-98389229D01*
X159783581Y-98777807D01*
X159817066Y-98839130D01*
X159819900Y-98865488D01*
X159819900Y-99030135D01*
X159800215Y-99097174D01*
X159783581Y-99117816D01*
X159776756Y-99124640D01*
X159726380Y-99232671D01*
X159719901Y-99281886D01*
X159719900Y-99281903D01*
X159719900Y-100211104D01*
X159726380Y-100260325D01*
X159726382Y-100260333D01*
X159750341Y-100311712D01*
X159776756Y-100368359D01*
X159861041Y-100452644D01*
X159969070Y-100503019D01*
X160018297Y-100509500D01*
X160272502Y-100509499D01*
X160272504Y-100509499D01*
X160286567Y-100507647D01*
X160321730Y-100503019D01*
X160429759Y-100452644D01*
X160514044Y-100368359D01*
X160564419Y-100260330D01*
X160570900Y-100211103D01*
X160570899Y-99281898D01*
X160570897Y-99281886D01*
X160565205Y-99238643D01*
X160564419Y-99232670D01*
X160514044Y-99124641D01*
X160507219Y-99117816D01*
X160473734Y-99056493D01*
X160470900Y-99030135D01*
X160470900Y-98732155D01*
X160470901Y-98732142D01*
X160470901Y-98636449D01*
X160469704Y-98631982D01*
X160448718Y-98553662D01*
X160434763Y-98529491D01*
X160413686Y-98492984D01*
X160405866Y-98479439D01*
X160340931Y-98414504D01*
X160340920Y-98414494D01*
X159834454Y-97908028D01*
X159800969Y-97846705D01*
X159805953Y-97777013D01*
X159847825Y-97721080D01*
X159852546Y-97717546D01*
X159938796Y-97602331D01*
X159989091Y-97467483D01*
X159995500Y-97407873D01*
X159995499Y-96412128D01*
X159989091Y-96352517D01*
X159968325Y-96296841D01*
X159938797Y-96217671D01*
X159938793Y-96217664D01*
X159852547Y-96102455D01*
X159852544Y-96102452D01*
X159737335Y-96016206D01*
X159737328Y-96016202D01*
X159602486Y-95965910D01*
X159602485Y-95965909D01*
X159602483Y-95965909D01*
X159542873Y-95959500D01*
X159542863Y-95959500D01*
X158922129Y-95959500D01*
X158922123Y-95959501D01*
X158862516Y-95965908D01*
X158727671Y-96016202D01*
X158727664Y-96016206D01*
X158612455Y-96102452D01*
X158612452Y-96102455D01*
X158526206Y-96217664D01*
X158526202Y-96217671D01*
X158475908Y-96352517D01*
X158470280Y-96404870D01*
X158469501Y-96412123D01*
X158469500Y-96412135D01*
X158170499Y-96412135D01*
X158170499Y-96412128D01*
X158164091Y-96352517D01*
X158143325Y-96296841D01*
X158113797Y-96217671D01*
X158113793Y-96217664D01*
X158027547Y-96102455D01*
X158027544Y-96102452D01*
X157912335Y-96016206D01*
X157912328Y-96016202D01*
X157777486Y-95965910D01*
X157777485Y-95965909D01*
X157777483Y-95965909D01*
X157717873Y-95959500D01*
X157717863Y-95959500D01*
X157097129Y-95959500D01*
X157097123Y-95959501D01*
X157037516Y-95965908D01*
X156902671Y-96016202D01*
X156902664Y-96016206D01*
X156787456Y-96102452D01*
X156787455Y-96102453D01*
X156787454Y-96102454D01*
X156735532Y-96171812D01*
X156679600Y-96213682D01*
X156636267Y-96221500D01*
X155146435Y-96221500D01*
X155094030Y-96209882D01*
X155074108Y-96200592D01*
X155021330Y-96175981D01*
X155021328Y-96175980D01*
X154972113Y-96169501D01*
X154972108Y-96169500D01*
X154972103Y-96169500D01*
X154972096Y-96169500D01*
X154345274Y-96169500D01*
X154278235Y-96149815D01*
X154232480Y-96097011D01*
X154221274Y-96045500D01*
X154221274Y-95965545D01*
X154221274Y-95965543D01*
X154183758Y-95825533D01*
X154164801Y-95792699D01*
X154111285Y-95700006D01*
X154111280Y-95700000D01*
X154008791Y-95597511D01*
X154008789Y-95597509D01*
X153914914Y-95543310D01*
X153866699Y-95492742D01*
X153853477Y-95424135D01*
X153879445Y-95359271D01*
X153936359Y-95318743D01*
X153976811Y-95311923D01*
X156389024Y-95310000D01*
X156385921Y-94292141D01*
X156634499Y-94292141D01*
X156670449Y-94472869D01*
X156670451Y-94472875D01*
X156740969Y-94643122D01*
X156740974Y-94643131D01*
X156843349Y-94796345D01*
X156843352Y-94796349D01*
X156973650Y-94926647D01*
X156973654Y-94926650D01*
X157126868Y-95029025D01*
X157126874Y-95029028D01*
X157126875Y-95029029D01*
X157297125Y-95099549D01*
X157297129Y-95099549D01*
X157297130Y-95099550D01*
X157477858Y-95135500D01*
X157477861Y-95135500D01*
X157662141Y-95135500D01*
X157783732Y-95111313D01*
X157842875Y-95099549D01*
X158013125Y-95029029D01*
X158166346Y-94926650D01*
X158296650Y-94796346D01*
X158399029Y-94643125D01*
X158469549Y-94472875D01*
X158491527Y-94362386D01*
X158505500Y-94292141D01*
X158505500Y-94107862D01*
X158502649Y-94093531D01*
X158502025Y-94090392D01*
X158508251Y-94020803D01*
X158535956Y-93978524D01*
X158667664Y-93846817D01*
X158728987Y-93813334D01*
X158755344Y-93810500D01*
X162423600Y-93810500D01*
X162490639Y-93830185D01*
X162536394Y-93882989D01*
X162547600Y-93934500D01*
X162547600Y-94492200D01*
X164847600Y-94492200D01*
X164847600Y-94187244D01*
X164867285Y-94120205D01*
X164920089Y-94074450D01*
X164989247Y-94064506D01*
X165052803Y-94093531D01*
X165059281Y-94099563D01*
X165260781Y-94301063D01*
X165294266Y-94362386D01*
X165297100Y-94388744D01*
X165297100Y-95235855D01*
X165277415Y-95302894D01*
X165260781Y-95323536D01*
X165059281Y-95525036D01*
X164997958Y-95558521D01*
X164928266Y-95553537D01*
X164872333Y-95511665D01*
X164847916Y-95446201D01*
X164847600Y-95437355D01*
X164847600Y-94992200D01*
X162547600Y-94992200D01*
X162547600Y-95590044D01*
X162554001Y-95649572D01*
X162554003Y-95649579D01*
X162604245Y-95784286D01*
X162604249Y-95784293D01*
X162690409Y-95899387D01*
X162690412Y-95899390D01*
X162805506Y-95985550D01*
X162805513Y-95985554D01*
X162947492Y-96038509D01*
X162946281Y-96041754D01*
X162993394Y-96068523D01*
X163025838Y-96130403D01*
X163019677Y-96200001D01*
X162991925Y-96242392D01*
X162509531Y-96724786D01*
X162509525Y-96724794D01*
X162475135Y-96784361D01*
X162475135Y-96784362D01*
X162463386Y-96804710D01*
X162439500Y-96893856D01*
X162439500Y-97757041D01*
X162435275Y-97789134D01*
X162433386Y-97796182D01*
X162433386Y-97796183D01*
X162416951Y-97857520D01*
X162409500Y-97885327D01*
X162409500Y-98474674D01*
X162426988Y-98539942D01*
X162426988Y-98539943D01*
X162430552Y-98553245D01*
X162428888Y-98623094D01*
X162398459Y-98673016D01*
X162349494Y-98721981D01*
X162349488Y-98721988D01*
X162277017Y-98847511D01*
X162277016Y-98847515D01*
X162239500Y-98987525D01*
X162239500Y-99132475D01*
X162266348Y-99232671D01*
X162277017Y-99272488D01*
X162349488Y-99398011D01*
X162349490Y-99398013D01*
X162349491Y-99398015D01*
X162451985Y-99500509D01*
X162451986Y-99500510D01*
X162451988Y-99500511D01*
X162577511Y-99572982D01*
X162577512Y-99572982D01*
X162577515Y-99572984D01*
X162717525Y-99610500D01*
X162717528Y-99610500D01*
X162862472Y-99610500D01*
X162862475Y-99610500D01*
X163002485Y-99572984D01*
X163128015Y-99500509D01*
X163230509Y-99398015D01*
X163302984Y-99272485D01*
X163340500Y-99132475D01*
X163340500Y-98987525D01*
X163302984Y-98847515D01*
X163295381Y-98834347D01*
X163230511Y-98721988D01*
X163230506Y-98721982D01*
X163176819Y-98668295D01*
X163143334Y-98606972D01*
X163140500Y-98580614D01*
X163140500Y-98412387D01*
X163140500Y-98412385D01*
X163116614Y-98323241D01*
X163116613Y-98323240D01*
X163114725Y-98316192D01*
X163110500Y-98284099D01*
X163110500Y-98075904D01*
X163114723Y-98043820D01*
X163120538Y-98022113D01*
X163120732Y-98021388D01*
X163120735Y-98021383D01*
X163120734Y-98021383D01*
X163127329Y-97996769D01*
X163140500Y-97947615D01*
X163140500Y-97136544D01*
X163160185Y-97069505D01*
X163176819Y-97048863D01*
X163485419Y-96740263D01*
X163546742Y-96706778D01*
X163616434Y-96711762D01*
X163672367Y-96753634D01*
X163696784Y-96819098D01*
X163697100Y-96827944D01*
X163697100Y-98466878D01*
X163711632Y-98539935D01*
X163711633Y-98539939D01*
X163723469Y-98557653D01*
X163766999Y-98622801D01*
X163835087Y-98668295D01*
X163849860Y-98678166D01*
X163849864Y-98678167D01*
X163922921Y-98692699D01*
X163922924Y-98692700D01*
X163922926Y-98692700D01*
X164365299Y-98692700D01*
X164432338Y-98712385D01*
X164478093Y-98765189D01*
X164488037Y-98834347D01*
X164485076Y-98848782D01*
X164447900Y-98987525D01*
X164447900Y-99132475D01*
X164474748Y-99232671D01*
X164485417Y-99272488D01*
X164557888Y-99398011D01*
X164557890Y-99398013D01*
X164557891Y-99398015D01*
X164660385Y-99500509D01*
X164660386Y-99500510D01*
X164660388Y-99500511D01*
X164785911Y-99572982D01*
X164785912Y-99572982D01*
X164785915Y-99572984D01*
X164925925Y-99610500D01*
X164925928Y-99610500D01*
X165070872Y-99610500D01*
X165070875Y-99610500D01*
X165210885Y-99572984D01*
X165336415Y-99500509D01*
X165438909Y-99398015D01*
X165511384Y-99272485D01*
X165548900Y-99132475D01*
X165548900Y-98987525D01*
X165511726Y-98848791D01*
X165513389Y-98778944D01*
X165552551Y-98721081D01*
X165616779Y-98693577D01*
X165631501Y-98692700D01*
X165972276Y-98692700D01*
X165972277Y-98692699D01*
X166045340Y-98678166D01*
X166128201Y-98622801D01*
X166183566Y-98539940D01*
X166198100Y-98466874D01*
X166198100Y-97482143D01*
X168976299Y-97482143D01*
X169014747Y-97675429D01*
X169014750Y-97675439D01*
X169090164Y-97857507D01*
X169090171Y-97857520D01*
X169199660Y-98021381D01*
X169199663Y-98021385D01*
X169339014Y-98160736D01*
X169339018Y-98160739D01*
X169502879Y-98270228D01*
X169502892Y-98270235D01*
X169651296Y-98331705D01*
X169684965Y-98345651D01*
X169684969Y-98345651D01*
X169684970Y-98345652D01*
X169878256Y-98384100D01*
X169878259Y-98384100D01*
X170075343Y-98384100D01*
X170205382Y-98358232D01*
X170268635Y-98345651D01*
X170450714Y-98270232D01*
X170614582Y-98160739D01*
X170753939Y-98021382D01*
X170863432Y-97857514D01*
X170864681Y-97854500D01*
X170893222Y-97785593D01*
X170938851Y-97675435D01*
X170953393Y-97602328D01*
X170977300Y-97482143D01*
X170977300Y-97285056D01*
X170938852Y-97091770D01*
X170938851Y-97091769D01*
X170938851Y-97091765D01*
X170935013Y-97082500D01*
X170863435Y-96909692D01*
X170863428Y-96909679D01*
X170753939Y-96745818D01*
X170753936Y-96745814D01*
X170614585Y-96606463D01*
X170614581Y-96606460D01*
X170450720Y-96496971D01*
X170450707Y-96496964D01*
X170268639Y-96421550D01*
X170268629Y-96421547D01*
X170075343Y-96383100D01*
X170075341Y-96383100D01*
X169878259Y-96383100D01*
X169878257Y-96383100D01*
X169684970Y-96421547D01*
X169684960Y-96421550D01*
X169502892Y-96496964D01*
X169502879Y-96496971D01*
X169339018Y-96606460D01*
X169339014Y-96606463D01*
X169199663Y-96745814D01*
X169199660Y-96745818D01*
X169090171Y-96909679D01*
X169090164Y-96909692D01*
X169014750Y-97091760D01*
X169014747Y-97091770D01*
X168976300Y-97285056D01*
X168976300Y-97285059D01*
X168976300Y-97482141D01*
X168976300Y-97482143D01*
X168976299Y-97482143D01*
X166198100Y-97482143D01*
X166198100Y-96817526D01*
X166198100Y-96817523D01*
X166198099Y-96817521D01*
X166183567Y-96744464D01*
X166183566Y-96744460D01*
X166161718Y-96711762D01*
X166128201Y-96661599D01*
X166045680Y-96606461D01*
X166045339Y-96606233D01*
X166045335Y-96606232D01*
X165972277Y-96591700D01*
X165972274Y-96591700D01*
X165283344Y-96591700D01*
X165216305Y-96572015D01*
X165170550Y-96519211D01*
X165160606Y-96450053D01*
X165189631Y-96386497D01*
X165195663Y-96380019D01*
X165746663Y-95829019D01*
X165807986Y-95795534D01*
X165834344Y-95792700D01*
X166872276Y-95792700D01*
X166872277Y-95792699D01*
X166945340Y-95778166D01*
X167028201Y-95722801D01*
X167083566Y-95639940D01*
X167098100Y-95566874D01*
X167098100Y-93917526D01*
X167098100Y-93917523D01*
X167098099Y-93917521D01*
X167083567Y-93844464D01*
X167083566Y-93844460D01*
X167074028Y-93830185D01*
X167028201Y-93761599D01*
X166945340Y-93706234D01*
X166945339Y-93706233D01*
X166945335Y-93706232D01*
X166872277Y-93691700D01*
X166872274Y-93691700D01*
X165694144Y-93691700D01*
X165627105Y-93672015D01*
X165606463Y-93655381D01*
X165130613Y-93179531D01*
X165130608Y-93179527D01*
X165050690Y-93133387D01*
X165050689Y-93133386D01*
X165050688Y-93133386D01*
X164961544Y-93109500D01*
X158512656Y-93109500D01*
X158423511Y-93133386D01*
X158343587Y-93179530D01*
X158168420Y-93354697D01*
X158107096Y-93388181D01*
X158037405Y-93383197D01*
X158018635Y-93373591D01*
X158018500Y-93373844D01*
X158013122Y-93370969D01*
X157842875Y-93300451D01*
X157842869Y-93300449D01*
X157662141Y-93264500D01*
X157662139Y-93264500D01*
X157477861Y-93264500D01*
X157477859Y-93264500D01*
X157297130Y-93300449D01*
X157297124Y-93300451D01*
X157126877Y-93370969D01*
X157126868Y-93370974D01*
X156973654Y-93473349D01*
X156973650Y-93473352D01*
X156843352Y-93603650D01*
X156843349Y-93603654D01*
X156740974Y-93756868D01*
X156740969Y-93756877D01*
X156670451Y-93927124D01*
X156670449Y-93927130D01*
X156634500Y-94107858D01*
X156634500Y-94107861D01*
X156634500Y-94292139D01*
X156634500Y-94292141D01*
X156634499Y-94292141D01*
X156385921Y-94292141D01*
X156381569Y-92864875D01*
X156401049Y-92797779D01*
X156453713Y-92751863D01*
X156505568Y-92740500D01*
X168484108Y-92740500D01*
X168547439Y-92740500D01*
X168552562Y-92740605D01*
G37*
%TD.AperFunction*%
%TA.AperFunction,Conductor*%
G36*
X159482539Y-107215585D02*
G01*
X159528294Y-107268389D01*
X159539500Y-107319900D01*
X159539500Y-107426144D01*
X159543347Y-107440500D01*
X159561109Y-107506790D01*
X159563386Y-107515288D01*
X159609527Y-107595208D01*
X159609529Y-107595211D01*
X159609530Y-107595212D01*
X160219531Y-108205212D01*
X160284788Y-108270469D01*
X160284791Y-108270470D01*
X160284794Y-108270473D01*
X160364706Y-108316611D01*
X160364707Y-108316611D01*
X160364712Y-108316614D01*
X160453856Y-108340500D01*
X164317488Y-108340500D01*
X164384527Y-108360185D01*
X164430282Y-108412989D01*
X164440226Y-108482147D01*
X164437263Y-108496594D01*
X164437016Y-108497514D01*
X164437016Y-108497515D01*
X164399500Y-108637525D01*
X164399500Y-108782475D01*
X164435434Y-108916581D01*
X164437017Y-108922488D01*
X164509488Y-109048011D01*
X164509493Y-109048017D01*
X164563181Y-109101705D01*
X164596666Y-109163028D01*
X164599500Y-109189386D01*
X164599500Y-109374755D01*
X164579815Y-109441794D01*
X164563181Y-109462436D01*
X164327280Y-109698336D01*
X164265957Y-109731821D01*
X164196265Y-109726837D01*
X164140332Y-109684965D01*
X164115915Y-109619501D01*
X164115599Y-109610655D01*
X164115599Y-109468228D01*
X164115598Y-109468213D01*
X164105105Y-109365502D01*
X164049958Y-109199080D01*
X164049956Y-109199075D01*
X163957915Y-109049854D01*
X163833945Y-108925884D01*
X163684724Y-108833843D01*
X163684719Y-108833841D01*
X163518297Y-108778694D01*
X163518290Y-108778693D01*
X163415586Y-108768200D01*
X163165600Y-108768200D01*
X163165600Y-109656700D01*
X163145915Y-109723739D01*
X163093111Y-109769494D01*
X163041600Y-109780700D01*
X162915600Y-109780700D01*
X162915600Y-109906700D01*
X162895915Y-109973739D01*
X162843111Y-110019494D01*
X162791600Y-110030700D01*
X159277201Y-110030700D01*
X159277201Y-110093186D01*
X159288382Y-110202631D01*
X159286263Y-110202847D01*
X159281801Y-110262424D01*
X159239742Y-110318216D01*
X159174196Y-110342413D01*
X159165766Y-110342700D01*
X158552892Y-110342700D01*
X158485853Y-110323015D01*
X158440098Y-110270211D01*
X158438331Y-110266153D01*
X158410630Y-110199277D01*
X158410625Y-110199268D01*
X158308250Y-110046054D01*
X158308247Y-110046050D01*
X158177949Y-109915752D01*
X158177945Y-109915749D01*
X158024731Y-109813374D01*
X158024722Y-109813369D01*
X157854475Y-109742851D01*
X157854469Y-109742849D01*
X157673741Y-109706900D01*
X157673739Y-109706900D01*
X157489461Y-109706900D01*
X157489459Y-109706900D01*
X157308730Y-109742849D01*
X157308724Y-109742851D01*
X157138477Y-109813369D01*
X157138468Y-109813374D01*
X156985254Y-109915749D01*
X156985250Y-109915752D01*
X156854952Y-110046050D01*
X156854949Y-110046054D01*
X156752574Y-110199268D01*
X156752569Y-110199277D01*
X156682051Y-110369524D01*
X156682049Y-110369530D01*
X156646100Y-110550258D01*
X156646100Y-110550261D01*
X156646100Y-110734539D01*
X156646100Y-110734541D01*
X156646099Y-110734541D01*
X156682049Y-110915269D01*
X156682051Y-110915275D01*
X156752569Y-111085522D01*
X156752574Y-111085531D01*
X156854949Y-111238745D01*
X156854952Y-111238749D01*
X156864822Y-111248619D01*
X156898307Y-111309942D01*
X156893323Y-111379634D01*
X156851451Y-111435567D01*
X156785987Y-111459984D01*
X156777141Y-111460300D01*
X156406544Y-111460300D01*
X156339505Y-111440615D01*
X156318863Y-111423981D01*
X155961369Y-111066487D01*
X155927884Y-111005164D01*
X155932868Y-110935472D01*
X155934489Y-110931353D01*
X155941149Y-110915275D01*
X155968024Y-110780166D01*
X155977100Y-110734541D01*
X155977100Y-110550258D01*
X155941150Y-110369530D01*
X155941149Y-110369529D01*
X155941149Y-110369525D01*
X155934488Y-110353445D01*
X155927019Y-110283980D01*
X155958292Y-110221500D01*
X155961340Y-110218341D01*
X156711468Y-109468213D01*
X159277200Y-109468213D01*
X159277200Y-109530700D01*
X160227200Y-109530700D01*
X160727200Y-109530700D01*
X162665600Y-109530700D01*
X162665600Y-108768200D01*
X162415629Y-108768200D01*
X162415612Y-108768201D01*
X162312902Y-108778694D01*
X162146480Y-108833841D01*
X162146475Y-108833843D01*
X161997254Y-108925884D01*
X161873283Y-109049855D01*
X161873280Y-109049859D01*
X161801938Y-109165523D01*
X161749990Y-109212248D01*
X161681028Y-109223469D01*
X161616946Y-109195626D01*
X161590862Y-109165523D01*
X161519519Y-109049859D01*
X161519516Y-109049855D01*
X161395545Y-108925884D01*
X161246324Y-108833843D01*
X161246319Y-108833841D01*
X161079897Y-108778694D01*
X161079890Y-108778693D01*
X160977186Y-108768200D01*
X160727200Y-108768200D01*
X160727200Y-109530700D01*
X160227200Y-109530700D01*
X160227200Y-108768200D01*
X159977229Y-108768200D01*
X159977212Y-108768201D01*
X159874502Y-108778694D01*
X159708080Y-108833841D01*
X159708075Y-108833843D01*
X159558854Y-108925884D01*
X159434884Y-109049854D01*
X159342843Y-109199075D01*
X159342841Y-109199080D01*
X159287694Y-109365502D01*
X159287693Y-109365509D01*
X159277200Y-109468213D01*
X156711468Y-109468213D01*
X158947463Y-107232219D01*
X159008786Y-107198734D01*
X159035144Y-107195900D01*
X159415500Y-107195900D01*
X159482539Y-107215585D01*
G37*
%TD.AperFunction*%
%TA.AperFunction,Conductor*%
G36*
X151137448Y-109776982D02*
G01*
X151155263Y-109791745D01*
X151581830Y-110218312D01*
X151615315Y-110279635D01*
X151610331Y-110349327D01*
X151608711Y-110353442D01*
X151602053Y-110369515D01*
X151602050Y-110369526D01*
X151566100Y-110550258D01*
X151566100Y-110550261D01*
X151566100Y-110734539D01*
X151566100Y-110734541D01*
X151566099Y-110734541D01*
X151602049Y-110915268D01*
X151602050Y-110915271D01*
X151602051Y-110915275D01*
X151608711Y-110931353D01*
X151608712Y-110931356D01*
X151616178Y-111000826D01*
X151584901Y-111063304D01*
X151581831Y-111066486D01*
X151275135Y-111373182D01*
X151213814Y-111406666D01*
X151187456Y-111409500D01*
X151070600Y-111409500D01*
X151003561Y-111389815D01*
X150957806Y-111337011D01*
X150946600Y-111285500D01*
X150946600Y-110892400D01*
X150406160Y-110892400D01*
X150436845Y-110839253D01*
X150471600Y-110709543D01*
X150471600Y-110575257D01*
X150436845Y-110445547D01*
X150406160Y-110392400D01*
X150946599Y-110392400D01*
X150946599Y-109912614D01*
X150946597Y-109912591D01*
X150944408Y-109893711D01*
X150956238Y-109824850D01*
X151003419Y-109773317D01*
X151070972Y-109755472D01*
X151137448Y-109776982D01*
G37*
%TD.AperFunction*%
%TA.AperFunction,Conductor*%
G36*
X154746072Y-102716768D02*
G01*
X154802005Y-102758640D01*
X154826422Y-102824104D01*
X154826096Y-102845550D01*
X154825001Y-102856270D01*
X154825000Y-102856290D01*
X154825000Y-102904600D01*
X155651000Y-102904600D01*
X155718039Y-102924285D01*
X155763794Y-102977089D01*
X155775000Y-103028600D01*
X155775000Y-103154600D01*
X155901000Y-103154600D01*
X155968039Y-103174285D01*
X156013794Y-103227089D01*
X156025000Y-103278600D01*
X156025000Y-104082135D01*
X156005315Y-104149174D01*
X155963002Y-104189521D01*
X155928416Y-104209489D01*
X155928410Y-104209494D01*
X155825921Y-104311983D01*
X155825916Y-104311989D01*
X155753445Y-104437512D01*
X155753444Y-104437516D01*
X155715928Y-104577526D01*
X155715928Y-104577528D01*
X155715928Y-104604954D01*
X155696243Y-104671993D01*
X155643439Y-104717748D01*
X155574281Y-104727692D01*
X155559837Y-104724729D01*
X155540321Y-104719500D01*
X155424500Y-104719500D01*
X155357461Y-104699815D01*
X155311706Y-104647011D01*
X155300500Y-104595500D01*
X155300500Y-104520723D01*
X155300499Y-104520721D01*
X155285967Y-104447664D01*
X155285966Y-104447660D01*
X155285965Y-104447659D01*
X155230601Y-104364799D01*
X155151564Y-104311989D01*
X155147739Y-104309433D01*
X155147735Y-104309432D01*
X155074677Y-104294900D01*
X155074674Y-104294900D01*
X154813126Y-104294900D01*
X154746087Y-104275215D01*
X154705739Y-104232901D01*
X154678212Y-104185224D01*
X154640509Y-104119920D01*
X154538015Y-104017426D01*
X154538013Y-104017425D01*
X154538011Y-104017423D01*
X154412488Y-103944952D01*
X154412486Y-103944951D01*
X154387169Y-103938167D01*
X154327510Y-103901800D01*
X154296982Y-103838952D01*
X154305279Y-103769577D01*
X154316435Y-103750519D01*
X154316401Y-103750500D01*
X154320463Y-103743463D01*
X154320465Y-103743462D01*
X154363318Y-103669239D01*
X154385500Y-103586453D01*
X154385500Y-103500747D01*
X154385500Y-103452922D01*
X154825001Y-103452922D01*
X154835144Y-103552207D01*
X154888452Y-103713081D01*
X154888457Y-103713092D01*
X154977424Y-103857328D01*
X154977427Y-103857332D01*
X155097267Y-103977172D01*
X155097271Y-103977175D01*
X155241507Y-104066142D01*
X155241518Y-104066147D01*
X155402393Y-104119455D01*
X155501683Y-104129599D01*
X155525000Y-104129598D01*
X155525000Y-103404600D01*
X154825001Y-103404600D01*
X154825001Y-103452922D01*
X154385500Y-103452922D01*
X154385500Y-103026188D01*
X154405185Y-102959149D01*
X154421814Y-102938511D01*
X154615058Y-102745268D01*
X154676380Y-102711784D01*
X154746072Y-102716768D01*
G37*
%TD.AperFunction*%
%TA.AperFunction,Conductor*%
G36*
X150080262Y-98073491D02*
G01*
X150124780Y-98124866D01*
X150143756Y-98165559D01*
X150228041Y-98249844D01*
X150336070Y-98300219D01*
X150385297Y-98306700D01*
X151314502Y-98306699D01*
X151314504Y-98306699D01*
X151328567Y-98304847D01*
X151363730Y-98300219D01*
X151471759Y-98249844D01*
X151512784Y-98208819D01*
X151574107Y-98175334D01*
X151600465Y-98172500D01*
X152068135Y-98172500D01*
X152135174Y-98192185D01*
X152155816Y-98208819D01*
X152210641Y-98263644D01*
X152318670Y-98314019D01*
X152367897Y-98320500D01*
X153205500Y-98320499D01*
X153272539Y-98340183D01*
X153318294Y-98392987D01*
X153329500Y-98444499D01*
X153329500Y-98552475D01*
X153366487Y-98690509D01*
X153367017Y-98692488D01*
X153439488Y-98818011D01*
X153439490Y-98818013D01*
X153439491Y-98818015D01*
X153541985Y-98920509D01*
X153667515Y-98992984D01*
X153807525Y-99030500D01*
X153807529Y-99030500D01*
X153810097Y-99031188D01*
X153869758Y-99067553D01*
X153900287Y-99130400D01*
X153891992Y-99199775D01*
X153865686Y-99238643D01*
X153827288Y-99277041D01*
X153821064Y-99285930D01*
X153817645Y-99283536D01*
X153785022Y-99320140D01*
X153717714Y-99338886D01*
X153687354Y-99334673D01*
X153635206Y-99320700D01*
X153593408Y-99309500D01*
X153448458Y-99309500D01*
X153448456Y-99309500D01*
X153396629Y-99323387D01*
X153326779Y-99321724D01*
X153268917Y-99282561D01*
X153265161Y-99277625D01*
X153180292Y-99192756D01*
X153171437Y-99188627D01*
X153072263Y-99142381D01*
X153072261Y-99142380D01*
X153023046Y-99135901D01*
X153023041Y-99135900D01*
X153023036Y-99135900D01*
X153023029Y-99135900D01*
X152768828Y-99135900D01*
X152719607Y-99142380D01*
X152719599Y-99142382D01*
X152611573Y-99192756D01*
X152527289Y-99277040D01*
X152476913Y-99385071D01*
X152470434Y-99434286D01*
X152470433Y-99434297D01*
X152470433Y-99890924D01*
X152470434Y-100236900D01*
X152450750Y-100303939D01*
X152397946Y-100349694D01*
X152346434Y-100360900D01*
X152194889Y-100360900D01*
X152127850Y-100341215D01*
X152107208Y-100324581D01*
X151683018Y-99900391D01*
X151649533Y-99839068D01*
X151646699Y-99812710D01*
X151646699Y-99434295D01*
X151641922Y-99398011D01*
X151640219Y-99385070D01*
X151589844Y-99277041D01*
X151505559Y-99192756D01*
X151397530Y-99142381D01*
X151397528Y-99142380D01*
X151348313Y-99135901D01*
X151348308Y-99135900D01*
X151348303Y-99135900D01*
X151348296Y-99135900D01*
X151094095Y-99135900D01*
X151044874Y-99142380D01*
X151044866Y-99142382D01*
X150936840Y-99192756D01*
X150852556Y-99277040D01*
X150802180Y-99385071D01*
X150795701Y-99434286D01*
X150795700Y-99434303D01*
X150795700Y-100363504D01*
X150802180Y-100412725D01*
X150802182Y-100412733D01*
X150844283Y-100503017D01*
X150852556Y-100520759D01*
X150936841Y-100605044D01*
X151044870Y-100655419D01*
X151094097Y-100661900D01*
X151348302Y-100661899D01*
X151348304Y-100661899D01*
X151374124Y-100658500D01*
X151397530Y-100655419D01*
X151400579Y-100653996D01*
X151404403Y-100653416D01*
X151406640Y-100652764D01*
X151406727Y-100653062D01*
X151469656Y-100643502D01*
X151533441Y-100672020D01*
X151540669Y-100678696D01*
X151808838Y-100946865D01*
X151883061Y-100989718D01*
X151965847Y-101011900D01*
X152346433Y-101011900D01*
X152413472Y-101031585D01*
X152459227Y-101084389D01*
X152470433Y-101135900D01*
X152470433Y-102038504D01*
X152476913Y-102087725D01*
X152476915Y-102087733D01*
X152527289Y-102195759D01*
X152534114Y-102202584D01*
X152567599Y-102263907D01*
X152570433Y-102290265D01*
X152570433Y-103127872D01*
X152553820Y-103189872D01*
X152530083Y-103230984D01*
X152526758Y-103243393D01*
X152490391Y-103303052D01*
X152427543Y-103333579D01*
X152358167Y-103325282D01*
X152319303Y-103298976D01*
X151033018Y-102012691D01*
X150999533Y-101951368D01*
X150996699Y-101925010D01*
X150996699Y-101109295D01*
X150993420Y-101084389D01*
X150990219Y-101060070D01*
X150939844Y-100952041D01*
X150855559Y-100867756D01*
X150747530Y-100817381D01*
X150747528Y-100817380D01*
X150698313Y-100810901D01*
X150698308Y-100810900D01*
X150698303Y-100810900D01*
X150698296Y-100810900D01*
X150444095Y-100810900D01*
X150394874Y-100817380D01*
X150394863Y-100817383D01*
X150298603Y-100862270D01*
X150229526Y-100872762D01*
X150193796Y-100862271D01*
X150193794Y-100862270D01*
X150164868Y-100848781D01*
X150112430Y-100802611D01*
X150093277Y-100735418D01*
X150113492Y-100668536D01*
X150164869Y-100624018D01*
X150205559Y-100605044D01*
X150289844Y-100520759D01*
X150340219Y-100412730D01*
X150346700Y-100363503D01*
X150346699Y-99434298D01*
X150346697Y-99434286D01*
X150341922Y-99398011D01*
X150340219Y-99385070D01*
X150289844Y-99277041D01*
X150205559Y-99192756D01*
X150097530Y-99142381D01*
X150097528Y-99142380D01*
X150097527Y-99142380D01*
X150088419Y-99139725D01*
X150088836Y-99138291D01*
X150034418Y-99114217D01*
X149995947Y-99055893D01*
X149990500Y-99019545D01*
X149990500Y-98897527D01*
X149990500Y-98897525D01*
X149952984Y-98757515D01*
X149938342Y-98732155D01*
X149880511Y-98631988D01*
X149880506Y-98631982D01*
X149826819Y-98578295D01*
X149793334Y-98516972D01*
X149790500Y-98490614D01*
X149790500Y-98307465D01*
X149810185Y-98240426D01*
X149826819Y-98219784D01*
X149842494Y-98204109D01*
X149881044Y-98165559D01*
X149900018Y-98124868D01*
X149946187Y-98072430D01*
X150013380Y-98053277D01*
X150080262Y-98073491D01*
G37*
%TD.AperFunction*%
%TA.AperFunction,Conductor*%
G36*
X155440877Y-100296463D02*
G01*
X155490869Y-100345274D01*
X155495136Y-100353590D01*
X155502023Y-100368359D01*
X155586308Y-100452644D01*
X155626998Y-100471618D01*
X155679436Y-100517788D01*
X155698589Y-100584981D01*
X155678374Y-100651863D01*
X155627000Y-100696380D01*
X155586308Y-100715355D01*
X155502023Y-100799640D01*
X155451647Y-100907671D01*
X155445168Y-100956886D01*
X155445167Y-100956903D01*
X155445167Y-100998300D01*
X155425482Y-101065339D01*
X155372678Y-101111094D01*
X155353266Y-101118073D01*
X155352863Y-101118180D01*
X155352861Y-101118181D01*
X155278638Y-101161035D01*
X155278635Y-101161037D01*
X154124086Y-102315586D01*
X153950121Y-102489550D01*
X153950120Y-102489553D01*
X153799534Y-102640139D01*
X153799533Y-102640141D01*
X153756681Y-102714362D01*
X153756680Y-102714364D01*
X153750531Y-102737316D01*
X153750531Y-102737318D01*
X153734500Y-102797147D01*
X153734500Y-103077298D01*
X153714815Y-103144337D01*
X153662011Y-103190092D01*
X153592853Y-103200036D01*
X153529297Y-103171011D01*
X153503113Y-103139299D01*
X153483575Y-103105458D01*
X153381081Y-103002964D01*
X153283432Y-102946586D01*
X153235217Y-102896018D01*
X153221433Y-102839199D01*
X153221433Y-102452307D01*
X153241118Y-102385268D01*
X153293922Y-102339513D01*
X153361618Y-102329368D01*
X153377743Y-102331490D01*
X153418830Y-102336900D01*
X153673035Y-102336899D01*
X153673037Y-102336899D01*
X153687100Y-102335047D01*
X153722263Y-102330419D01*
X153830292Y-102280044D01*
X153914577Y-102195759D01*
X153964952Y-102087730D01*
X153971433Y-102038503D01*
X153971432Y-101109298D01*
X153971430Y-101109286D01*
X153968153Y-101084389D01*
X153964952Y-101060070D01*
X153914577Y-100952041D01*
X153830292Y-100867756D01*
X153751544Y-100831035D01*
X153736103Y-100817438D01*
X153717872Y-100807908D01*
X153716271Y-100806335D01*
X153529989Y-100620053D01*
X153496504Y-100558730D01*
X153501488Y-100489038D01*
X153543360Y-100433105D01*
X153585576Y-100412597D01*
X153593402Y-100410500D01*
X153593408Y-100410500D01*
X153655108Y-100393967D01*
X153683288Y-100394638D01*
X153711359Y-100392119D01*
X153717747Y-100395458D01*
X153724954Y-100395630D01*
X153748298Y-100411429D01*
X153773278Y-100424488D01*
X153779587Y-100432606D01*
X153782817Y-100434792D01*
X153789448Y-100445293D01*
X153794937Y-100452355D01*
X153797440Y-100456748D01*
X153827289Y-100520759D01*
X153911574Y-100605044D01*
X154019603Y-100655419D01*
X154068830Y-100661900D01*
X154323035Y-100661899D01*
X154323037Y-100661899D01*
X154337100Y-100660047D01*
X154372263Y-100655419D01*
X154480292Y-100605044D01*
X154564577Y-100520759D01*
X154598038Y-100449001D01*
X154644209Y-100396563D01*
X154711402Y-100377411D01*
X154743118Y-100383853D01*
X154743594Y-100382080D01*
X154751442Y-100384182D01*
X154751444Y-100384184D01*
X154891454Y-100421700D01*
X154891457Y-100421700D01*
X155036401Y-100421700D01*
X155036404Y-100421700D01*
X155176414Y-100384184D01*
X155301944Y-100311709D01*
X155301950Y-100311702D01*
X155307263Y-100307626D01*
X155372431Y-100282429D01*
X155440877Y-100296463D01*
G37*
%TD.AperFunction*%
%TD*%
%TA.AperFunction,Conductor*%
%TO.N,GNDPWR*%
G36*
X143301449Y-92745521D02*
G01*
X143314768Y-92749432D01*
X143373546Y-92787206D01*
X143402572Y-92850761D01*
X143403782Y-92859176D01*
X143400819Y-92908917D01*
X143384200Y-92970941D01*
X143384200Y-93050270D01*
X143379176Y-93085207D01*
X143371764Y-93110448D01*
X143340469Y-93163192D01*
X143104622Y-93399038D01*
X143076369Y-93420189D01*
X143055741Y-93431453D01*
X143002190Y-93446481D01*
X142999911Y-93446589D01*
X142979252Y-93445844D01*
X142962875Y-93443877D01*
X142962873Y-93443877D01*
X142903102Y-93436700D01*
X142903096Y-93436700D01*
X142291901Y-93436700D01*
X142291898Y-93436700D01*
X142281560Y-93437941D01*
X142252853Y-93441387D01*
X142252853Y-93441388D01*
X142246920Y-93442100D01*
X142203439Y-93447321D01*
X142062653Y-93502840D01*
X141942076Y-93594276D01*
X141850640Y-93714853D01*
X141795121Y-93855640D01*
X141786024Y-93931403D01*
X141779584Y-93958602D01*
X141773110Y-93976594D01*
X141731891Y-94033010D01*
X141731864Y-94033030D01*
X141728863Y-94035330D01*
X141676180Y-94058807D01*
X141674624Y-94059097D01*
X141671945Y-94059596D01*
X141649205Y-94061700D01*
X136923359Y-94061700D01*
X136907700Y-94065896D01*
X136907695Y-94065896D01*
X136875607Y-94074495D01*
X136843633Y-94083063D01*
X136843630Y-94083063D01*
X136827865Y-94087287D01*
X136742231Y-94136729D01*
X135871227Y-95007735D01*
X135870055Y-95008906D01*
X135867160Y-95014778D01*
X135830688Y-95077950D01*
X135821791Y-95093359D01*
X135821790Y-95093360D01*
X135809307Y-95139950D01*
X135798470Y-95180396D01*
X135797110Y-95185471D01*
X135797103Y-95185497D01*
X135796200Y-95188862D01*
X135796200Y-96082470D01*
X135791175Y-96117414D01*
X135786770Y-96132412D01*
X135749027Y-96191155D01*
X135747658Y-96192342D01*
X135692797Y-96219818D01*
X135685239Y-96221463D01*
X135658868Y-96224300D01*
X135529930Y-96224300D01*
X135511274Y-96226049D01*
X135505269Y-96226612D01*
X135501699Y-96226778D01*
X135499497Y-96227153D01*
X135371318Y-96272006D01*
X135262049Y-96352649D01*
X135181406Y-96461918D01*
X135136553Y-96590097D01*
X135136178Y-96592299D01*
X135136012Y-96595869D01*
X135133700Y-96620530D01*
X135133700Y-97029069D01*
X135134142Y-97033779D01*
X135136012Y-97053729D01*
X135136178Y-97057299D01*
X135136552Y-97059501D01*
X135178231Y-97178606D01*
X135178231Y-97178607D01*
X135181405Y-97187678D01*
X135181406Y-97187681D01*
X135181407Y-97187682D01*
X135262050Y-97296950D01*
X135368776Y-97375717D01*
X135371318Y-97377593D01*
X135499499Y-97422446D01*
X135499503Y-97422447D01*
X135517942Y-97424175D01*
X135529930Y-97425300D01*
X135529934Y-97425300D01*
X135529939Y-97425300D01*
X136813470Y-97425300D01*
X136813471Y-97425300D01*
X136843888Y-97422447D01*
X136843899Y-97422446D01*
X136843899Y-97422445D01*
X136851404Y-97421742D01*
X136851422Y-97421935D01*
X136858146Y-97421035D01*
X136877851Y-97420028D01*
X136945804Y-97436267D01*
X136994193Y-97486668D01*
X136996296Y-97490713D01*
X137009755Y-97559274D01*
X137009737Y-97559477D01*
X137008850Y-97568942D01*
X137008700Y-97570534D01*
X137008700Y-97979065D01*
X137011012Y-98003729D01*
X137011178Y-98007299D01*
X137011553Y-98009499D01*
X137011553Y-98009501D01*
X137056406Y-98137680D01*
X137056407Y-98137682D01*
X137137050Y-98246950D01*
X137246318Y-98327593D01*
X137288374Y-98342309D01*
X137374499Y-98372446D01*
X137374505Y-98372446D01*
X137374507Y-98372447D01*
X137386092Y-98373533D01*
X137404930Y-98375300D01*
X137404934Y-98375300D01*
X137404939Y-98375300D01*
X138688470Y-98375300D01*
X138688471Y-98375300D01*
X138713120Y-98372988D01*
X138716697Y-98372820D01*
X138718900Y-98372446D01*
X138718901Y-98372446D01*
X138805026Y-98342309D01*
X138843898Y-98328706D01*
X138860125Y-98324239D01*
X138882018Y-98319786D01*
X138951630Y-98325708D01*
X138960889Y-98329305D01*
X139003674Y-98357211D01*
X140365573Y-99719110D01*
X140386723Y-99747362D01*
X140399331Y-99770451D01*
X140414500Y-99829880D01*
X140414500Y-100543102D01*
X140417309Y-100566491D01*
X140417309Y-100566492D01*
X140424238Y-100624198D01*
X140424603Y-100630311D01*
X140424716Y-100630583D01*
X140425507Y-100632541D01*
X140430352Y-100644826D01*
X140430353Y-100644829D01*
X140480637Y-100772339D01*
X140480640Y-100772345D01*
X140572076Y-100892922D01*
X140685904Y-100979240D01*
X140689102Y-100982029D01*
X140689107Y-100982032D01*
X140692390Y-100984349D01*
X140695596Y-100985519D01*
X140833436Y-101039877D01*
X140921898Y-101050500D01*
X140921903Y-101050500D01*
X141533097Y-101050500D01*
X141533102Y-101050500D01*
X141621564Y-101039877D01*
X141762342Y-100984361D01*
X141882922Y-100892922D01*
X141974361Y-100772342D01*
X142018107Y-100661407D01*
X142035595Y-100630754D01*
X142042542Y-100621825D01*
X142099248Y-100581006D01*
X142169020Y-100577324D01*
X142229706Y-100611947D01*
X142229710Y-100611952D01*
X142229711Y-100611953D01*
X142234139Y-100616550D01*
X142260185Y-100657081D01*
X142276127Y-100697504D01*
X142276128Y-100697509D01*
X142276129Y-100697509D01*
X142305639Y-100772343D01*
X142305640Y-100772345D01*
X142397076Y-100892922D01*
X142510904Y-100979240D01*
X142514102Y-100982029D01*
X142514107Y-100982032D01*
X142517390Y-100984349D01*
X142520596Y-100985519D01*
X142658436Y-101039877D01*
X142746898Y-101050500D01*
X142746903Y-101050500D01*
X143358096Y-101050500D01*
X143358097Y-101050500D01*
X143358102Y-101050500D01*
X143409829Y-101044288D01*
X143478737Y-101055840D01*
X143530461Y-101102812D01*
X143548612Y-101167317D01*
X143549185Y-101981251D01*
X143529548Y-102048304D01*
X143476776Y-102094096D01*
X143425979Y-102105335D01*
X141360538Y-102118554D01*
X141360537Y-102118554D01*
X139124363Y-102132864D01*
X139057199Y-102113609D01*
X139026886Y-102086508D01*
X139024429Y-102083448D01*
X139024428Y-102083447D01*
X139024427Y-102083446D01*
X138932615Y-102018839D01*
X138932603Y-102018832D01*
X138869068Y-101989817D01*
X138869061Y-101989814D01*
X138869056Y-101989812D01*
X138839947Y-101979920D01*
X138810840Y-101970028D01*
X138810646Y-101970019D01*
X138808446Y-101969927D01*
X138806182Y-101969157D01*
X138802122Y-101968399D01*
X138802231Y-101967815D01*
X138742295Y-101947444D01*
X138698799Y-101892764D01*
X138695341Y-101883147D01*
X138525840Y-101342740D01*
X138524560Y-101272886D01*
X138552392Y-101222238D01*
X138603948Y-101165511D01*
X138640639Y-101106051D01*
X138667499Y-101050739D01*
X138686102Y-100940020D01*
X138684821Y-100870162D01*
X138670870Y-100784334D01*
X138331483Y-99702289D01*
X138306259Y-99643957D01*
X138281106Y-99599235D01*
X138260468Y-99567356D01*
X138178265Y-99490887D01*
X138178263Y-99490885D01*
X138119244Y-99453515D01*
X138119240Y-99453512D01*
X138119234Y-99453509D01*
X138039894Y-99417920D01*
X136492791Y-98974946D01*
X135781547Y-98771299D01*
X135738106Y-98762218D01*
X135738078Y-98762213D01*
X135738076Y-98762213D01*
X135702438Y-98757433D01*
X135702437Y-98757433D01*
X135665474Y-98755193D01*
X135658083Y-98754745D01*
X135658082Y-98754745D01*
X135409162Y-98757795D01*
X132116018Y-98798152D01*
X132048744Y-98779291D01*
X132002345Y-98727052D01*
X131990500Y-98674162D01*
X131990500Y-98243820D01*
X131990525Y-98241344D01*
X131990580Y-98238646D01*
X131990658Y-98236175D01*
X131994732Y-98137679D01*
X132008966Y-97793523D01*
X132009283Y-97788418D01*
X132009701Y-97783368D01*
X132010226Y-97778293D01*
X132064559Y-97342400D01*
X132065286Y-97337409D01*
X132066141Y-97332284D01*
X132067068Y-97327352D01*
X132157215Y-96897420D01*
X132158359Y-96892482D01*
X132159619Y-96887507D01*
X132160962Y-96882630D01*
X132286293Y-96461647D01*
X132287857Y-96456770D01*
X132289512Y-96451952D01*
X132291269Y-96447161D01*
X132297909Y-96430144D01*
X132450912Y-96038027D01*
X132452864Y-96033317D01*
X132454933Y-96028600D01*
X132457048Y-96024033D01*
X132488861Y-95958961D01*
X132649981Y-95629384D01*
X132652270Y-95624935D01*
X132654752Y-95620350D01*
X132657272Y-95615917D01*
X132660033Y-95611284D01*
X132882100Y-95238606D01*
X132884796Y-95234290D01*
X132887592Y-95230011D01*
X132890442Y-95225838D01*
X133145682Y-94868352D01*
X133148686Y-94864322D01*
X133151879Y-94860219D01*
X133155065Y-94856297D01*
X133438939Y-94521129D01*
X133442286Y-94517338D01*
X133445793Y-94513528D01*
X133449298Y-94509876D01*
X133759876Y-94199298D01*
X133763528Y-94195793D01*
X133767338Y-94192286D01*
X133771129Y-94188939D01*
X134106297Y-93905065D01*
X134110219Y-93901879D01*
X134114322Y-93898686D01*
X134118352Y-93895682D01*
X134475838Y-93640442D01*
X134480028Y-93637581D01*
X134484307Y-93634786D01*
X134488644Y-93632078D01*
X134492229Y-93629942D01*
X134865971Y-93407239D01*
X134870386Y-93404732D01*
X134874915Y-93402281D01*
X134879392Y-93399977D01*
X135273999Y-93207065D01*
X135278592Y-93204936D01*
X135283330Y-93202858D01*
X135288019Y-93200916D01*
X135697176Y-93041263D01*
X135701952Y-93039512D01*
X135706783Y-93037852D01*
X135711647Y-93036293D01*
X136132630Y-92910962D01*
X136137507Y-92909619D01*
X136142482Y-92908359D01*
X136147420Y-92907215D01*
X136577352Y-92817068D01*
X136582284Y-92816141D01*
X136587409Y-92815286D01*
X136592400Y-92814559D01*
X137028293Y-92760226D01*
X137033346Y-92759703D01*
X137036935Y-92759405D01*
X137038418Y-92759283D01*
X137043518Y-92758966D01*
X137486205Y-92740655D01*
X137488657Y-92740579D01*
X137491358Y-92740524D01*
X137493832Y-92740500D01*
X143266517Y-92740500D01*
X143301449Y-92745521D01*
G37*
%TD.AperFunction*%
%TA.AperFunction,Conductor*%
G36*
X141677767Y-94817723D02*
G01*
X141692765Y-94822127D01*
X141751536Y-94859894D01*
X141754012Y-94862751D01*
X141780629Y-94913991D01*
X141782450Y-94921302D01*
X141785241Y-94936487D01*
X141788046Y-94959844D01*
X141795120Y-95018755D01*
X141795121Y-95018759D01*
X141795122Y-95018761D01*
X141842913Y-95139950D01*
X141850640Y-95159545D01*
X141942076Y-95280122D01*
X142055904Y-95366440D01*
X142059102Y-95369229D01*
X142059107Y-95369232D01*
X142062390Y-95371549D01*
X142065596Y-95372719D01*
X142203436Y-95427077D01*
X142291898Y-95437700D01*
X142599637Y-95437700D01*
X142634569Y-95442721D01*
X142647888Y-95446632D01*
X142706666Y-95484406D01*
X142735692Y-95547961D01*
X142735694Y-95547978D01*
X142735925Y-95549586D01*
X142730364Y-95607779D01*
X142728725Y-95612514D01*
X142718939Y-95633942D01*
X142714095Y-95642334D01*
X142714089Y-95642345D01*
X142702590Y-95662262D01*
X142702590Y-95662263D01*
X142681181Y-95742161D01*
X142681180Y-95742166D01*
X142677000Y-95757763D01*
X142677000Y-98950577D01*
X142671975Y-98985521D01*
X142667570Y-99000519D01*
X142629800Y-99059286D01*
X142620126Y-99067669D01*
X142584413Y-99089312D01*
X142517657Y-99115637D01*
X142397076Y-99207076D01*
X142305642Y-99327650D01*
X142305637Y-99327660D01*
X142294945Y-99354772D01*
X142294945Y-99354775D01*
X142261893Y-99438586D01*
X142244406Y-99469240D01*
X142237462Y-99478165D01*
X142180759Y-99518988D01*
X142110987Y-99522675D01*
X142050298Y-99488055D01*
X142045868Y-99483457D01*
X142019811Y-99442913D01*
X141985053Y-99354772D01*
X141975515Y-99330584D01*
X141974349Y-99327390D01*
X141972032Y-99324107D01*
X141972029Y-99324102D01*
X141969240Y-99320904D01*
X141882922Y-99207076D01*
X141762345Y-99115640D01*
X141762339Y-99115637D01*
X141643355Y-99068715D01*
X141643352Y-99068715D01*
X141622574Y-99060521D01*
X141620613Y-99059728D01*
X141620312Y-99059603D01*
X141614199Y-99059238D01*
X141575926Y-99054642D01*
X141575925Y-99054641D01*
X141548220Y-99051315D01*
X141533102Y-99049500D01*
X141533098Y-99049500D01*
X140921902Y-99049500D01*
X140921898Y-99049500D01*
X140908197Y-99051145D01*
X140869385Y-99055804D01*
X140869386Y-99055805D01*
X140853145Y-99057755D01*
X140817865Y-99056933D01*
X140804191Y-99054641D01*
X140794691Y-99053048D01*
X140743272Y-99031768D01*
X140741411Y-99030443D01*
X140725649Y-99017111D01*
X140599481Y-98890943D01*
X140525335Y-98816797D01*
X140429721Y-98721184D01*
X140408569Y-98692927D01*
X140403150Y-98683002D01*
X140388300Y-98614729D01*
X140412720Y-98549265D01*
X140468655Y-98507396D01*
X140468653Y-98507396D01*
X140475846Y-98504713D01*
X140519171Y-98496899D01*
X140925980Y-98496899D01*
X140926078Y-98496892D01*
X140926833Y-98496798D01*
X140943993Y-98494808D01*
X140949711Y-98494478D01*
X140950325Y-98494378D01*
X140952963Y-98493158D01*
X141053865Y-98448606D01*
X141133306Y-98369165D01*
X141178685Y-98266391D01*
X141181600Y-98241265D01*
X141181599Y-97592736D01*
X141180064Y-97579500D01*
X141178686Y-97567612D01*
X141178685Y-97567608D01*
X141146280Y-97494220D01*
X141136769Y-97460249D01*
X141134737Y-97444736D01*
X141145549Y-97375720D01*
X141148970Y-97368471D01*
X141186793Y-97322137D01*
X141238291Y-97283586D01*
X141324450Y-97168493D01*
X141324454Y-97168486D01*
X141374696Y-97033779D01*
X141374698Y-97033772D01*
X141376169Y-97020089D01*
X141381098Y-96974260D01*
X141381100Y-96974227D01*
X141381100Y-96897000D01*
X139161900Y-96897000D01*
X139161900Y-96974252D01*
X139168300Y-97033770D01*
X139168302Y-97033777D01*
X139210449Y-97146778D01*
X139218545Y-97168486D01*
X139218547Y-97168488D01*
X139218548Y-97168490D01*
X139232194Y-97186720D01*
X139249103Y-97217684D01*
X139253539Y-97229574D01*
X139258530Y-97299265D01*
X139225050Y-97360591D01*
X139168041Y-97393063D01*
X139158713Y-97395445D01*
X139128033Y-97399300D01*
X139108109Y-97399300D01*
X139073173Y-97394277D01*
X139051565Y-97387932D01*
X139001701Y-97359425D01*
X138998756Y-97356665D01*
X138983793Y-97339834D01*
X138956351Y-97302651D01*
X138948626Y-97296950D01*
X138847082Y-97222007D01*
X138847080Y-97222006D01*
X138847079Y-97222005D01*
X138718904Y-97177154D01*
X138718902Y-97177153D01*
X138718900Y-97177153D01*
X138688470Y-97174300D01*
X138688466Y-97174300D01*
X138688464Y-97174300D01*
X137404936Y-97174300D01*
X137404934Y-97174300D01*
X137404930Y-97174300D01*
X137374500Y-97177153D01*
X137374498Y-97177153D01*
X137363042Y-97178228D01*
X137362940Y-97177149D01*
X137357417Y-97178710D01*
X137340533Y-97179570D01*
X137315416Y-97173564D01*
X137315219Y-97173563D01*
X137315108Y-97173491D01*
X137272579Y-97163322D01*
X137224200Y-97112919D01*
X137222097Y-97108873D01*
X137208645Y-97040311D01*
X137208665Y-97040098D01*
X137209258Y-97033777D01*
X137209700Y-97029066D01*
X137209700Y-96811577D01*
X137214722Y-96776644D01*
X137218633Y-96763325D01*
X137224381Y-96754379D01*
X137224866Y-96752154D01*
X137227514Y-96749505D01*
X137256406Y-96704548D01*
X137319958Y-96675523D01*
X137332274Y-96673752D01*
X137335609Y-96673273D01*
X137362982Y-96672393D01*
X137393550Y-96674799D01*
X137393566Y-96674800D01*
X137796700Y-96674800D01*
X137796700Y-96124800D01*
X138296700Y-96124800D01*
X138296700Y-96674800D01*
X138699829Y-96674800D01*
X138699834Y-96674800D01*
X138699849Y-96674799D01*
X138736689Y-96671900D01*
X138736695Y-96671899D01*
X138894393Y-96626083D01*
X138894396Y-96626082D01*
X139002700Y-96562030D01*
X139019125Y-96557537D01*
X139031900Y-96544763D01*
X139031900Y-96538829D01*
X139036923Y-96503893D01*
X139041327Y-96488895D01*
X139079072Y-96430144D01*
X139080441Y-96428957D01*
X139135320Y-96401477D01*
X139142879Y-96399833D01*
X139169232Y-96397000D01*
X140021500Y-96397000D01*
X140521500Y-96397000D01*
X141381100Y-96397000D01*
X141381100Y-96319772D01*
X141381099Y-96319755D01*
X141381098Y-96319738D01*
X141374698Y-96260228D01*
X141374696Y-96260221D01*
X141374696Y-96260220D01*
X141324454Y-96125513D01*
X141324450Y-96125506D01*
X141250158Y-96026265D01*
X141238291Y-96010413D01*
X141238285Y-96010407D01*
X141153663Y-95947059D01*
X141123193Y-95924249D01*
X141123188Y-95924246D01*
X141123189Y-95924246D01*
X140988477Y-95874002D01*
X140988470Y-95874000D01*
X140928952Y-95867600D01*
X140928944Y-95867600D01*
X140521500Y-95867600D01*
X140521500Y-96397000D01*
X140021500Y-96397000D01*
X140021500Y-95867600D01*
X139614055Y-95867600D01*
X139614046Y-95867600D01*
X139554528Y-95874000D01*
X139554521Y-95874002D01*
X139419807Y-95924247D01*
X139414200Y-95928444D01*
X139414200Y-95982970D01*
X139409175Y-96017914D01*
X139404770Y-96032912D01*
X139367027Y-96091655D01*
X139365658Y-96092842D01*
X139310797Y-96120318D01*
X139303239Y-96121963D01*
X139276868Y-96124800D01*
X138296700Y-96124800D01*
X137796700Y-96124800D01*
X136811903Y-96124800D01*
X136799112Y-96138635D01*
X136791399Y-96153577D01*
X136787127Y-96151371D01*
X136769269Y-96184541D01*
X136712160Y-96217418D01*
X136711102Y-96217692D01*
X136645075Y-96216628D01*
X136639092Y-96214871D01*
X136580344Y-96177127D01*
X136579157Y-96175758D01*
X136551677Y-96120883D01*
X136550032Y-96113321D01*
X136547200Y-96086968D01*
X136547200Y-95463028D01*
X136552223Y-95428093D01*
X136559635Y-95402850D01*
X136590929Y-95350106D01*
X136703395Y-95237640D01*
X136731650Y-95216490D01*
X136737009Y-95213564D01*
X136805282Y-95198714D01*
X136870746Y-95223133D01*
X136912615Y-95279068D01*
X136917599Y-95348752D01*
X136916714Y-95352821D01*
X136902280Y-95389587D01*
X136857918Y-95464599D01*
X136857917Y-95464603D01*
X136812100Y-95622305D01*
X136812098Y-95622319D01*
X136811903Y-95624796D01*
X136811904Y-95624799D01*
X136811905Y-95624800D01*
X137796700Y-95624800D01*
X138296700Y-95624800D01*
X139281495Y-95624800D01*
X139281495Y-95624796D01*
X139281494Y-95624795D01*
X139281300Y-95622313D01*
X139235481Y-95464601D01*
X139151885Y-95323247D01*
X139151878Y-95323238D01*
X139035761Y-95207121D01*
X139035752Y-95207114D01*
X139035751Y-95207113D01*
X139035746Y-95207110D01*
X138894399Y-95123518D01*
X138894396Y-95123517D01*
X138894365Y-95123507D01*
X138736705Y-95077702D01*
X138736701Y-95077701D01*
X138736695Y-95077700D01*
X138736689Y-95077699D01*
X138726163Y-95076870D01*
X138699854Y-95074800D01*
X138699849Y-95074800D01*
X138296700Y-95074800D01*
X138296700Y-95624800D01*
X137796700Y-95624800D01*
X137796700Y-95074800D01*
X137393544Y-95074800D01*
X137361972Y-95077284D01*
X137356710Y-95077699D01*
X137356704Y-95077700D01*
X137356697Y-95077701D01*
X137356693Y-95077702D01*
X137199011Y-95123513D01*
X137199005Y-95123516D01*
X137199001Y-95123517D01*
X137125584Y-95166936D01*
X137092954Y-95180396D01*
X137087033Y-95181898D01*
X137017211Y-95179302D01*
X136959877Y-95139369D01*
X136933234Y-95074779D01*
X136945740Y-95006041D01*
X136947616Y-95002307D01*
X136970728Y-94970307D01*
X137079413Y-94861622D01*
X137107668Y-94840472D01*
X137130756Y-94827866D01*
X137190179Y-94812700D01*
X141642831Y-94812700D01*
X141677767Y-94817723D01*
G37*
%TD.AperFunction*%
%TA.AperFunction,Conductor*%
G36*
X151607372Y-93430523D02*
G01*
X151620439Y-93434360D01*
X151679217Y-93472135D01*
X151708241Y-93535692D01*
X151701298Y-93597694D01*
X151698343Y-93605408D01*
X151685650Y-93629942D01*
X151616664Y-93733185D01*
X151616659Y-93733195D01*
X151542376Y-93912529D01*
X151542369Y-93912549D01*
X151542367Y-93912557D01*
X151504500Y-94102929D01*
X151504500Y-94252696D01*
X151499237Y-94270616D01*
X151542368Y-94487442D01*
X151542369Y-94487448D01*
X151542376Y-94487469D01*
X151579061Y-94576033D01*
X151616661Y-94666807D01*
X151715958Y-94815417D01*
X151736835Y-94882094D01*
X151718350Y-94949474D01*
X151666371Y-94996164D01*
X151612954Y-95008307D01*
X145359599Y-95013295D01*
X145292544Y-94993664D01*
X145246747Y-94940896D01*
X145235500Y-94889295D01*
X145235500Y-94224428D01*
X145240522Y-94189495D01*
X145246581Y-94168860D01*
X145247934Y-94164250D01*
X145279228Y-94111508D01*
X145916313Y-93474423D01*
X145944563Y-93453275D01*
X145964873Y-93442185D01*
X145967655Y-93440667D01*
X146027080Y-93425500D01*
X151572436Y-93425500D01*
X151607372Y-93430523D01*
G37*
%TD.AperFunction*%
%TD*%
M02*
