%TF.GenerationSoftware,KiCad,Pcbnew,10.0.5*%
%TF.CreationDate,2026-09-07T22:56:28-04:00*%
%TF.ProjectId,BSPD 27,42535044-2032-4372-9e6b-696361645f70,rev?*%
%TF.SameCoordinates,Original*%
%TF.FileFunction,Paste,Top*%
%TF.FilePolarity,Positive*%
%FSLAX46Y46*%
G04 Gerber Fmt 4.6, Leading zero omitted, Abs format (unit mm)*
G04 Created by KiCad (PCBNEW 10.0.5) date 2026-09-07 22:56:28*
%MOMM*%
%LPD*%
G01*
G04 APERTURE LIST*
G04 Aperture macros list*
%AMRoundRect*
0 Rectangle with rounded corners*
0 $1 Rounding radius*
0 $2 $3 $4 $5 $6 $7 $8 $9 X,Y pos of 4 corners*
0 Add a 4 corners polygon primitive as box body*
4,1,4,$2,$3,$4,$5,$6,$7,$8,$9,$2,$3,0*
0 Add four circle primitives for the rounded corners*
1,1,$1+$1,$2,$3*
1,1,$1+$1,$4,$5*
1,1,$1+$1,$6,$7*
1,1,$1+$1,$8,$9*
0 Add four rect primitives between the rounded corners*
20,1,$1+$1,$2,$3,$4,$5,0*
20,1,$1+$1,$4,$5,$6,$7,0*
20,1,$1+$1,$6,$7,$8,$9,0*
20,1,$1+$1,$8,$9,$2,$3,0*%
G04 Aperture macros list end*
%ADD10R,1.300000X1.600000*%
%ADD11R,2.000000X1.600000*%
%ADD12RoundRect,0.087500X0.087500X-0.425000X0.087500X0.425000X-0.087500X0.425000X-0.087500X-0.425000X0*%
%ADD13RoundRect,0.225000X0.225000X0.250000X-0.225000X0.250000X-0.225000X-0.250000X0.225000X-0.250000X0*%
%ADD14RoundRect,0.250000X-0.262500X-0.450000X0.262500X-0.450000X0.262500X0.450000X-0.262500X0.450000X0*%
%ADD15R,1.400000X0.450000*%
%ADD16RoundRect,0.250000X0.262500X0.450000X-0.262500X0.450000X-0.262500X-0.450000X0.262500X-0.450000X0*%
%ADD17RoundRect,0.250000X-0.450000X0.262500X-0.450000X-0.262500X0.450000X-0.262500X0.450000X0.262500X0*%
%ADD18RoundRect,0.087500X0.425000X0.087500X-0.425000X0.087500X-0.425000X-0.087500X0.425000X-0.087500X0*%
%ADD19R,1.219200X0.558800*%
%ADD20RoundRect,0.150000X0.587500X0.150000X-0.587500X0.150000X-0.587500X-0.150000X0.587500X-0.150000X0*%
G04 APERTURE END LIST*
D10*
%TO.C,RV2*%
X140400400Y-109321400D03*
D11*
X141650400Y-106421400D03*
D10*
X142900400Y-109321400D03*
%TD*%
D12*
%TO.C,U7*%
X152895933Y-101573900D03*
X153545933Y-101573900D03*
X154195933Y-101573900D03*
X154195933Y-99898900D03*
X152895933Y-99898900D03*
%TD*%
D13*
%TO.C,C3*%
X157325000Y-103154600D03*
X155775000Y-103154600D03*
%TD*%
D10*
%TO.C,RV1*%
X166197600Y-94742200D03*
D11*
X164947600Y-97642200D03*
D10*
X163697600Y-94742200D03*
%TD*%
D14*
%TO.C,R1*%
X168627500Y-109060000D03*
X170452500Y-109060000D03*
%TD*%
D15*
%TO.C,U2*%
X146933200Y-104770400D03*
X146933200Y-105420400D03*
X146933200Y-106070400D03*
X146933200Y-106720400D03*
X151333200Y-106720400D03*
X151333200Y-106070400D03*
X151333200Y-105420400D03*
X151333200Y-104770400D03*
%TD*%
D12*
%TO.C,U10*%
X155870667Y-101421500D03*
X156520667Y-101421500D03*
X157170667Y-101421500D03*
X157170667Y-99746500D03*
X155870667Y-99746500D03*
%TD*%
D16*
%TO.C,R7*%
X159232500Y-96910000D03*
X157407500Y-96910000D03*
%TD*%
%TO.C,R3*%
X143052500Y-100050000D03*
X141227500Y-100050000D03*
%TD*%
D17*
%TO.C,R8*%
X162915600Y-109780700D03*
X162915600Y-111605700D03*
%TD*%
D18*
%TO.C,U4*%
X154507500Y-97895000D03*
X154507500Y-97245000D03*
X154507500Y-96595000D03*
X152832500Y-96595000D03*
X152832500Y-97245000D03*
X152832500Y-97895000D03*
%TD*%
D16*
%TO.C,R4*%
X144422500Y-94437200D03*
X142597500Y-94437200D03*
%TD*%
D13*
%TO.C,C1*%
X164741800Y-103154600D03*
X163191800Y-103154600D03*
%TD*%
D15*
%TO.C,U1*%
X161766800Y-104770400D03*
X161766800Y-105420400D03*
X161766800Y-106070400D03*
X161766800Y-106720400D03*
X166166800Y-106720400D03*
X166166800Y-106070400D03*
X166166800Y-105420400D03*
X166166800Y-104770400D03*
%TD*%
D17*
%TO.C,R10*%
X160477200Y-109780700D03*
X160477200Y-111605700D03*
%TD*%
D13*
%TO.C,C2*%
X149908200Y-103154600D03*
X148358200Y-103154600D03*
%TD*%
D15*
%TO.C,U3*%
X154350000Y-104770400D03*
X154350000Y-105420400D03*
X154350000Y-106070400D03*
X154350000Y-106720400D03*
X158750000Y-106720400D03*
X158750000Y-106070400D03*
X158750000Y-105420400D03*
X158750000Y-104770400D03*
%TD*%
D12*
%TO.C,U9*%
X158845400Y-101421500D03*
X159495400Y-101421500D03*
X160145400Y-101421500D03*
X160145400Y-99746500D03*
X158845400Y-99746500D03*
%TD*%
%TO.C,U8*%
X149921200Y-101573900D03*
X150571200Y-101573900D03*
X151221200Y-101573900D03*
X151221200Y-99898900D03*
X149921200Y-99898900D03*
%TD*%
D19*
%TO.C,U5*%
X146951700Y-97917000D03*
X146951700Y-96647000D03*
X140271500Y-96647000D03*
X140271500Y-97917000D03*
%TD*%
D17*
%TO.C,R9*%
X147015200Y-109831500D03*
X147015200Y-111656500D03*
%TD*%
D20*
%TO.C,Q1*%
X138046700Y-97774800D03*
X138046700Y-95874800D03*
X136171700Y-96824800D03*
%TD*%
D14*
%TO.C,R2*%
X166887500Y-111020000D03*
X168712500Y-111020000D03*
%TD*%
D18*
%TO.C,U6*%
X150849900Y-97881200D03*
X150849900Y-97231200D03*
X150849900Y-96581200D03*
X149174900Y-96581200D03*
X149174900Y-97881200D03*
%TD*%
M02*
