%TF.GenerationSoftware,KiCad,Pcbnew,10.0.5*%
%TF.CreationDate,2026-09-07T22:51:22-04:00*%
%TF.ProjectId,BSPD 27,42535044-2032-4372-9e6b-696361645f70,rev?*%
%TF.SameCoordinates,Original*%
%TF.FileFunction,Copper,L2,Bot*%
%TF.FilePolarity,Positive*%
%FSLAX46Y46*%
G04 Gerber Fmt 4.6, Leading zero omitted, Abs format (unit mm)*
G04 Created by KiCad (PCBNEW 10.0.5) date 2026-09-07 22:51:22*
%MOMM*%
%LPD*%
G01*
G04 APERTURE LIST*
G04 Aperture macros list*
%AMRoundRect*
0 Rectangle with rounded corners*
0 $1 Rounding radius*
0 $2 $3 $4 $5 $6 $7 $8 $9 X,Y pos of 4 corners*
0 Add a 4 corners polygon primitive as box body*
4,1,4,$2,$3,$4,$5,$6,$7,$8,$9,$2,$3,0*
0 Add four circle primitives for the rounded corners*
1,1,$1+$1,$2,$3*
1,1,$1+$1,$4,$5*
1,1,$1+$1,$6,$7*
1,1,$1+$1,$8,$9*
0 Add four rect primitives between the rounded corners*
20,1,$1+$1,$2,$3,$4,$5,0*
20,1,$1+$1,$4,$5,$6,$7,0*
20,1,$1+$1,$6,$7,$8,$9,0*
20,1,$1+$1,$8,$9,$2,$3,0*%
G04 Aperture macros list end*
%TA.AperFunction,ComponentPad*%
%ADD10C,5.600000*%
%TD*%
%TA.AperFunction,SMDPad,CuDef*%
%ADD11RoundRect,0.225000X0.250000X-0.225000X0.250000X0.225000X-0.250000X0.225000X-0.250000X-0.225000X0*%
%TD*%
%TA.AperFunction,SMDPad,CuDef*%
%ADD12RoundRect,0.250000X0.475000X-0.250000X0.475000X0.250000X-0.475000X0.250000X-0.475000X-0.250000X0*%
%TD*%
%TA.AperFunction,SMDPad,CuDef*%
%ADD13RoundRect,0.250000X0.450000X-0.262500X0.450000X0.262500X-0.450000X0.262500X-0.450000X-0.262500X0*%
%TD*%
%TA.AperFunction,ComponentPad*%
%ADD14R,1.370000X1.370000*%
%TD*%
%TA.AperFunction,ComponentPad*%
%ADD15C,1.370000*%
%TD*%
%TA.AperFunction,SMDPad,CuDef*%
%ADD16RoundRect,0.250000X0.262500X0.450000X-0.262500X0.450000X-0.262500X-0.450000X0.262500X-0.450000X0*%
%TD*%
%TA.AperFunction,SMDPad,CuDef*%
%ADD17RoundRect,0.225000X-0.250000X0.225000X-0.250000X-0.225000X0.250000X-0.225000X0.250000X0.225000X0*%
%TD*%
%TA.AperFunction,ViaPad*%
%ADD18C,0.600000*%
%TD*%
%TA.AperFunction,Conductor*%
%ADD19C,0.200000*%
%TD*%
%TA.AperFunction,Conductor*%
%ADD20C,0.150000*%
%TD*%
G04 APERTURE END LIST*
D10*
%TO.P,H1,1*%
%TO.N,N/C*%
X135550000Y-102565000D03*
%TD*%
%TO.P,H2,1*%
%TO.N,N/C*%
X170490000Y-102565000D03*
%TD*%
D11*
%TO.P,C9,1*%
%TO.N,GND*%
X148691600Y-101511400D03*
%TO.P,C9,2*%
%TO.N,+5V*%
X148691600Y-99961400D03*
%TD*%
D12*
%TO.P,C6,1*%
%TO.N,Net-(C6-Pad1)*%
X157800000Y-98450000D03*
%TO.P,C6,2*%
%TO.N,GND*%
X157800000Y-96550000D03*
%TD*%
D13*
%TO.P,R5,1*%
%TO.N,/DISCONNECT_HOLD*%
X155143200Y-100683700D03*
%TO.P,R5,2*%
%TO.N,Net-(C6-Pad1)*%
X155143200Y-98858700D03*
%TD*%
D14*
%TO.P,J2,1,Pin_1_1*%
%TO.N,GND*%
X149961600Y-110642400D03*
D15*
%TO.P,J2,2,Pin_2_2*%
%TO.N,/BSE_1*%
X152501600Y-110642400D03*
%TO.P,J2,3,Pin_3_3*%
%TO.N,/BSE_2*%
X155041600Y-110642400D03*
%TO.P,J2,4,Pin_4_4*%
%TO.N,/ACCUM_V*%
X157581600Y-110642400D03*
%TD*%
D11*
%TO.P,C8,1*%
%TO.N,GND*%
X152095200Y-101816200D03*
%TO.P,C8,2*%
%TO.N,+5V*%
X152095200Y-100266200D03*
%TD*%
D12*
%TO.P,C7,1*%
%TO.N,Net-(C7-Pad1)*%
X160200000Y-98110000D03*
%TO.P,C7,2*%
%TO.N,GND*%
X160200000Y-96210000D03*
%TD*%
D16*
%TO.P,R6,1*%
%TO.N,+5V*%
X147122500Y-100030000D03*
%TO.P,R6,2*%
%TO.N,Net-(R6-Pad2)*%
X145297500Y-100030000D03*
%TD*%
D17*
%TO.P,C5,1*%
%TO.N,GND*%
X148437600Y-96507000D03*
%TO.P,C5,2*%
%TO.N,+5V*%
X148437600Y-98057000D03*
%TD*%
D11*
%TO.P,C10,1*%
%TO.N,GND*%
X160172400Y-101460600D03*
%TO.P,C10,2*%
%TO.N,+5V*%
X160172400Y-99910600D03*
%TD*%
%TO.P,C4,1*%
%TO.N,GND*%
X151993600Y-98057000D03*
%TO.P,C4,2*%
%TO.N,+5V*%
X151993600Y-96507000D03*
%TD*%
%TO.P,C11,1*%
%TO.N,GND*%
X157835600Y-101816200D03*
%TO.P,C11,2*%
%TO.N,+5V*%
X157835600Y-100266200D03*
%TD*%
D14*
%TO.P,J1,1,Pin_1_1*%
%TO.N,GNDPWR*%
X149950000Y-94200000D03*
D15*
%TO.P,J1,2,Pin_2_2*%
%TO.N,BSPD_OUT*%
X152490000Y-94200000D03*
%TO.P,J1,3,Pin_3_3*%
%TO.N,+12V*%
X155030000Y-94200000D03*
%TO.P,J1,4,Pin_4_4*%
%TO.N,+5V*%
X157570000Y-94200000D03*
%TD*%
D18*
%TO.N,+5V*%
X162790000Y-99060000D03*
X158000320Y-99649680D03*
X150940000Y-103370000D03*
X149290000Y-106310000D03*
X153520933Y-99860000D03*
X149440000Y-98970000D03*
X153670774Y-96038018D03*
X156495667Y-99710000D03*
X156266428Y-104650001D03*
X156531473Y-106480000D03*
X147860000Y-107880000D03*
X157346387Y-104103613D03*
%TO.N,/THRESH_BSE*%
X150069265Y-105657935D03*
X144272000Y-106426000D03*
X157640000Y-106100000D03*
%TO.N,GND*%
X160560000Y-106690000D03*
X141800000Y-111610000D03*
X167710000Y-98980000D03*
X150510000Y-108760000D03*
X154350000Y-107600000D03*
X138610000Y-108080000D03*
X167210000Y-109430000D03*
X161810000Y-94270000D03*
X150620000Y-98700000D03*
X162570000Y-100620000D03*
X159240000Y-107890000D03*
X163450000Y-101060000D03*
X144670000Y-95940000D03*
X146980000Y-103200000D03*
X152090000Y-99130000D03*
X152110000Y-102700000D03*
X150300000Y-95670000D03*
X158590000Y-102850000D03*
X170120000Y-110800000D03*
X150594500Y-100561401D03*
X163360000Y-98180000D03*
X133200000Y-107470000D03*
X161940000Y-95120000D03*
X168170000Y-93790000D03*
X136830000Y-109810000D03*
X159810000Y-94270000D03*
X152650000Y-108960000D03*
X171420000Y-106850000D03*
X172640000Y-97410000D03*
X144910000Y-103250000D03*
X137980000Y-111600000D03*
X165600000Y-110980000D03*
X161640000Y-108620000D03*
X150410000Y-107900000D03*
X145690000Y-95980000D03*
X161900000Y-103210000D03*
X139260000Y-102910000D03*
X144690000Y-108670000D03*
X166390000Y-100700000D03*
X149190000Y-108090000D03*
X134000000Y-108510000D03*
X154970000Y-102868473D03*
X161080000Y-102610000D03*
X145360000Y-110050000D03*
X162200000Y-96370000D03*
X169870000Y-93960000D03*
X153470933Y-102620000D03*
X155930000Y-95840000D03*
X172980000Y-106520000D03*
X156000000Y-108250000D03*
X138850000Y-105160000D03*
X144770000Y-96910000D03*
X144040000Y-111520000D03*
X168000000Y-95390000D03*
X167370000Y-96190000D03*
X146840000Y-101480000D03*
X152820000Y-107350000D03*
X155560000Y-104220000D03*
X169990000Y-106260000D03*
X159010000Y-108640000D03*
X147120000Y-95690000D03*
X144610000Y-101830000D03*
X134980000Y-110740000D03*
X159030000Y-95040000D03*
X155625000Y-97275000D03*
X141020000Y-103540000D03*
X169700000Y-95080000D03*
X159920000Y-103450000D03*
X166370000Y-102650000D03*
X164620000Y-111570000D03*
X158070000Y-109050000D03*
X148570000Y-108750000D03*
X161380000Y-101460000D03*
X134140000Y-106100000D03*
X142620000Y-104530000D03*
X154620000Y-108720000D03*
%TO.N,Net-(U1-Pad1)*%
X153043066Y-103443473D03*
X160908413Y-104251587D03*
%TO.N,/DISCONNECT_HOLD*%
X154963929Y-99871200D03*
%TO.N,/THRESH_ACCUM*%
X164439600Y-105867200D03*
X164998400Y-99060000D03*
X169950000Y-97400000D03*
%TO.N,/0.385V*%
X155467846Y-105270000D03*
X163118800Y-105460800D03*
X165630000Y-109950000D03*
X148336000Y-105057935D03*
%TO.N,Net-(C7-Pad1)*%
X156540000Y-97590000D03*
%TO.N,/ACCUM_V*%
X167770000Y-106940000D03*
X164950000Y-108710000D03*
%TO.N,Net-(C6-Pad1)*%
X153880000Y-98480000D03*
%TO.N,BSPD_OUT*%
X143984700Y-93050000D03*
%TO.N,Net-(U1-Pad7)*%
X159412266Y-102434000D03*
X163576000Y-104394000D03*
%TO.N,Net-(U3-Pad1)*%
X152510000Y-104040000D03*
X154200000Y-104457935D03*
%TO.N,Net-(R6-Pad2)*%
X145590000Y-98180000D03*
%TO.N,GNDPWR*%
X139670000Y-101380000D03*
X138880000Y-99300000D03*
X142080000Y-98250000D03*
X139700000Y-95280000D03*
X141960000Y-96060000D03*
X135270000Y-97980000D03*
X135530000Y-94010000D03*
X133370000Y-97600000D03*
X140870000Y-93190000D03*
X134160000Y-96340000D03*
X137770000Y-93720000D03*
%TD*%
%TO.N,+5V*%
D19*
X156288272Y-106540000D02*
X149520000Y-106540000D01*
X148437600Y-98057000D02*
X150443600Y-98057000D01*
X157835600Y-100266200D02*
X156381800Y-101720000D01*
X156531473Y-106480000D02*
X156348272Y-106480000D01*
X157921800Y-100180000D02*
X157835600Y-100266200D01*
X156920000Y-104530000D02*
X157346387Y-104103613D01*
X150940000Y-102520000D02*
X150940000Y-103370000D01*
X148691600Y-99961400D02*
X148691600Y-99718400D01*
X151993600Y-96507000D02*
X153201792Y-96507000D01*
X150443600Y-98057000D02*
X151993600Y-96507000D01*
X152095200Y-100266200D02*
X153114733Y-100266200D01*
X156266428Y-104650001D02*
X156386429Y-104530000D01*
X159903000Y-100180000D02*
X157921800Y-100180000D01*
X160172400Y-99910600D02*
X159903000Y-100180000D01*
X148691600Y-100271600D02*
X150940000Y-102520000D01*
X156348272Y-106480000D02*
X156288272Y-106540000D01*
X149440000Y-98970000D02*
X149350600Y-98970000D01*
X147860000Y-107880000D02*
X147860000Y-107740000D01*
X149350600Y-98970000D02*
X148437600Y-98057000D01*
X151629000Y-99800000D02*
X148853000Y-99800000D01*
X149520000Y-106540000D02*
X149290000Y-106310000D01*
X156386429Y-104530000D02*
X156920000Y-104530000D01*
X158000320Y-100101480D02*
X157835600Y-100266200D01*
X148691600Y-99718400D02*
X149440000Y-98970000D01*
X157051867Y-100266200D02*
X156495667Y-99710000D01*
X153201792Y-96507000D02*
X153670774Y-96038018D01*
X148853000Y-99800000D02*
X148691600Y-99961400D01*
X162790000Y-99060000D02*
X162747000Y-99103000D01*
X148437600Y-98057000D02*
X148437600Y-98714900D01*
X156381800Y-101720000D02*
X153549000Y-101720000D01*
X153114733Y-100266200D02*
X153520933Y-99860000D01*
X148691600Y-99961400D02*
X148691600Y-100271600D01*
X160980000Y-99103000D02*
X160172400Y-99910600D01*
X158000320Y-99649680D02*
X158000320Y-100101480D01*
X162747000Y-99103000D02*
X160980000Y-99103000D01*
X157835600Y-100266200D02*
X157051867Y-100266200D01*
X147860000Y-107740000D02*
X149290000Y-106310000D01*
X148437600Y-98714900D02*
X147122500Y-100030000D01*
X152095200Y-100266200D02*
X151629000Y-99800000D01*
X153549000Y-101720000D02*
X152095200Y-100266200D01*
%TO.N,/THRESH_BSE*%
X156770000Y-105870000D02*
X150281330Y-105870000D01*
X157000000Y-106100000D02*
X156770000Y-105870000D01*
X150281330Y-105870000D02*
X150069265Y-105657935D01*
X157640000Y-106100000D02*
X157000000Y-106100000D01*
X145040065Y-105657935D02*
X150069265Y-105657935D01*
X144272000Y-106426000D02*
X145040065Y-105657935D01*
%TO.N,Net-(U1-Pad1)*%
D20*
X159691587Y-104251587D02*
X160908413Y-104251587D01*
X158883473Y-103443473D02*
X159691587Y-104251587D01*
X153043066Y-103443473D02*
X158883473Y-103443473D01*
%TO.N,/DISCONNECT_HOLD*%
X155110000Y-100017271D02*
X155110000Y-100650500D01*
X155110000Y-100650500D02*
X155143200Y-100683700D01*
X154963929Y-99871200D02*
X155110000Y-100017271D01*
%TO.N,/THRESH_ACCUM*%
X166658400Y-97400000D02*
X164998400Y-99060000D01*
D19*
X164998400Y-99060000D02*
X164998400Y-105308400D01*
X164998400Y-105308400D02*
X164439600Y-105867200D01*
D20*
X169950000Y-97400000D02*
X166658400Y-97400000D01*
%TO.N,/0.385V*%
D19*
X163118800Y-108068800D02*
X163118800Y-105460800D01*
X165000000Y-109950000D02*
X163118800Y-108068800D01*
X155255781Y-105057935D02*
X148336000Y-105057935D01*
X155487846Y-105250000D02*
X162908000Y-105250000D01*
X165630000Y-109950000D02*
X165000000Y-109950000D01*
X155467846Y-105270000D02*
X155487846Y-105250000D01*
X162908000Y-105250000D02*
X163118800Y-105460800D01*
X155467846Y-105270000D02*
X155255781Y-105057935D01*
%TO.N,Net-(C7-Pad1)*%
D20*
X156540000Y-97590000D02*
X159680000Y-97590000D01*
X159680000Y-97590000D02*
X160200000Y-98110000D01*
%TO.N,/ACCUM_V*%
D19*
X166000000Y-108710000D02*
X167770000Y-106940000D01*
X164950000Y-108710000D02*
X166000000Y-108710000D01*
%TO.N,Net-(C6-Pad1)*%
D20*
X154258700Y-98858700D02*
X153880000Y-98480000D01*
X157060600Y-98755200D02*
X155246700Y-98755200D01*
X155143200Y-98858700D02*
X154258700Y-98858700D01*
X155246700Y-98755200D02*
X155143200Y-98858700D01*
%TO.N,BSPD_OUT*%
X144374700Y-93440000D02*
X143984700Y-93050000D01*
X149000000Y-92815000D02*
X148375000Y-93440000D01*
X151105000Y-92815000D02*
X149000000Y-92815000D01*
X152490000Y-94200000D02*
X151105000Y-92815000D01*
X148375000Y-93440000D02*
X144374700Y-93440000D01*
%TO.N,Net-(U1-Pad7)*%
X159904000Y-102434000D02*
X159412266Y-102434000D01*
X163576000Y-104394000D02*
X161864000Y-104394000D01*
X161864000Y-104394000D02*
X159904000Y-102434000D01*
%TO.N,Net-(U3-Pad1)*%
X153954530Y-104212465D02*
X154200000Y-104457935D01*
X152682465Y-104212465D02*
X153954530Y-104212465D01*
X152510000Y-104040000D02*
X152682465Y-104212465D01*
%TO.N,Net-(R6-Pad2)*%
X145297500Y-100030000D02*
X145297500Y-98472500D01*
X145297500Y-98472500D02*
X145590000Y-98180000D01*
%TD*%
%TA.AperFunction,Conductor*%
%TO.N,GND*%
G36*
X156771574Y-103788658D02*
G01*
X156817329Y-103841462D01*
X156827273Y-103910620D01*
X156824313Y-103925050D01*
X156795887Y-104031138D01*
X156795887Y-104031140D01*
X156795887Y-104055500D01*
X156776202Y-104122539D01*
X156723398Y-104168294D01*
X156671887Y-104179500D01*
X156585721Y-104179500D01*
X156523721Y-104162887D01*
X156478913Y-104137017D01*
X156338903Y-104099501D01*
X156193953Y-104099501D01*
X156065421Y-104133941D01*
X156053939Y-104137018D01*
X155928416Y-104209489D01*
X155928410Y-104209494D01*
X155825921Y-104311983D01*
X155825916Y-104311989D01*
X155753445Y-104437512D01*
X155753444Y-104437516D01*
X155715928Y-104577526D01*
X155715928Y-104577528D01*
X155715928Y-104604954D01*
X155696243Y-104671993D01*
X155643439Y-104717748D01*
X155574281Y-104727692D01*
X155559837Y-104724729D01*
X155540321Y-104719500D01*
X155395371Y-104719500D01*
X155395367Y-104719500D01*
X155387349Y-104720555D01*
X155339083Y-104717391D01*
X155301925Y-104707435D01*
X155301921Y-104707435D01*
X154864666Y-104707435D01*
X154797627Y-104687750D01*
X154751872Y-104634946D01*
X154741928Y-104565788D01*
X154744891Y-104551342D01*
X154746603Y-104544952D01*
X154750500Y-104530410D01*
X154750500Y-104385460D01*
X154712984Y-104245450D01*
X154662743Y-104158431D01*
X154640511Y-104119923D01*
X154640506Y-104119917D01*
X154538017Y-104017428D01*
X154538015Y-104017426D01*
X154508456Y-104000360D01*
X154460240Y-103949793D01*
X154447018Y-103881186D01*
X154472986Y-103816321D01*
X154529900Y-103775793D01*
X154570456Y-103768973D01*
X156704535Y-103768973D01*
X156771574Y-103788658D01*
G37*
%TD.AperFunction*%
%TA.AperFunction,Conductor*%
G36*
X168552562Y-92740605D02*
G01*
X168999036Y-92759072D01*
X169009209Y-92759915D01*
X169450114Y-92814873D01*
X169460194Y-92816555D01*
X169895043Y-92907733D01*
X169904951Y-92910242D01*
X170330786Y-93037019D01*
X170340454Y-93040338D01*
X170597146Y-93140500D01*
X170754349Y-93201841D01*
X170763734Y-93205958D01*
X171162854Y-93401076D01*
X171171868Y-93405953D01*
X171553545Y-93633383D01*
X171562124Y-93638989D01*
X171608338Y-93671985D01*
X171923693Y-93897143D01*
X171931770Y-93903430D01*
X172114288Y-94058015D01*
X172270796Y-94190571D01*
X172278336Y-94197512D01*
X172592487Y-94511663D01*
X172599428Y-94519203D01*
X172809315Y-94767016D01*
X172886565Y-94858224D01*
X172892860Y-94866312D01*
X173151010Y-95227875D01*
X173156616Y-95236454D01*
X173384046Y-95618131D01*
X173388923Y-95627145D01*
X173584041Y-96026265D01*
X173588158Y-96035650D01*
X173749656Y-96449533D01*
X173752984Y-96459226D01*
X173879753Y-96885035D01*
X173882269Y-96894970D01*
X173973441Y-97329791D01*
X173975128Y-97339900D01*
X174030082Y-97780769D01*
X174030928Y-97790983D01*
X174049394Y-98237437D01*
X174049500Y-98242561D01*
X174049500Y-106887438D01*
X174049394Y-106892562D01*
X174030928Y-107339016D01*
X174030082Y-107349230D01*
X173975128Y-107790099D01*
X173973441Y-107800208D01*
X173882269Y-108235029D01*
X173879753Y-108244964D01*
X173752984Y-108670773D01*
X173749656Y-108680466D01*
X173588158Y-109094349D01*
X173584041Y-109103734D01*
X173388923Y-109502854D01*
X173384046Y-109511868D01*
X173156616Y-109893545D01*
X173151010Y-109902124D01*
X172892860Y-110263687D01*
X172886565Y-110271775D01*
X172599428Y-110610796D01*
X172592487Y-110618336D01*
X172278336Y-110932487D01*
X172270796Y-110939428D01*
X171931775Y-111226565D01*
X171923687Y-111232860D01*
X171562124Y-111491010D01*
X171553545Y-111496616D01*
X171171868Y-111724046D01*
X171162854Y-111728923D01*
X170763734Y-111924041D01*
X170754349Y-111928158D01*
X170340466Y-112089656D01*
X170330773Y-112092984D01*
X169904964Y-112219753D01*
X169895029Y-112222269D01*
X169460208Y-112313441D01*
X169450099Y-112315128D01*
X169009230Y-112370082D01*
X168999016Y-112370928D01*
X168552563Y-112389394D01*
X168547439Y-112389500D01*
X137492561Y-112389500D01*
X137487437Y-112389394D01*
X137040983Y-112370928D01*
X137030769Y-112370082D01*
X136589900Y-112315128D01*
X136579791Y-112313441D01*
X136144970Y-112222269D01*
X136135035Y-112219753D01*
X135709226Y-112092984D01*
X135699533Y-112089656D01*
X135285650Y-111928158D01*
X135276265Y-111924041D01*
X134877145Y-111728923D01*
X134868131Y-111724046D01*
X134486454Y-111496616D01*
X134477875Y-111491010D01*
X134124556Y-111238746D01*
X134116310Y-111232858D01*
X134108224Y-111226565D01*
X133769203Y-110939428D01*
X133761663Y-110932487D01*
X133447512Y-110618336D01*
X133440571Y-110610796D01*
X133300612Y-110445547D01*
X133153430Y-110271770D01*
X133147139Y-110263687D01*
X133101151Y-110199277D01*
X132896472Y-109912605D01*
X148976600Y-109912605D01*
X148976600Y-110392400D01*
X149517040Y-110392400D01*
X149486355Y-110445547D01*
X149451600Y-110575257D01*
X149451600Y-110709543D01*
X149486355Y-110839253D01*
X149517040Y-110892400D01*
X148976601Y-110892400D01*
X148976601Y-111372185D01*
X148976602Y-111372208D01*
X148979508Y-111397269D01*
X148979509Y-111397273D01*
X149024811Y-111499874D01*
X149024814Y-111499879D01*
X149104120Y-111579185D01*
X149104125Y-111579188D01*
X149206723Y-111624489D01*
X149231806Y-111627399D01*
X149711599Y-111627399D01*
X149711600Y-111627398D01*
X149711600Y-111086960D01*
X149764747Y-111117645D01*
X149894457Y-111152400D01*
X150028743Y-111152400D01*
X150158453Y-111117645D01*
X150211600Y-111086960D01*
X150211600Y-111627399D01*
X150691386Y-111627399D01*
X150691408Y-111627397D01*
X150716469Y-111624491D01*
X150716473Y-111624490D01*
X150819074Y-111579188D01*
X150819079Y-111579185D01*
X150898385Y-111499879D01*
X150898388Y-111499874D01*
X150943689Y-111397277D01*
X150943689Y-111397275D01*
X150946599Y-111372194D01*
X150946600Y-111372191D01*
X150946600Y-110892400D01*
X150406160Y-110892400D01*
X150436845Y-110839253D01*
X150464902Y-110734541D01*
X151566099Y-110734541D01*
X151602049Y-110915269D01*
X151602051Y-110915275D01*
X151672569Y-111085522D01*
X151672574Y-111085531D01*
X151774949Y-111238745D01*
X151774952Y-111238749D01*
X151905250Y-111369047D01*
X151905254Y-111369050D01*
X152058468Y-111471425D01*
X152058474Y-111471428D01*
X152058475Y-111471429D01*
X152228725Y-111541949D01*
X152228729Y-111541949D01*
X152228730Y-111541950D01*
X152409458Y-111577900D01*
X152409461Y-111577900D01*
X152593741Y-111577900D01*
X152715332Y-111553713D01*
X152774475Y-111541949D01*
X152944725Y-111471429D01*
X153097946Y-111369050D01*
X153228250Y-111238746D01*
X153330629Y-111085525D01*
X153401149Y-110915275D01*
X153437100Y-110734541D01*
X154106099Y-110734541D01*
X154142049Y-110915269D01*
X154142051Y-110915275D01*
X154212569Y-111085522D01*
X154212574Y-111085531D01*
X154314949Y-111238745D01*
X154314952Y-111238749D01*
X154445250Y-111369047D01*
X154445254Y-111369050D01*
X154598468Y-111471425D01*
X154598474Y-111471428D01*
X154598475Y-111471429D01*
X154768725Y-111541949D01*
X154768729Y-111541949D01*
X154768730Y-111541950D01*
X154949458Y-111577900D01*
X154949461Y-111577900D01*
X155133741Y-111577900D01*
X155255332Y-111553713D01*
X155314475Y-111541949D01*
X155484725Y-111471429D01*
X155637946Y-111369050D01*
X155768250Y-111238746D01*
X155870629Y-111085525D01*
X155941149Y-110915275D01*
X155977100Y-110734541D01*
X156646099Y-110734541D01*
X156682049Y-110915269D01*
X156682051Y-110915275D01*
X156752569Y-111085522D01*
X156752574Y-111085531D01*
X156854949Y-111238745D01*
X156854952Y-111238749D01*
X156985250Y-111369047D01*
X156985254Y-111369050D01*
X157138468Y-111471425D01*
X157138474Y-111471428D01*
X157138475Y-111471429D01*
X157308725Y-111541949D01*
X157308729Y-111541949D01*
X157308730Y-111541950D01*
X157489458Y-111577900D01*
X157489461Y-111577900D01*
X157673741Y-111577900D01*
X157795332Y-111553713D01*
X157854475Y-111541949D01*
X158024725Y-111471429D01*
X158177946Y-111369050D01*
X158308250Y-111238746D01*
X158410629Y-111085525D01*
X158481149Y-110915275D01*
X158517100Y-110734539D01*
X158517100Y-110550261D01*
X158517100Y-110550258D01*
X158481150Y-110369530D01*
X158481149Y-110369529D01*
X158481149Y-110369525D01*
X158410629Y-110199275D01*
X158410628Y-110199274D01*
X158410625Y-110199268D01*
X158308250Y-110046054D01*
X158308247Y-110046050D01*
X158177949Y-109915752D01*
X158177945Y-109915749D01*
X158024731Y-109813374D01*
X158024722Y-109813369D01*
X157854475Y-109742851D01*
X157854469Y-109742849D01*
X157673741Y-109706900D01*
X157673739Y-109706900D01*
X157489461Y-109706900D01*
X157489459Y-109706900D01*
X157308730Y-109742849D01*
X157308724Y-109742851D01*
X157138477Y-109813369D01*
X157138468Y-109813374D01*
X156985254Y-109915749D01*
X156985250Y-109915752D01*
X156854952Y-110046050D01*
X156854949Y-110046054D01*
X156752574Y-110199268D01*
X156752569Y-110199277D01*
X156682051Y-110369524D01*
X156682049Y-110369530D01*
X156646100Y-110550258D01*
X156646100Y-110550261D01*
X156646100Y-110734539D01*
X156646100Y-110734541D01*
X156646099Y-110734541D01*
X155977100Y-110734541D01*
X155977100Y-110734539D01*
X155977100Y-110550261D01*
X155977100Y-110550258D01*
X155941150Y-110369530D01*
X155941149Y-110369529D01*
X155941149Y-110369525D01*
X155870629Y-110199275D01*
X155870628Y-110199274D01*
X155870625Y-110199268D01*
X155768250Y-110046054D01*
X155768247Y-110046050D01*
X155637949Y-109915752D01*
X155637945Y-109915749D01*
X155484731Y-109813374D01*
X155484722Y-109813369D01*
X155314475Y-109742851D01*
X155314469Y-109742849D01*
X155133741Y-109706900D01*
X155133739Y-109706900D01*
X154949461Y-109706900D01*
X154949459Y-109706900D01*
X154768730Y-109742849D01*
X154768724Y-109742851D01*
X154598477Y-109813369D01*
X154598468Y-109813374D01*
X154445254Y-109915749D01*
X154445250Y-109915752D01*
X154314952Y-110046050D01*
X154314949Y-110046054D01*
X154212574Y-110199268D01*
X154212569Y-110199277D01*
X154142051Y-110369524D01*
X154142049Y-110369530D01*
X154106100Y-110550258D01*
X154106100Y-110550261D01*
X154106100Y-110734539D01*
X154106100Y-110734541D01*
X154106099Y-110734541D01*
X153437100Y-110734541D01*
X153437100Y-110734539D01*
X153437100Y-110550261D01*
X153437100Y-110550258D01*
X153401150Y-110369530D01*
X153401149Y-110369529D01*
X153401149Y-110369525D01*
X153330629Y-110199275D01*
X153330628Y-110199274D01*
X153330625Y-110199268D01*
X153228250Y-110046054D01*
X153228247Y-110046050D01*
X153097949Y-109915752D01*
X153097945Y-109915749D01*
X152944731Y-109813374D01*
X152944722Y-109813369D01*
X152774475Y-109742851D01*
X152774469Y-109742849D01*
X152593741Y-109706900D01*
X152593739Y-109706900D01*
X152409461Y-109706900D01*
X152409459Y-109706900D01*
X152228730Y-109742849D01*
X152228724Y-109742851D01*
X152058477Y-109813369D01*
X152058468Y-109813374D01*
X151905254Y-109915749D01*
X151905250Y-109915752D01*
X151774952Y-110046050D01*
X151774949Y-110046054D01*
X151672574Y-110199268D01*
X151672569Y-110199277D01*
X151602051Y-110369524D01*
X151602049Y-110369530D01*
X151566100Y-110550258D01*
X151566100Y-110550261D01*
X151566100Y-110734539D01*
X151566100Y-110734541D01*
X151566099Y-110734541D01*
X150464902Y-110734541D01*
X150471600Y-110709543D01*
X150471600Y-110575257D01*
X150436845Y-110445547D01*
X150406160Y-110392400D01*
X150946599Y-110392400D01*
X150946599Y-109912614D01*
X150946597Y-109912591D01*
X150943691Y-109887530D01*
X150943690Y-109887526D01*
X150898388Y-109784925D01*
X150898385Y-109784920D01*
X150819079Y-109705614D01*
X150819074Y-109705611D01*
X150716476Y-109660310D01*
X150691394Y-109657400D01*
X150211600Y-109657400D01*
X150211600Y-110197839D01*
X150158453Y-110167155D01*
X150028743Y-110132400D01*
X149894457Y-110132400D01*
X149764747Y-110167155D01*
X149711600Y-110197839D01*
X149711600Y-109657400D01*
X149231814Y-109657400D01*
X149231791Y-109657402D01*
X149206730Y-109660308D01*
X149206726Y-109660309D01*
X149104125Y-109705611D01*
X149104120Y-109705614D01*
X149024814Y-109784920D01*
X149024811Y-109784925D01*
X148979510Y-109887522D01*
X148979510Y-109887524D01*
X148976600Y-109912605D01*
X132896472Y-109912605D01*
X132888989Y-109902124D01*
X132883383Y-109893545D01*
X132655953Y-109511868D01*
X132651076Y-109502854D01*
X132455958Y-109103734D01*
X132451841Y-109094349D01*
X132291156Y-108682549D01*
X132290338Y-108680454D01*
X132287019Y-108670786D01*
X132160242Y-108244951D01*
X132157733Y-108235043D01*
X132066555Y-107800194D01*
X132064873Y-107790114D01*
X132009915Y-107349209D01*
X132009072Y-107339036D01*
X131990606Y-106892562D01*
X131990500Y-106887438D01*
X131990500Y-106353525D01*
X143721500Y-106353525D01*
X143721500Y-106498475D01*
X143752183Y-106612984D01*
X143759017Y-106638488D01*
X143831488Y-106764011D01*
X143831490Y-106764013D01*
X143831491Y-106764015D01*
X143933985Y-106866509D01*
X143933986Y-106866510D01*
X143933988Y-106866511D01*
X144059511Y-106938982D01*
X144059512Y-106938982D01*
X144059515Y-106938984D01*
X144199525Y-106976500D01*
X144199528Y-106976500D01*
X144344472Y-106976500D01*
X144344475Y-106976500D01*
X144484485Y-106938984D01*
X144610015Y-106866509D01*
X144712509Y-106764015D01*
X144784984Y-106638485D01*
X144822500Y-106498475D01*
X144822500Y-106422544D01*
X144842185Y-106355505D01*
X144858819Y-106334863D01*
X145148928Y-106044754D01*
X145210251Y-106011269D01*
X145236609Y-106008435D01*
X148639285Y-106008435D01*
X148706324Y-106028120D01*
X148752079Y-106080924D01*
X148762023Y-106150082D01*
X148759061Y-106164520D01*
X148739500Y-106237525D01*
X148739500Y-106237527D01*
X148739500Y-106313456D01*
X148719815Y-106380495D01*
X148703181Y-106401137D01*
X147793661Y-107310656D01*
X147738075Y-107342749D01*
X147647516Y-107367015D01*
X147647511Y-107367017D01*
X147521988Y-107439488D01*
X147521982Y-107439493D01*
X147419493Y-107541982D01*
X147419488Y-107541988D01*
X147347017Y-107667511D01*
X147347016Y-107667515D01*
X147309500Y-107807525D01*
X147309500Y-107952475D01*
X147347016Y-108092485D01*
X147347017Y-108092488D01*
X147419488Y-108218011D01*
X147419490Y-108218013D01*
X147419491Y-108218015D01*
X147521985Y-108320509D01*
X147521986Y-108320510D01*
X147521988Y-108320511D01*
X147647511Y-108392982D01*
X147647512Y-108392982D01*
X147647515Y-108392984D01*
X147787525Y-108430500D01*
X147787528Y-108430500D01*
X147932472Y-108430500D01*
X147932475Y-108430500D01*
X148072485Y-108392984D01*
X148198015Y-108320509D01*
X148300509Y-108218015D01*
X148372984Y-108092485D01*
X148410500Y-107952475D01*
X148410500Y-107807525D01*
X148403175Y-107780188D01*
X148404837Y-107710338D01*
X148435266Y-107660414D01*
X149198862Y-106896819D01*
X149260185Y-106863334D01*
X149286543Y-106860500D01*
X149345570Y-106860500D01*
X149377663Y-106864725D01*
X149384711Y-106866613D01*
X149384712Y-106866614D01*
X149473856Y-106890500D01*
X156112258Y-106890500D01*
X156179297Y-106910185D01*
X156187747Y-106916126D01*
X156193455Y-106920506D01*
X156193458Y-106920509D01*
X156225454Y-106938982D01*
X156318984Y-106992982D01*
X156318985Y-106992982D01*
X156318988Y-106992984D01*
X156458998Y-107030500D01*
X156459001Y-107030500D01*
X156603945Y-107030500D01*
X156603948Y-107030500D01*
X156743958Y-106992984D01*
X156869488Y-106920509D01*
X156971982Y-106818015D01*
X157044457Y-106692485D01*
X157075409Y-106576971D01*
X157111772Y-106517314D01*
X157174619Y-106486785D01*
X157243994Y-106495080D01*
X157282863Y-106521387D01*
X157301985Y-106540509D01*
X157301986Y-106540510D01*
X157301988Y-106540511D01*
X157427511Y-106612982D01*
X157427512Y-106612982D01*
X157427515Y-106612984D01*
X157567525Y-106650500D01*
X157567528Y-106650500D01*
X157712472Y-106650500D01*
X157712475Y-106650500D01*
X157852485Y-106612984D01*
X157978015Y-106540509D01*
X158080509Y-106438015D01*
X158152984Y-106312485D01*
X158190500Y-106172475D01*
X158190500Y-106027525D01*
X158152984Y-105887515D01*
X158125078Y-105839181D01*
X158094663Y-105786500D01*
X158078190Y-105718600D01*
X158101042Y-105652573D01*
X158155963Y-105609383D01*
X158202050Y-105600500D01*
X162492813Y-105600500D01*
X162559852Y-105620185D01*
X162600427Y-105667011D01*
X162601752Y-105666247D01*
X162678288Y-105798811D01*
X162678293Y-105798817D01*
X162731981Y-105852505D01*
X162765466Y-105913828D01*
X162768300Y-105940186D01*
X162768300Y-108114943D01*
X162790290Y-108197013D01*
X162792185Y-108204087D01*
X162792187Y-108204091D01*
X162838327Y-108284008D01*
X162838329Y-108284011D01*
X162838330Y-108284012D01*
X164784788Y-110230470D01*
X164849555Y-110267863D01*
X164849556Y-110267864D01*
X164856331Y-110271775D01*
X164864712Y-110276614D01*
X164953856Y-110300500D01*
X164953857Y-110300500D01*
X165046144Y-110300500D01*
X165150614Y-110300500D01*
X165217653Y-110320185D01*
X165238295Y-110336819D01*
X165291985Y-110390509D01*
X165291986Y-110390510D01*
X165291988Y-110390511D01*
X165417511Y-110462982D01*
X165417512Y-110462982D01*
X165417515Y-110462984D01*
X165557525Y-110500500D01*
X165557528Y-110500500D01*
X165702472Y-110500500D01*
X165702475Y-110500500D01*
X165842485Y-110462984D01*
X165968015Y-110390509D01*
X166070509Y-110288015D01*
X166142984Y-110162485D01*
X166180500Y-110022475D01*
X166180500Y-109877525D01*
X166142984Y-109737515D01*
X166125308Y-109706900D01*
X166070511Y-109611988D01*
X166070506Y-109611982D01*
X165968017Y-109509493D01*
X165968011Y-109509488D01*
X165842488Y-109437017D01*
X165842489Y-109437017D01*
X165831006Y-109433940D01*
X165702475Y-109399500D01*
X165557525Y-109399500D01*
X165428993Y-109433940D01*
X165417511Y-109437017D01*
X165291988Y-109509488D01*
X165291982Y-109509493D01*
X165261260Y-109540216D01*
X165199937Y-109573701D01*
X165130245Y-109568717D01*
X165085898Y-109540216D01*
X165003757Y-109458075D01*
X164970272Y-109396752D01*
X164975256Y-109327060D01*
X165017128Y-109271127D01*
X165059337Y-109250622D01*
X165162485Y-109222984D01*
X165288015Y-109150509D01*
X165341705Y-109096819D01*
X165403028Y-109063334D01*
X165429386Y-109060500D01*
X166046142Y-109060500D01*
X166046144Y-109060500D01*
X166135288Y-109036614D01*
X166145912Y-109030480D01*
X166215212Y-108990470D01*
X167678863Y-107526819D01*
X167740186Y-107493334D01*
X167766544Y-107490500D01*
X167842472Y-107490500D01*
X167842475Y-107490500D01*
X167982485Y-107452984D01*
X168108015Y-107380509D01*
X168210509Y-107278015D01*
X168282984Y-107152485D01*
X168320500Y-107012475D01*
X168320500Y-106867525D01*
X168282984Y-106727515D01*
X168262759Y-106692485D01*
X168210511Y-106601988D01*
X168210506Y-106601982D01*
X168108017Y-106499493D01*
X168108011Y-106499488D01*
X167982488Y-106427017D01*
X167982489Y-106427017D01*
X167965795Y-106422544D01*
X167842475Y-106389500D01*
X167697525Y-106389500D01*
X167574205Y-106422544D01*
X167557511Y-106427017D01*
X167431988Y-106499488D01*
X167431982Y-106499493D01*
X167329493Y-106601982D01*
X167329488Y-106601988D01*
X167257017Y-106727511D01*
X167257016Y-106727515D01*
X167219500Y-106867525D01*
X167219500Y-106867527D01*
X167219500Y-106943456D01*
X167199815Y-107010495D01*
X167183181Y-107031137D01*
X165891137Y-108323181D01*
X165829814Y-108356666D01*
X165803456Y-108359500D01*
X165429386Y-108359500D01*
X165362347Y-108339815D01*
X165341705Y-108323181D01*
X165288017Y-108269493D01*
X165288011Y-108269488D01*
X165162488Y-108197017D01*
X165162485Y-108197016D01*
X165022475Y-108159500D01*
X164877525Y-108159500D01*
X164748993Y-108193940D01*
X164737511Y-108197017D01*
X164611988Y-108269488D01*
X164611982Y-108269493D01*
X164509493Y-108371982D01*
X164509488Y-108371988D01*
X164437017Y-108497511D01*
X164437016Y-108497515D01*
X164409378Y-108600656D01*
X164373015Y-108660315D01*
X164310168Y-108690844D01*
X164240792Y-108682549D01*
X164201924Y-108656242D01*
X163505619Y-107959937D01*
X163472134Y-107898614D01*
X163469300Y-107872256D01*
X163469300Y-105940186D01*
X163475628Y-105918635D01*
X163477349Y-105896239D01*
X163486245Y-105882475D01*
X163488985Y-105873147D01*
X163494427Y-105865352D01*
X163499578Y-105858545D01*
X163559309Y-105798815D01*
X163561670Y-105794725D01*
X163889100Y-105794725D01*
X163889100Y-105939675D01*
X163926616Y-106079685D01*
X163926617Y-106079688D01*
X163999088Y-106205211D01*
X163999090Y-106205213D01*
X163999091Y-106205215D01*
X164101585Y-106307709D01*
X164101586Y-106307710D01*
X164101588Y-106307711D01*
X164227111Y-106380182D01*
X164227112Y-106380182D01*
X164227115Y-106380184D01*
X164367125Y-106417700D01*
X164367128Y-106417700D01*
X164512072Y-106417700D01*
X164512075Y-106417700D01*
X164652085Y-106380184D01*
X164777615Y-106307709D01*
X164880109Y-106205215D01*
X164952584Y-106079685D01*
X164990100Y-105939675D01*
X164990100Y-105863744D01*
X165009785Y-105796705D01*
X165026419Y-105776063D01*
X165149909Y-105652573D01*
X165278870Y-105523612D01*
X165325014Y-105443688D01*
X165348900Y-105354543D01*
X165348900Y-105262256D01*
X165348900Y-102393681D01*
X167439500Y-102393681D01*
X167439500Y-102736318D01*
X167477858Y-103076768D01*
X167477860Y-103076780D01*
X167477861Y-103076783D01*
X167492325Y-103140155D01*
X167554102Y-103410816D01*
X167554103Y-103410818D01*
X167667264Y-103734216D01*
X167815922Y-104042907D01*
X167832003Y-104068500D01*
X167998211Y-104333018D01*
X168115827Y-104480504D01*
X168208547Y-104596772D01*
X168211834Y-104600893D01*
X168454107Y-104843166D01*
X168721982Y-105056789D01*
X168983628Y-105221192D01*
X169012092Y-105239077D01*
X169152218Y-105306558D01*
X169320785Y-105387736D01*
X169644183Y-105500897D01*
X169978217Y-105577139D01*
X169978226Y-105577140D01*
X169978231Y-105577141D01*
X170185556Y-105600500D01*
X170318682Y-105615499D01*
X170318685Y-105615500D01*
X170318688Y-105615500D01*
X170661315Y-105615500D01*
X170661316Y-105615499D01*
X170835311Y-105595895D01*
X171001768Y-105577141D01*
X171001771Y-105577140D01*
X171001783Y-105577139D01*
X171335817Y-105500897D01*
X171659215Y-105387736D01*
X171967910Y-105239076D01*
X172258018Y-105056789D01*
X172525893Y-104843166D01*
X172768166Y-104600893D01*
X172981789Y-104333018D01*
X173164076Y-104042910D01*
X173312736Y-103734215D01*
X173425897Y-103410817D01*
X173502139Y-103076783D01*
X173507187Y-103031985D01*
X173526947Y-102856598D01*
X173540500Y-102736312D01*
X173540500Y-102393688D01*
X173511729Y-102138332D01*
X173502141Y-102053231D01*
X173502140Y-102053226D01*
X173502139Y-102053217D01*
X173425897Y-101719183D01*
X173312736Y-101395785D01*
X173164076Y-101087090D01*
X172981789Y-100796982D01*
X172768166Y-100529107D01*
X172525893Y-100286834D01*
X172517555Y-100280185D01*
X172414512Y-100198011D01*
X172258018Y-100073211D01*
X171967910Y-99890924D01*
X171967907Y-99890922D01*
X171659216Y-99742264D01*
X171335818Y-99629103D01*
X171335816Y-99629102D01*
X171078024Y-99570262D01*
X171001783Y-99552861D01*
X171001780Y-99552860D01*
X171001768Y-99552858D01*
X170661318Y-99514500D01*
X170661312Y-99514500D01*
X170318688Y-99514500D01*
X170318681Y-99514500D01*
X169978231Y-99552858D01*
X169978217Y-99552861D01*
X169644183Y-99629102D01*
X169644181Y-99629103D01*
X169320783Y-99742264D01*
X169012092Y-99890922D01*
X168721983Y-100073210D01*
X168454107Y-100286833D01*
X168211833Y-100529107D01*
X167998210Y-100796983D01*
X167815922Y-101087092D01*
X167667264Y-101395783D01*
X167554103Y-101719181D01*
X167554102Y-101719183D01*
X167477861Y-102053217D01*
X167477858Y-102053231D01*
X167439500Y-102393681D01*
X165348900Y-102393681D01*
X165348900Y-99539386D01*
X165368585Y-99472347D01*
X165385219Y-99451705D01*
X165407109Y-99429815D01*
X165438909Y-99398015D01*
X165511384Y-99272485D01*
X165548900Y-99132475D01*
X165548900Y-99021187D01*
X165568585Y-98954148D01*
X165585219Y-98933506D01*
X166756907Y-97761819D01*
X166818230Y-97728334D01*
X166844588Y-97725500D01*
X169445613Y-97725500D01*
X169512652Y-97745185D01*
X169533294Y-97761818D01*
X169611985Y-97840509D01*
X169611987Y-97840510D01*
X169611988Y-97840511D01*
X169737511Y-97912982D01*
X169737512Y-97912982D01*
X169737515Y-97912984D01*
X169877525Y-97950500D01*
X169877528Y-97950500D01*
X170022472Y-97950500D01*
X170022475Y-97950500D01*
X170162485Y-97912984D01*
X170288015Y-97840509D01*
X170390509Y-97738015D01*
X170462984Y-97612485D01*
X170500500Y-97472475D01*
X170500500Y-97327525D01*
X170462984Y-97187515D01*
X170461377Y-97184732D01*
X170390511Y-97061988D01*
X170390506Y-97061982D01*
X170288017Y-96959493D01*
X170288011Y-96959488D01*
X170162488Y-96887017D01*
X170162489Y-96887017D01*
X170144635Y-96882233D01*
X170022475Y-96849500D01*
X169877525Y-96849500D01*
X169755365Y-96882233D01*
X169737511Y-96887017D01*
X169611988Y-96959488D01*
X169533294Y-97038182D01*
X169471970Y-97071666D01*
X169445613Y-97074500D01*
X166708865Y-97074500D01*
X166708849Y-97074499D01*
X166701253Y-97074499D01*
X166615548Y-97074499D01*
X166574155Y-97085590D01*
X166532760Y-97096682D01*
X166532755Y-97096685D01*
X166458544Y-97139530D01*
X166458536Y-97139536D01*
X165124892Y-98473181D01*
X165063569Y-98506666D01*
X165037211Y-98509500D01*
X164925925Y-98509500D01*
X164797393Y-98543940D01*
X164785911Y-98547017D01*
X164660388Y-98619488D01*
X164660382Y-98619493D01*
X164557893Y-98721982D01*
X164557888Y-98721988D01*
X164485417Y-98847511D01*
X164485416Y-98847515D01*
X164447900Y-98987525D01*
X164447900Y-99132475D01*
X164481018Y-99256071D01*
X164485417Y-99272488D01*
X164557888Y-99398011D01*
X164557893Y-99398017D01*
X164611581Y-99451705D01*
X164645066Y-99513028D01*
X164647900Y-99539386D01*
X164647900Y-105111856D01*
X164628215Y-105178895D01*
X164611581Y-105199537D01*
X164530737Y-105280381D01*
X164469414Y-105313866D01*
X164443056Y-105316700D01*
X164367125Y-105316700D01*
X164238593Y-105351140D01*
X164227111Y-105354217D01*
X164101588Y-105426688D01*
X164101582Y-105426693D01*
X163999093Y-105529182D01*
X163999088Y-105529188D01*
X163926617Y-105654711D01*
X163926616Y-105654715D01*
X163889100Y-105794725D01*
X163561670Y-105794725D01*
X163631784Y-105673285D01*
X163669300Y-105533275D01*
X163669300Y-105388325D01*
X163631784Y-105248315D01*
X163562734Y-105128718D01*
X163546262Y-105060819D01*
X163569114Y-104994792D01*
X163624035Y-104951602D01*
X163640789Y-104947221D01*
X163640624Y-104946603D01*
X163648472Y-104944500D01*
X163648475Y-104944500D01*
X163788485Y-104906984D01*
X163914015Y-104834509D01*
X164016509Y-104732015D01*
X164088984Y-104606485D01*
X164126500Y-104466475D01*
X164126500Y-104321525D01*
X164088984Y-104181515D01*
X164075656Y-104158431D01*
X164016511Y-104055988D01*
X164016506Y-104055982D01*
X163914017Y-103953493D01*
X163914011Y-103953488D01*
X163788488Y-103881017D01*
X163788489Y-103881017D01*
X163777006Y-103877940D01*
X163648475Y-103843500D01*
X163503525Y-103843500D01*
X163374993Y-103877940D01*
X163363511Y-103881017D01*
X163237988Y-103953488D01*
X163159294Y-104032182D01*
X163097970Y-104065666D01*
X163071613Y-104068500D01*
X162050188Y-104068500D01*
X161983149Y-104048815D01*
X161962507Y-104032181D01*
X160532476Y-102602149D01*
X160498991Y-102540826D01*
X160503975Y-102471134D01*
X160545847Y-102415201D01*
X160581153Y-102396762D01*
X160730881Y-102347147D01*
X160730892Y-102347142D01*
X160875128Y-102258175D01*
X160875132Y-102258172D01*
X160994972Y-102138332D01*
X160994975Y-102138328D01*
X161083942Y-101994092D01*
X161083947Y-101994081D01*
X161137255Y-101833206D01*
X161147399Y-101733922D01*
X161147400Y-101733909D01*
X161147400Y-101710600D01*
X159197401Y-101710600D01*
X159197401Y-101733925D01*
X159207424Y-101832040D01*
X159194654Y-101900733D01*
X159146773Y-101951617D01*
X159146090Y-101952014D01*
X159074251Y-101993491D01*
X159074248Y-101993493D01*
X158993752Y-102073990D01*
X158932429Y-102107475D01*
X158862737Y-102102491D01*
X158818390Y-102073990D01*
X158810600Y-102066200D01*
X158085600Y-102066200D01*
X158085600Y-102766199D01*
X158133908Y-102766199D01*
X158133922Y-102766198D01*
X158233207Y-102756055D01*
X158394081Y-102702747D01*
X158394092Y-102702742D01*
X158538328Y-102613775D01*
X158538332Y-102613772D01*
X158663280Y-102488825D01*
X158665324Y-102490869D01*
X158711576Y-102458100D01*
X158781375Y-102454941D01*
X158841800Y-102490020D01*
X158871628Y-102543280D01*
X158894560Y-102628863D01*
X158899283Y-102646488D01*
X158971754Y-102772011D01*
X158971756Y-102772013D01*
X158971757Y-102772015D01*
X159074251Y-102874509D01*
X159074252Y-102874510D01*
X159074254Y-102874511D01*
X159199777Y-102946982D01*
X159199778Y-102946982D01*
X159199781Y-102946984D01*
X159339791Y-102984500D01*
X159339794Y-102984500D01*
X159484738Y-102984500D01*
X159484741Y-102984500D01*
X159624751Y-102946984D01*
X159624753Y-102946982D01*
X159624755Y-102946982D01*
X159624756Y-102946981D01*
X159653321Y-102930489D01*
X159750281Y-102874509D01*
X159750283Y-102874506D01*
X159752768Y-102873072D01*
X159820668Y-102856598D01*
X159886695Y-102879450D01*
X159902450Y-102892777D01*
X160614847Y-103605174D01*
X160648332Y-103666497D01*
X160643348Y-103736189D01*
X160601476Y-103792122D01*
X160589170Y-103800239D01*
X160584614Y-103802869D01*
X160570398Y-103811077D01*
X160491707Y-103889769D01*
X160430383Y-103923253D01*
X160404026Y-103926087D01*
X159877775Y-103926087D01*
X159810736Y-103906402D01*
X159790094Y-103889768D01*
X159083337Y-103183010D01*
X159083336Y-103183009D01*
X159083335Y-103183008D01*
X159039173Y-103157511D01*
X159009113Y-103140155D01*
X158967719Y-103129064D01*
X158926326Y-103117973D01*
X158926325Y-103117973D01*
X153547453Y-103117973D01*
X153480414Y-103098288D01*
X153459772Y-103081655D01*
X153454885Y-103076768D01*
X153381081Y-103002964D01*
X153381078Y-103002962D01*
X153381077Y-103002961D01*
X153255554Y-102930490D01*
X153255555Y-102930490D01*
X153205105Y-102916972D01*
X153115541Y-102892973D01*
X152970591Y-102892973D01*
X152881027Y-102916972D01*
X152830577Y-102930490D01*
X152705054Y-103002961D01*
X152705048Y-103002966D01*
X152602559Y-103105455D01*
X152602554Y-103105461D01*
X152530083Y-103230984D01*
X152530082Y-103230988D01*
X152492566Y-103370998D01*
X152492566Y-103371000D01*
X152492566Y-103379603D01*
X152472881Y-103446642D01*
X152420077Y-103492397D01*
X152400663Y-103499377D01*
X152361630Y-103509836D01*
X152297510Y-103527017D01*
X152171988Y-103599488D01*
X152171982Y-103599493D01*
X152069493Y-103701982D01*
X152069488Y-103701988D01*
X151997017Y-103827511D01*
X151997016Y-103827515D01*
X151959500Y-103967525D01*
X151959500Y-104112475D01*
X151995130Y-104245446D01*
X151997017Y-104252488D01*
X152069488Y-104378011D01*
X152069490Y-104378013D01*
X152069491Y-104378015D01*
X152171985Y-104480509D01*
X152171991Y-104480512D01*
X152177916Y-104485059D01*
X152219118Y-104541487D01*
X152223273Y-104611233D01*
X152189061Y-104672154D01*
X152127343Y-104704906D01*
X152102429Y-104707435D01*
X148815386Y-104707435D01*
X148748347Y-104687750D01*
X148727705Y-104671116D01*
X148674017Y-104617428D01*
X148674011Y-104617423D01*
X148548488Y-104544952D01*
X148548489Y-104544952D01*
X148522413Y-104537965D01*
X148408475Y-104507435D01*
X148263525Y-104507435D01*
X148149587Y-104537965D01*
X148123511Y-104544952D01*
X147997988Y-104617423D01*
X147997982Y-104617428D01*
X147895493Y-104719917D01*
X147895488Y-104719923D01*
X147823017Y-104845446D01*
X147823016Y-104845450D01*
X147785500Y-104985460D01*
X147785500Y-104985462D01*
X147785500Y-105130409D01*
X147791109Y-105151342D01*
X147789446Y-105221192D01*
X147750283Y-105279054D01*
X147686055Y-105306558D01*
X147671334Y-105307435D01*
X144993921Y-105307435D01*
X144926456Y-105325512D01*
X144926455Y-105325511D01*
X144904777Y-105331320D01*
X144904774Y-105331322D01*
X144824856Y-105377462D01*
X144824851Y-105377466D01*
X144363137Y-105839181D01*
X144301814Y-105872666D01*
X144275456Y-105875500D01*
X144199525Y-105875500D01*
X144070993Y-105909940D01*
X144059511Y-105913017D01*
X143933988Y-105985488D01*
X143933982Y-105985493D01*
X143831493Y-106087982D01*
X143831488Y-106087988D01*
X143759017Y-106213511D01*
X143759016Y-106213515D01*
X143721500Y-106353525D01*
X131990500Y-106353525D01*
X131990500Y-99227704D01*
X132010185Y-99160665D01*
X132062989Y-99114910D01*
X132112977Y-99103713D01*
X135661827Y-99060222D01*
X135697471Y-99065002D01*
X137955801Y-99711618D01*
X138014832Y-99748996D01*
X138039985Y-99793718D01*
X138379372Y-100875763D01*
X138380653Y-100945621D01*
X138343962Y-101005081D01*
X138280949Y-101035267D01*
X138211620Y-101026593D01*
X138157986Y-100981814D01*
X138156061Y-100978845D01*
X138148429Y-100966699D01*
X138041789Y-100796982D01*
X137828166Y-100529107D01*
X137585893Y-100286834D01*
X137577555Y-100280185D01*
X137474512Y-100198011D01*
X137318018Y-100073211D01*
X137027910Y-99890924D01*
X137027907Y-99890922D01*
X136719216Y-99742264D01*
X136395818Y-99629103D01*
X136395816Y-99629102D01*
X136138024Y-99570262D01*
X136061783Y-99552861D01*
X136061780Y-99552860D01*
X136061768Y-99552858D01*
X135721318Y-99514500D01*
X135721312Y-99514500D01*
X135378688Y-99514500D01*
X135378681Y-99514500D01*
X135038231Y-99552858D01*
X135038217Y-99552861D01*
X134704183Y-99629102D01*
X134704181Y-99629103D01*
X134380783Y-99742264D01*
X134072092Y-99890922D01*
X133781983Y-100073210D01*
X133514107Y-100286833D01*
X133271833Y-100529107D01*
X133058210Y-100796983D01*
X132875922Y-101087092D01*
X132727264Y-101395783D01*
X132614103Y-101719181D01*
X132614102Y-101719183D01*
X132537861Y-102053217D01*
X132537858Y-102053231D01*
X132499500Y-102393681D01*
X132499500Y-102736318D01*
X132537858Y-103076768D01*
X132537860Y-103076780D01*
X132537861Y-103076783D01*
X132552325Y-103140155D01*
X132614102Y-103410816D01*
X132614103Y-103410818D01*
X132727264Y-103734216D01*
X132875922Y-104042907D01*
X132892003Y-104068500D01*
X133058211Y-104333018D01*
X133175827Y-104480504D01*
X133268547Y-104596772D01*
X133271834Y-104600893D01*
X133514107Y-104843166D01*
X133781982Y-105056789D01*
X134043628Y-105221192D01*
X134072092Y-105239077D01*
X134212218Y-105306558D01*
X134380785Y-105387736D01*
X134704183Y-105500897D01*
X135038217Y-105577139D01*
X135038226Y-105577140D01*
X135038231Y-105577141D01*
X135245556Y-105600500D01*
X135378682Y-105615499D01*
X135378685Y-105615500D01*
X135378688Y-105615500D01*
X135721315Y-105615500D01*
X135721316Y-105615499D01*
X135895311Y-105595895D01*
X136061768Y-105577141D01*
X136061771Y-105577140D01*
X136061783Y-105577139D01*
X136395817Y-105500897D01*
X136719215Y-105387736D01*
X137027910Y-105239076D01*
X137318018Y-105056789D01*
X137585893Y-104843166D01*
X137828166Y-104600893D01*
X138041789Y-104333018D01*
X138224076Y-104042910D01*
X138372736Y-103734215D01*
X138485897Y-103410817D01*
X138562139Y-103076783D01*
X138567187Y-103031985D01*
X138586947Y-102856598D01*
X138600500Y-102736312D01*
X138600500Y-102393688D01*
X138600500Y-102393685D01*
X138600500Y-102390443D01*
X138620185Y-102323404D01*
X138672989Y-102277649D01*
X138742147Y-102267705D01*
X138805703Y-102296730D01*
X138842816Y-102353331D01*
X138870000Y-102440000D01*
X138870000Y-102439999D01*
X138870001Y-102440000D01*
X141362493Y-102424048D01*
X143854986Y-102408096D01*
X143854548Y-101784722D01*
X147716601Y-101784722D01*
X147726744Y-101884007D01*
X147780052Y-102044881D01*
X147780057Y-102044892D01*
X147869024Y-102189128D01*
X147869027Y-102189132D01*
X147988867Y-102308972D01*
X147988871Y-102308975D01*
X148133107Y-102397942D01*
X148133118Y-102397947D01*
X148293993Y-102451255D01*
X148393283Y-102461399D01*
X148441599Y-102461398D01*
X148441600Y-102461398D01*
X148441600Y-101761400D01*
X147716601Y-101761400D01*
X147716601Y-101784722D01*
X143854548Y-101784722D01*
X143854230Y-101333181D01*
X143852963Y-99532135D01*
X144534500Y-99532135D01*
X144534500Y-100527870D01*
X144534501Y-100527876D01*
X144540908Y-100587483D01*
X144591202Y-100722328D01*
X144591206Y-100722335D01*
X144677452Y-100837544D01*
X144677455Y-100837547D01*
X144792664Y-100923793D01*
X144792671Y-100923797D01*
X144837618Y-100940561D01*
X144927517Y-100974091D01*
X144987127Y-100980500D01*
X145607872Y-100980499D01*
X145667483Y-100974091D01*
X145802331Y-100923796D01*
X145917546Y-100837546D01*
X146003796Y-100722331D01*
X146054091Y-100587483D01*
X146060500Y-100527873D01*
X146060499Y-99532128D01*
X146054185Y-99473387D01*
X146054091Y-99472516D01*
X146003797Y-99337671D01*
X146003793Y-99337664D01*
X145917547Y-99222455D01*
X145917544Y-99222452D01*
X145802335Y-99136206D01*
X145802328Y-99136202D01*
X145703667Y-99099404D01*
X145647733Y-99057533D01*
X145623316Y-98992068D01*
X145623000Y-98983222D01*
X145623000Y-98836225D01*
X145642685Y-98769186D01*
X145695489Y-98723431D01*
X145714899Y-98716452D01*
X145802485Y-98692984D01*
X145928015Y-98620509D01*
X146030509Y-98518015D01*
X146102984Y-98392485D01*
X146140500Y-98252475D01*
X146140500Y-98107525D01*
X146102984Y-97967515D01*
X146102696Y-97967017D01*
X146030511Y-97841988D01*
X146030506Y-97841982D01*
X145928017Y-97739493D01*
X145928011Y-97739488D01*
X145802488Y-97667017D01*
X145802489Y-97667017D01*
X145785527Y-97662472D01*
X145662475Y-97629500D01*
X145517525Y-97629500D01*
X145394473Y-97662472D01*
X145377511Y-97667017D01*
X145251988Y-97739488D01*
X145251982Y-97739493D01*
X145149493Y-97841982D01*
X145149488Y-97841988D01*
X145077017Y-97967511D01*
X145077016Y-97967515D01*
X145039500Y-98107525D01*
X145039500Y-98107527D01*
X145039500Y-98235141D01*
X145022888Y-98297140D01*
X144994180Y-98346863D01*
X144973005Y-98425897D01*
X144973002Y-98425908D01*
X144972000Y-98429643D01*
X144972000Y-98983222D01*
X144952315Y-99050261D01*
X144899511Y-99096016D01*
X144891333Y-99099404D01*
X144792671Y-99136202D01*
X144792664Y-99136206D01*
X144677455Y-99222452D01*
X144677452Y-99222455D01*
X144591206Y-99337664D01*
X144591202Y-99337671D01*
X144540909Y-99472516D01*
X144540908Y-99472516D01*
X144534795Y-99529381D01*
X144534501Y-99532123D01*
X144534500Y-99532135D01*
X143852963Y-99532135D01*
X143852961Y-99528893D01*
X143851082Y-96857816D01*
X143850087Y-95443987D01*
X143869724Y-95376935D01*
X143922496Y-95331143D01*
X143973987Y-95319901D01*
X148058049Y-95316644D01*
X148125104Y-95336275D01*
X148170901Y-95389043D01*
X148180900Y-95458193D01*
X148151926Y-95521772D01*
X148093178Y-95559593D01*
X148070750Y-95564002D01*
X148039992Y-95567144D01*
X147879118Y-95620452D01*
X147879107Y-95620457D01*
X147734871Y-95709424D01*
X147734867Y-95709427D01*
X147615027Y-95829267D01*
X147615024Y-95829271D01*
X147526057Y-95973507D01*
X147526052Y-95973518D01*
X147472744Y-96134393D01*
X147462600Y-96233677D01*
X147462600Y-96257000D01*
X149412599Y-96257000D01*
X149412599Y-96233692D01*
X149412598Y-96233677D01*
X149402455Y-96134392D01*
X149349147Y-95973518D01*
X149349142Y-95973507D01*
X149260175Y-95829271D01*
X149260172Y-95829267D01*
X149140332Y-95709427D01*
X149140328Y-95709424D01*
X148996092Y-95620457D01*
X148996081Y-95620452D01*
X148835207Y-95567144D01*
X148798573Y-95563401D01*
X148733882Y-95537004D01*
X148693731Y-95479823D01*
X148690869Y-95410012D01*
X148726203Y-95349735D01*
X148788517Y-95318131D01*
X148811072Y-95316043D01*
X153363688Y-95312412D01*
X153430741Y-95332043D01*
X153476538Y-95384811D01*
X153486537Y-95453961D01*
X153457563Y-95517540D01*
X153425786Y-95543798D01*
X153332765Y-95597505D01*
X153332756Y-95597511D01*
X153230267Y-95700000D01*
X153230262Y-95700006D01*
X153157791Y-95825529D01*
X153157790Y-95825533D01*
X153120274Y-95965543D01*
X153120274Y-95965545D01*
X153120274Y-96032500D01*
X153100589Y-96099539D01*
X153047785Y-96145294D01*
X152996274Y-96156500D01*
X152790383Y-96156500D01*
X152723344Y-96136815D01*
X152677589Y-96084011D01*
X152674210Y-96075857D01*
X152665228Y-96051774D01*
X152583287Y-95942313D01*
X152517511Y-95893074D01*
X152473828Y-95860373D01*
X152473826Y-95860372D01*
X152345714Y-95812588D01*
X152345712Y-95812587D01*
X152345710Y-95812587D01*
X152289093Y-95806500D01*
X151698118Y-95806500D01*
X151698109Y-95806501D01*
X151641485Y-95812587D01*
X151513373Y-95860372D01*
X151403913Y-95942313D01*
X151321973Y-96051771D01*
X151274187Y-96179889D01*
X151268100Y-96236498D01*
X151268100Y-96685455D01*
X151248415Y-96752494D01*
X151231781Y-96773136D01*
X150334737Y-97670181D01*
X150273414Y-97703666D01*
X150247056Y-97706500D01*
X149234383Y-97706500D01*
X149167344Y-97686815D01*
X149121589Y-97634011D01*
X149118210Y-97625857D01*
X149109228Y-97601774D01*
X149109224Y-97601769D01*
X149099688Y-97589030D01*
X149048158Y-97520194D01*
X149023743Y-97454734D01*
X149038594Y-97386461D01*
X149082331Y-97340348D01*
X149140331Y-97304573D01*
X149260172Y-97184732D01*
X149260175Y-97184728D01*
X149349142Y-97040492D01*
X149349147Y-97040481D01*
X149402455Y-96879606D01*
X149412599Y-96780322D01*
X149412600Y-96780309D01*
X149412600Y-96757000D01*
X147462601Y-96757000D01*
X147462601Y-96780322D01*
X147472744Y-96879607D01*
X147526052Y-97040481D01*
X147526057Y-97040492D01*
X147615024Y-97184728D01*
X147615027Y-97184732D01*
X147734866Y-97304571D01*
X147792868Y-97340347D01*
X147839592Y-97392295D01*
X147850815Y-97461258D01*
X147827039Y-97520195D01*
X147765974Y-97601769D01*
X147765972Y-97601773D01*
X147765972Y-97601774D01*
X147743331Y-97662475D01*
X147718187Y-97729889D01*
X147712100Y-97786498D01*
X147712100Y-98327481D01*
X147712101Y-98327490D01*
X147718187Y-98384114D01*
X147756998Y-98488166D01*
X147765972Y-98512226D01*
X147847913Y-98621687D01*
X147847914Y-98621687D01*
X147847915Y-98621689D01*
X147853840Y-98627614D01*
X147887325Y-98688937D01*
X147882341Y-98758629D01*
X147853840Y-98802976D01*
X147604816Y-99052000D01*
X147543493Y-99085485D01*
X147500370Y-99085104D01*
X147500195Y-99086738D01*
X147432882Y-99079501D01*
X147432873Y-99079500D01*
X147432863Y-99079500D01*
X146812129Y-99079500D01*
X146812123Y-99079501D01*
X146752516Y-99085908D01*
X146617671Y-99136202D01*
X146617664Y-99136206D01*
X146502455Y-99222452D01*
X146502452Y-99222455D01*
X146416206Y-99337664D01*
X146416202Y-99337671D01*
X146365909Y-99472516D01*
X146365908Y-99472516D01*
X146359795Y-99529381D01*
X146359501Y-99532123D01*
X146359500Y-99532135D01*
X146359500Y-100527870D01*
X146359501Y-100527876D01*
X146365908Y-100587483D01*
X146416202Y-100722328D01*
X146416206Y-100722335D01*
X146502452Y-100837544D01*
X146502455Y-100837547D01*
X146617664Y-100923793D01*
X146617671Y-100923797D01*
X146662618Y-100940561D01*
X146752517Y-100974091D01*
X146812127Y-100980500D01*
X147432872Y-100980499D01*
X147492483Y-100974091D01*
X147579628Y-100941587D01*
X147649319Y-100936604D01*
X147710642Y-100970089D01*
X147744127Y-101031412D01*
X147740668Y-101096772D01*
X147726743Y-101138794D01*
X147716600Y-101238077D01*
X147716600Y-101261400D01*
X148567600Y-101261400D01*
X148634639Y-101281085D01*
X148680394Y-101333889D01*
X148691600Y-101385400D01*
X148691600Y-101511400D01*
X148817600Y-101511400D01*
X148884639Y-101531085D01*
X148930394Y-101583889D01*
X148941600Y-101635400D01*
X148941600Y-102461399D01*
X148989908Y-102461399D01*
X148989922Y-102461398D01*
X149089207Y-102451255D01*
X149250081Y-102397947D01*
X149250092Y-102397942D01*
X149394328Y-102308975D01*
X149394332Y-102308972D01*
X149514172Y-102189132D01*
X149514175Y-102189128D01*
X149603142Y-102044892D01*
X149603148Y-102044879D01*
X149631020Y-101960767D01*
X149670792Y-101903322D01*
X149735308Y-101876498D01*
X149804084Y-101888813D01*
X149836407Y-101912089D01*
X150553181Y-102628863D01*
X150586666Y-102690186D01*
X150589500Y-102716544D01*
X150589500Y-102890614D01*
X150569815Y-102957653D01*
X150553181Y-102978295D01*
X150499493Y-103031982D01*
X150499488Y-103031988D01*
X150427017Y-103157511D01*
X150427016Y-103157515D01*
X150389500Y-103297525D01*
X150389500Y-103442475D01*
X150427016Y-103582485D01*
X150427017Y-103582488D01*
X150499488Y-103708011D01*
X150499490Y-103708013D01*
X150499491Y-103708015D01*
X150601985Y-103810509D01*
X150601986Y-103810510D01*
X150601988Y-103810511D01*
X150727511Y-103882982D01*
X150727512Y-103882982D01*
X150727515Y-103882984D01*
X150867525Y-103920500D01*
X150867528Y-103920500D01*
X151012472Y-103920500D01*
X151012475Y-103920500D01*
X151152485Y-103882984D01*
X151278015Y-103810509D01*
X151380509Y-103708015D01*
X151452984Y-103582485D01*
X151490500Y-103442475D01*
X151490500Y-103297525D01*
X151452984Y-103157515D01*
X151430154Y-103117973D01*
X151380511Y-103031988D01*
X151380506Y-103031982D01*
X151326819Y-102978295D01*
X151293334Y-102916972D01*
X151290500Y-102890614D01*
X151290500Y-102773053D01*
X151310185Y-102706014D01*
X151362989Y-102660259D01*
X151432147Y-102650315D01*
X151479598Y-102667515D01*
X151536712Y-102702744D01*
X151536718Y-102702747D01*
X151697593Y-102756055D01*
X151796883Y-102766199D01*
X151845199Y-102766198D01*
X151845200Y-102766198D01*
X151845200Y-102066200D01*
X151104803Y-102066200D01*
X151077396Y-102081164D01*
X151007704Y-102076178D01*
X150963360Y-102047678D01*
X149411177Y-100495495D01*
X149377692Y-100434172D01*
X149382675Y-100364485D01*
X149411012Y-100288514D01*
X149413944Y-100261244D01*
X149440682Y-100196693D01*
X149498074Y-100156845D01*
X149537233Y-100150500D01*
X151245700Y-100150500D01*
X151312739Y-100170185D01*
X151358494Y-100222989D01*
X151369700Y-100274500D01*
X151369700Y-100536680D01*
X151369701Y-100536690D01*
X151375787Y-100593314D01*
X151423573Y-100721428D01*
X151484638Y-100803002D01*
X151509055Y-100868466D01*
X151494203Y-100936739D01*
X151450470Y-100982849D01*
X151392470Y-101018624D01*
X151272627Y-101138467D01*
X151272624Y-101138471D01*
X151183657Y-101282707D01*
X151183652Y-101282718D01*
X151130344Y-101443593D01*
X151120200Y-101542877D01*
X151120200Y-101566200D01*
X151971200Y-101566200D01*
X152038239Y-101585885D01*
X152083994Y-101638689D01*
X152095200Y-101690200D01*
X152095200Y-101816200D01*
X152221200Y-101816200D01*
X152288239Y-101835885D01*
X152333994Y-101888689D01*
X152345200Y-101940200D01*
X152345200Y-102766199D01*
X152393508Y-102766199D01*
X152393522Y-102766198D01*
X152492807Y-102756055D01*
X152653681Y-102702747D01*
X152653692Y-102702742D01*
X152797928Y-102613775D01*
X152797932Y-102613772D01*
X152917772Y-102493932D01*
X152917775Y-102493928D01*
X153006742Y-102349692D01*
X153006747Y-102349681D01*
X153060055Y-102188806D01*
X153070199Y-102089522D01*
X153070199Y-102036245D01*
X153089882Y-101969205D01*
X153142686Y-101923450D01*
X153211844Y-101913505D01*
X153275400Y-101942529D01*
X153281880Y-101948562D01*
X153333788Y-102000470D01*
X153390998Y-102033500D01*
X153391000Y-102033501D01*
X153413709Y-102046613D01*
X153413711Y-102046613D01*
X153413712Y-102046614D01*
X153502856Y-102070500D01*
X153502857Y-102070500D01*
X153502858Y-102070500D01*
X156427942Y-102070500D01*
X156427944Y-102070500D01*
X156517088Y-102046614D01*
X156539802Y-102033500D01*
X156597012Y-102000470D01*
X156648923Y-101948558D01*
X156710240Y-101915076D01*
X156779932Y-101920059D01*
X156835866Y-101961930D01*
X156860284Y-102027394D01*
X156860600Y-102036240D01*
X156860600Y-102089506D01*
X156860601Y-102089523D01*
X156870744Y-102188807D01*
X156924052Y-102349681D01*
X156924057Y-102349692D01*
X157013024Y-102493928D01*
X157013027Y-102493932D01*
X157132867Y-102613772D01*
X157132871Y-102613775D01*
X157277107Y-102702742D01*
X157277118Y-102702747D01*
X157437993Y-102756055D01*
X157537283Y-102766199D01*
X157585599Y-102766198D01*
X157585600Y-102766198D01*
X157585600Y-101940200D01*
X157605285Y-101873161D01*
X157658089Y-101827406D01*
X157709600Y-101816200D01*
X157835600Y-101816200D01*
X157835600Y-101690200D01*
X157855285Y-101623161D01*
X157908089Y-101577406D01*
X157959600Y-101566200D01*
X158810599Y-101566200D01*
X158810599Y-101542892D01*
X158810598Y-101542877D01*
X158800455Y-101443592D01*
X158747147Y-101282718D01*
X158747142Y-101282707D01*
X158658175Y-101138471D01*
X158658172Y-101138467D01*
X158538332Y-101018627D01*
X158538328Y-101018624D01*
X158480330Y-100982850D01*
X158433605Y-100930902D01*
X158422384Y-100861939D01*
X158446158Y-100803005D01*
X158507228Y-100721426D01*
X158531701Y-100655812D01*
X158548354Y-100611166D01*
X158590225Y-100555232D01*
X158655690Y-100530816D01*
X158664535Y-100530500D01*
X159302833Y-100530500D01*
X159369872Y-100550185D01*
X159415627Y-100602989D01*
X159425571Y-100672147D01*
X159396546Y-100735703D01*
X159390514Y-100742181D01*
X159349827Y-100782867D01*
X159349824Y-100782871D01*
X159260857Y-100927107D01*
X159260852Y-100927118D01*
X159207544Y-101087993D01*
X159197400Y-101187277D01*
X159197400Y-101210600D01*
X161147399Y-101210600D01*
X161147399Y-101187292D01*
X161147398Y-101187277D01*
X161137255Y-101087992D01*
X161083947Y-100927118D01*
X161083942Y-100927107D01*
X160994975Y-100782871D01*
X160994972Y-100782867D01*
X160875132Y-100663027D01*
X160875128Y-100663024D01*
X160817130Y-100627250D01*
X160770405Y-100575302D01*
X160759184Y-100506339D01*
X160782958Y-100447405D01*
X160844028Y-100365826D01*
X160891812Y-100237714D01*
X160896080Y-100198015D01*
X160897899Y-100181101D01*
X160897899Y-100181094D01*
X160897900Y-100181085D01*
X160897899Y-99732143D01*
X160917583Y-99665105D01*
X160934213Y-99644467D01*
X161088864Y-99489816D01*
X161150186Y-99456334D01*
X161176544Y-99453500D01*
X162353614Y-99453500D01*
X162420653Y-99473185D01*
X162441294Y-99489818D01*
X162451985Y-99500509D01*
X162451986Y-99500510D01*
X162451988Y-99500511D01*
X162577511Y-99572982D01*
X162577512Y-99572982D01*
X162577515Y-99572984D01*
X162717525Y-99610500D01*
X162717528Y-99610500D01*
X162862472Y-99610500D01*
X162862475Y-99610500D01*
X163002485Y-99572984D01*
X163128015Y-99500509D01*
X163230509Y-99398015D01*
X163302984Y-99272485D01*
X163340500Y-99132475D01*
X163340500Y-98987525D01*
X163302984Y-98847515D01*
X163285953Y-98818017D01*
X163230511Y-98721988D01*
X163230506Y-98721982D01*
X163128017Y-98619493D01*
X163128011Y-98619488D01*
X163002488Y-98547017D01*
X163002489Y-98547017D01*
X162991006Y-98543940D01*
X162862475Y-98509500D01*
X162717525Y-98509500D01*
X162588993Y-98543940D01*
X162577511Y-98547017D01*
X162451988Y-98619488D01*
X162451982Y-98619493D01*
X162355295Y-98716181D01*
X162293972Y-98749666D01*
X162267614Y-98752500D01*
X161241380Y-98752500D01*
X161174341Y-98732815D01*
X161128586Y-98680011D01*
X161118642Y-98610853D01*
X161125198Y-98585167D01*
X161145587Y-98530500D01*
X161169091Y-98467483D01*
X161175500Y-98407873D01*
X161175499Y-97812128D01*
X161169091Y-97752517D01*
X161166356Y-97745185D01*
X161118797Y-97617671D01*
X161118793Y-97617664D01*
X161032547Y-97502455D01*
X161032544Y-97502452D01*
X160917335Y-97416206D01*
X160917329Y-97416203D01*
X160897529Y-97408818D01*
X160841596Y-97366946D01*
X160817179Y-97301482D01*
X160832031Y-97233209D01*
X160881437Y-97183804D01*
X160901860Y-97174930D01*
X160994117Y-97144359D01*
X160994124Y-97144356D01*
X161143345Y-97052315D01*
X161267315Y-96928345D01*
X161359356Y-96779124D01*
X161359358Y-96779119D01*
X161414505Y-96612697D01*
X161414506Y-96612690D01*
X161424999Y-96509986D01*
X161425000Y-96509973D01*
X161425000Y-96460000D01*
X160324000Y-96460000D01*
X160256961Y-96440315D01*
X160211206Y-96387511D01*
X160200000Y-96336000D01*
X160200000Y-96210000D01*
X160074000Y-96210000D01*
X160006961Y-96190315D01*
X159961206Y-96137511D01*
X159950000Y-96086000D01*
X159950000Y-95960000D01*
X160450000Y-95960000D01*
X161424999Y-95960000D01*
X161424999Y-95910028D01*
X161424998Y-95910013D01*
X161414505Y-95807302D01*
X161359358Y-95640880D01*
X161359356Y-95640875D01*
X161267315Y-95491654D01*
X161143345Y-95367684D01*
X160994124Y-95275643D01*
X160994119Y-95275641D01*
X160827697Y-95220494D01*
X160827690Y-95220493D01*
X160724986Y-95210000D01*
X160450000Y-95210000D01*
X160450000Y-95960000D01*
X159950000Y-95960000D01*
X159950000Y-95210000D01*
X159675029Y-95210000D01*
X159675012Y-95210001D01*
X159572302Y-95220494D01*
X159405880Y-95275641D01*
X159405875Y-95275643D01*
X159256654Y-95367684D01*
X159132684Y-95491654D01*
X159040643Y-95640875D01*
X159040642Y-95640878D01*
X159013254Y-95723530D01*
X158973481Y-95780974D01*
X158908965Y-95807797D01*
X158840189Y-95795482D01*
X158807867Y-95772206D01*
X158743345Y-95707684D01*
X158594124Y-95615643D01*
X158594119Y-95615641D01*
X158427697Y-95560494D01*
X158427690Y-95560493D01*
X158324986Y-95550000D01*
X158050000Y-95550000D01*
X158050000Y-96426000D01*
X158030315Y-96493039D01*
X157977511Y-96538794D01*
X157926000Y-96550000D01*
X157800000Y-96550000D01*
X157800000Y-96676000D01*
X157780315Y-96743039D01*
X157727511Y-96788794D01*
X157676000Y-96800000D01*
X156575001Y-96800000D01*
X156575001Y-96849988D01*
X156580438Y-96903204D01*
X156567668Y-96971896D01*
X156519787Y-97022781D01*
X156473269Y-97038744D01*
X156467527Y-97039500D01*
X156467525Y-97039500D01*
X156383611Y-97061985D01*
X156327511Y-97077017D01*
X156201988Y-97149488D01*
X156201982Y-97149493D01*
X156099493Y-97251982D01*
X156099488Y-97251988D01*
X156027017Y-97377511D01*
X156026545Y-97379271D01*
X155989500Y-97517525D01*
X155989500Y-97662475D01*
X156022737Y-97786515D01*
X156027017Y-97802488D01*
X156099488Y-97928011D01*
X156099490Y-97928013D01*
X156099491Y-97928015D01*
X156201985Y-98030509D01*
X156201986Y-98030510D01*
X156201988Y-98030511D01*
X156327511Y-98102982D01*
X156327512Y-98102982D01*
X156327515Y-98102984D01*
X156467525Y-98140500D01*
X156467528Y-98140500D01*
X156612473Y-98140500D01*
X156612475Y-98140500D01*
X156668406Y-98125513D01*
X156738255Y-98127175D01*
X156796118Y-98166336D01*
X156823623Y-98230565D01*
X156824500Y-98245287D01*
X156824500Y-98305700D01*
X156804815Y-98372739D01*
X156752011Y-98418494D01*
X156700500Y-98429700D01*
X156151375Y-98429700D01*
X156084336Y-98410015D01*
X156042050Y-98361215D01*
X156041247Y-98361654D01*
X156039229Y-98357959D01*
X156038581Y-98357211D01*
X156037826Y-98355390D01*
X156036993Y-98353864D01*
X155950747Y-98238655D01*
X155950744Y-98238652D01*
X155835535Y-98152406D01*
X155835528Y-98152402D01*
X155700682Y-98102108D01*
X155700683Y-98102108D01*
X155641083Y-98095701D01*
X155641081Y-98095700D01*
X155641073Y-98095700D01*
X155641064Y-98095700D01*
X154645329Y-98095700D01*
X154645323Y-98095701D01*
X154585716Y-98102108D01*
X154442559Y-98155503D01*
X154441673Y-98153129D01*
X154386454Y-98165128D01*
X154320996Y-98140694D01*
X154307651Y-98129127D01*
X154218017Y-98039493D01*
X154218011Y-98039488D01*
X154092488Y-97967017D01*
X154092489Y-97967017D01*
X154081006Y-97963940D01*
X153952475Y-97929500D01*
X153807525Y-97929500D01*
X153678993Y-97963940D01*
X153667511Y-97967017D01*
X153541988Y-98039488D01*
X153541982Y-98039493D01*
X153439493Y-98141982D01*
X153439488Y-98141988D01*
X153367017Y-98267511D01*
X153367016Y-98267515D01*
X153329500Y-98407525D01*
X153329500Y-98552475D01*
X153366487Y-98690509D01*
X153367017Y-98692488D01*
X153439488Y-98818011D01*
X153439490Y-98818013D01*
X153439491Y-98818015D01*
X153541985Y-98920509D01*
X153541986Y-98920510D01*
X153541988Y-98920511D01*
X153667511Y-98992982D01*
X153667512Y-98992982D01*
X153667515Y-98992984D01*
X153807525Y-99030500D01*
X153807528Y-99030500D01*
X153918810Y-99030500D01*
X153985849Y-99050185D01*
X154006490Y-99066818D01*
X154035689Y-99096016D01*
X154058838Y-99119165D01*
X154081889Y-99132473D01*
X154081891Y-99132475D01*
X154081892Y-99132475D01*
X154140100Y-99166082D01*
X154139287Y-99167490D01*
X154186303Y-99205375D01*
X154200631Y-99232766D01*
X154249402Y-99363528D01*
X154249406Y-99363535D01*
X154335652Y-99478744D01*
X154335655Y-99478747D01*
X154404663Y-99530407D01*
X154446534Y-99586341D01*
X154451518Y-99656032D01*
X154450127Y-99661766D01*
X154413429Y-99798725D01*
X154413429Y-99943361D01*
X154393744Y-100010400D01*
X154363741Y-100042627D01*
X154335657Y-100063650D01*
X154335653Y-100063654D01*
X154262170Y-100161814D01*
X154262167Y-100161819D01*
X154249404Y-100178869D01*
X154233775Y-100220771D01*
X154233767Y-100220789D01*
X154199110Y-100313711D01*
X154199109Y-100313715D01*
X154199109Y-100313717D01*
X154192700Y-100373327D01*
X154192700Y-100373334D01*
X154192700Y-100373335D01*
X154192700Y-100994070D01*
X154192701Y-100994076D01*
X154199108Y-101053683D01*
X154252503Y-101196841D01*
X154250561Y-101197565D01*
X154262913Y-101254350D01*
X154238494Y-101319814D01*
X154182559Y-101361683D01*
X154139229Y-101369500D01*
X153745544Y-101369500D01*
X153678505Y-101349815D01*
X153657863Y-101333181D01*
X153139634Y-100814952D01*
X153106149Y-100753629D01*
X153111133Y-100683937D01*
X153153005Y-100628004D01*
X153195218Y-100607498D01*
X153250021Y-100592814D01*
X153329945Y-100546670D01*
X153429796Y-100446819D01*
X153491119Y-100413334D01*
X153517477Y-100410500D01*
X153593405Y-100410500D01*
X153593408Y-100410500D01*
X153733418Y-100372984D01*
X153858948Y-100300509D01*
X153961442Y-100198015D01*
X154033917Y-100072485D01*
X154071433Y-99932475D01*
X154071433Y-99787525D01*
X154033917Y-99647515D01*
X154032154Y-99644462D01*
X153961444Y-99521988D01*
X153961439Y-99521982D01*
X153858950Y-99419493D01*
X153858944Y-99419488D01*
X153733421Y-99347017D01*
X153733422Y-99347017D01*
X153698542Y-99337671D01*
X153593408Y-99309500D01*
X153448458Y-99309500D01*
X153343324Y-99337671D01*
X153308444Y-99347017D01*
X153182921Y-99419488D01*
X153182915Y-99419493D01*
X153080426Y-99521982D01*
X153080421Y-99521988D01*
X153007950Y-99647511D01*
X153007948Y-99647516D01*
X152978204Y-99758519D01*
X152941839Y-99818179D01*
X152878992Y-99848707D01*
X152809616Y-99840412D01*
X152759163Y-99800734D01*
X152684888Y-99701514D01*
X152670729Y-99690915D01*
X152612754Y-99647515D01*
X152575428Y-99619573D01*
X152575426Y-99619572D01*
X152447314Y-99571788D01*
X152447312Y-99571787D01*
X152447310Y-99571787D01*
X152390701Y-99565700D01*
X152390685Y-99565700D01*
X151941744Y-99565700D01*
X151874705Y-99546015D01*
X151854063Y-99529381D01*
X151844213Y-99519531D01*
X151844208Y-99519527D01*
X151764291Y-99473387D01*
X151764287Y-99473385D01*
X151761042Y-99472516D01*
X151761042Y-99472515D01*
X151683373Y-99451705D01*
X151675144Y-99449500D01*
X151675143Y-99449500D01*
X150013597Y-99449500D01*
X149946558Y-99429815D01*
X149900803Y-99377011D01*
X149890859Y-99307853D01*
X149906210Y-99263499D01*
X149907711Y-99260900D01*
X149952984Y-99182485D01*
X149990500Y-99042475D01*
X149990500Y-98897525D01*
X149952984Y-98757515D01*
X149948452Y-98749666D01*
X149880511Y-98631988D01*
X149880506Y-98631982D01*
X149867705Y-98619181D01*
X149834220Y-98557858D01*
X149839204Y-98488166D01*
X149881076Y-98432233D01*
X149946540Y-98407816D01*
X149955386Y-98407500D01*
X150489741Y-98407500D01*
X150489744Y-98407500D01*
X150578888Y-98383614D01*
X150585387Y-98379862D01*
X150658812Y-98337470D01*
X150806924Y-98189357D01*
X150868241Y-98155876D01*
X150937933Y-98160860D01*
X150993867Y-98202731D01*
X151018284Y-98268195D01*
X151018600Y-98277040D01*
X151018600Y-98330306D01*
X151018601Y-98330323D01*
X151028744Y-98429607D01*
X151082052Y-98590481D01*
X151082057Y-98590492D01*
X151171024Y-98734728D01*
X151171027Y-98734732D01*
X151290867Y-98854572D01*
X151290871Y-98854575D01*
X151435107Y-98943542D01*
X151435118Y-98943547D01*
X151595993Y-98996855D01*
X151695283Y-99006999D01*
X152243600Y-99006999D01*
X152291908Y-99006999D01*
X152291922Y-99006998D01*
X152391207Y-98996855D01*
X152552081Y-98943547D01*
X152552092Y-98943542D01*
X152696328Y-98854575D01*
X152696332Y-98854572D01*
X152816172Y-98734732D01*
X152816175Y-98734728D01*
X152905142Y-98590492D01*
X152905147Y-98590481D01*
X152958455Y-98429606D01*
X152968599Y-98330322D01*
X152968600Y-98330309D01*
X152968600Y-98307000D01*
X152243600Y-98307000D01*
X152243600Y-99006999D01*
X151695283Y-99006999D01*
X151743599Y-99006998D01*
X151743600Y-99006998D01*
X151743600Y-98181000D01*
X151763285Y-98113961D01*
X151816089Y-98068206D01*
X151867600Y-98057000D01*
X151993600Y-98057000D01*
X151993600Y-97931000D01*
X152013285Y-97863961D01*
X152066089Y-97818206D01*
X152117600Y-97807000D01*
X152968599Y-97807000D01*
X152968599Y-97783692D01*
X152968598Y-97783677D01*
X152958455Y-97684392D01*
X152905147Y-97523518D01*
X152905142Y-97523507D01*
X152816175Y-97379271D01*
X152816172Y-97379267D01*
X152696332Y-97259427D01*
X152696328Y-97259424D01*
X152638330Y-97223650D01*
X152591605Y-97171702D01*
X152580384Y-97102739D01*
X152604158Y-97043805D01*
X152665228Y-96962226D01*
X152674202Y-96938163D01*
X152716073Y-96882233D01*
X152781537Y-96857816D01*
X152790383Y-96857500D01*
X153247934Y-96857500D01*
X153247936Y-96857500D01*
X153337080Y-96833614D01*
X153417004Y-96787470D01*
X153579637Y-96624837D01*
X153640960Y-96591352D01*
X153667318Y-96588518D01*
X153743246Y-96588518D01*
X153743249Y-96588518D01*
X153883259Y-96551002D01*
X154008789Y-96478527D01*
X154111283Y-96376033D01*
X154183758Y-96250503D01*
X154183889Y-96250013D01*
X156575000Y-96250013D01*
X156575000Y-96300000D01*
X157550000Y-96300000D01*
X157550000Y-95550000D01*
X157275029Y-95550000D01*
X157275012Y-95550001D01*
X157172302Y-95560494D01*
X157005880Y-95615641D01*
X157005875Y-95615643D01*
X156856654Y-95707684D01*
X156732684Y-95831654D01*
X156640643Y-95980875D01*
X156640641Y-95980880D01*
X156585494Y-96147302D01*
X156585493Y-96147309D01*
X156575000Y-96250013D01*
X154183889Y-96250013D01*
X154221274Y-96110493D01*
X154221274Y-95965543D01*
X154183758Y-95825533D01*
X154173232Y-95807302D01*
X154111285Y-95700006D01*
X154111280Y-95700000D01*
X154008791Y-95597511D01*
X154008789Y-95597509D01*
X153914914Y-95543310D01*
X153866699Y-95492742D01*
X153853477Y-95424135D01*
X153879445Y-95359271D01*
X153936359Y-95318743D01*
X153976811Y-95311923D01*
X156389024Y-95310000D01*
X156385921Y-94292141D01*
X156634499Y-94292141D01*
X156670449Y-94472869D01*
X156670451Y-94472875D01*
X156740969Y-94643122D01*
X156740974Y-94643131D01*
X156843349Y-94796345D01*
X156843352Y-94796349D01*
X156973650Y-94926647D01*
X156973654Y-94926650D01*
X157126868Y-95029025D01*
X157126874Y-95029028D01*
X157126875Y-95029029D01*
X157297125Y-95099549D01*
X157297129Y-95099549D01*
X157297130Y-95099550D01*
X157477858Y-95135500D01*
X157477861Y-95135500D01*
X157662141Y-95135500D01*
X157783732Y-95111313D01*
X157842875Y-95099549D01*
X158013125Y-95029029D01*
X158166346Y-94926650D01*
X158296650Y-94796346D01*
X158399029Y-94643125D01*
X158469549Y-94472875D01*
X158488586Y-94377170D01*
X158505500Y-94292141D01*
X158505500Y-94107858D01*
X158469550Y-93927130D01*
X158469549Y-93927129D01*
X158469549Y-93927125D01*
X158399029Y-93756875D01*
X158399028Y-93756874D01*
X158399025Y-93756868D01*
X158296650Y-93603654D01*
X158296647Y-93603650D01*
X158166349Y-93473352D01*
X158166345Y-93473349D01*
X158013131Y-93370974D01*
X158013122Y-93370969D01*
X157842875Y-93300451D01*
X157842869Y-93300449D01*
X157662141Y-93264500D01*
X157662139Y-93264500D01*
X157477861Y-93264500D01*
X157477859Y-93264500D01*
X157297130Y-93300449D01*
X157297124Y-93300451D01*
X157126877Y-93370969D01*
X157126868Y-93370974D01*
X156973654Y-93473349D01*
X156973650Y-93473352D01*
X156843352Y-93603650D01*
X156843349Y-93603654D01*
X156740974Y-93756868D01*
X156740969Y-93756877D01*
X156670451Y-93927124D01*
X156670449Y-93927130D01*
X156634500Y-94107858D01*
X156634500Y-94107861D01*
X156634500Y-94292139D01*
X156634500Y-94292141D01*
X156634499Y-94292141D01*
X156385921Y-94292141D01*
X156381569Y-92864875D01*
X156401049Y-92797779D01*
X156453713Y-92751863D01*
X156505568Y-92740500D01*
X168484108Y-92740500D01*
X168547439Y-92740500D01*
X168552562Y-92740605D01*
G37*
%TD.AperFunction*%
%TD*%
%TA.AperFunction,Conductor*%
%TO.N,GNDPWR*%
G36*
X143301449Y-92745521D02*
G01*
X143314768Y-92749432D01*
X143373546Y-92787206D01*
X143402572Y-92850761D01*
X143403782Y-92859176D01*
X143400819Y-92908917D01*
X143384200Y-92970941D01*
X143384200Y-93129056D01*
X143418872Y-93258457D01*
X143418883Y-93258493D01*
X143425122Y-93281781D01*
X143425125Y-93281788D01*
X143425128Y-93281793D01*
X143502329Y-93415513D01*
X143503712Y-93418084D01*
X143504098Y-93418634D01*
X143616036Y-93530572D01*
X143616552Y-93530952D01*
X143619175Y-93532363D01*
X143752909Y-93609573D01*
X143752916Y-93609577D01*
X143905643Y-93650500D01*
X143984971Y-93650500D01*
X144019903Y-93655521D01*
X144045147Y-93662934D01*
X144097893Y-93694230D01*
X144144138Y-93740475D01*
X144144139Y-93740476D01*
X144144141Y-93740477D01*
X144226296Y-93787909D01*
X144228865Y-93789504D01*
X144229759Y-93789909D01*
X144229761Y-93789909D01*
X144229762Y-93789910D01*
X144277511Y-93802705D01*
X144277512Y-93802705D01*
X144285312Y-93804795D01*
X144285326Y-93804798D01*
X144287563Y-93805397D01*
X144287599Y-93805419D01*
X144287603Y-93805408D01*
X144325264Y-93815500D01*
X144325265Y-93815500D01*
X144325266Y-93815500D01*
X148424435Y-93815500D01*
X148424436Y-93815500D01*
X148472186Y-93802705D01*
X148519938Y-93789910D01*
X148605562Y-93740475D01*
X148675475Y-93670562D01*
X149106613Y-93239423D01*
X149134863Y-93218275D01*
X149157955Y-93205667D01*
X149217380Y-93190500D01*
X150880271Y-93190500D01*
X150915203Y-93195521D01*
X150940447Y-93202934D01*
X150993193Y-93234230D01*
X151508999Y-93750036D01*
X151530151Y-93778292D01*
X151537643Y-93792013D01*
X151552494Y-93860281D01*
X151551580Y-93873065D01*
X151543526Y-93902610D01*
X151543972Y-93902683D01*
X151543718Y-93904247D01*
X151545057Y-93904706D01*
X151542918Y-93910949D01*
X151542692Y-93911579D01*
X151542514Y-93912115D01*
X151542288Y-93912782D01*
X151541942Y-93914699D01*
X151504500Y-94102929D01*
X151504500Y-94252696D01*
X151499237Y-94270616D01*
X151542368Y-94487442D01*
X151542369Y-94487448D01*
X151542376Y-94487469D01*
X151555516Y-94519191D01*
X151616661Y-94666807D01*
X151715958Y-94815417D01*
X151736835Y-94882094D01*
X151718350Y-94949474D01*
X151666371Y-94996164D01*
X151612954Y-95008307D01*
X148810831Y-95010542D01*
X148782907Y-95011844D01*
X148760259Y-95013940D01*
X148758089Y-95014149D01*
X148694781Y-95032668D01*
X148650332Y-95045670D01*
X148650330Y-95045670D01*
X148650330Y-95045671D01*
X148588015Y-95077275D01*
X148536256Y-95110464D01*
X148536252Y-95110468D01*
X148527521Y-95120524D01*
X148468703Y-95158236D01*
X148398833Y-95158162D01*
X148348900Y-95129511D01*
X148311055Y-95093885D01*
X148210942Y-95043082D01*
X148210936Y-95043080D01*
X148143884Y-95023450D01*
X148057810Y-95011144D01*
X148057809Y-95011144D01*
X148057805Y-95011144D01*
X144790555Y-95013749D01*
X143973742Y-95014401D01*
X143973727Y-95014402D01*
X143908836Y-95021429D01*
X143908817Y-95021433D01*
X143857354Y-95032668D01*
X143857332Y-95032673D01*
X143819150Y-95043654D01*
X143819139Y-95043659D01*
X143722282Y-95100395D01*
X143722274Y-95100402D01*
X143669511Y-95146185D01*
X143669498Y-95146197D01*
X143627355Y-95190956D01*
X143576538Y-95291072D01*
X143556900Y-95358129D01*
X143544587Y-95444198D01*
X143544587Y-95444205D01*
X143545582Y-96858031D01*
X143547459Y-99527198D01*
X143547459Y-99527206D01*
X143548730Y-101333396D01*
X143549048Y-101784937D01*
X143549185Y-101981251D01*
X143529547Y-102048305D01*
X143476775Y-102094096D01*
X143425979Y-102105335D01*
X141360538Y-102118554D01*
X141360537Y-102118554D01*
X139124363Y-102132864D01*
X139057199Y-102113609D01*
X139026886Y-102086508D01*
X139024429Y-102083448D01*
X139024428Y-102083447D01*
X139024427Y-102083446D01*
X138932615Y-102018839D01*
X138932603Y-102018832D01*
X138869068Y-101989817D01*
X138869061Y-101989814D01*
X138869056Y-101989812D01*
X138839947Y-101979920D01*
X138810840Y-101970028D01*
X138810646Y-101970019D01*
X138808446Y-101969927D01*
X138806182Y-101969157D01*
X138802122Y-101968399D01*
X138802231Y-101967815D01*
X138742294Y-101947444D01*
X138698798Y-101892764D01*
X138695340Y-101883147D01*
X138525841Y-101342744D01*
X138524560Y-101272886D01*
X138552395Y-101222235D01*
X138603944Y-101165515D01*
X138603948Y-101165511D01*
X138640639Y-101106051D01*
X138667499Y-101050739D01*
X138686102Y-100940020D01*
X138684821Y-100870162D01*
X138670870Y-100784334D01*
X138331483Y-99702289D01*
X138306259Y-99643957D01*
X138281106Y-99599235D01*
X138260468Y-99567356D01*
X138217308Y-99527206D01*
X138178263Y-99490885D01*
X138119244Y-99453515D01*
X138119240Y-99453512D01*
X138119234Y-99453509D01*
X138039894Y-99417920D01*
X135875625Y-98798236D01*
X135781547Y-98771299D01*
X135738106Y-98762218D01*
X135738078Y-98762213D01*
X135738076Y-98762213D01*
X135702438Y-98757433D01*
X135702437Y-98757433D01*
X135665474Y-98755193D01*
X135658083Y-98754745D01*
X135658082Y-98754745D01*
X135409162Y-98757795D01*
X132116018Y-98798152D01*
X132048744Y-98779291D01*
X132002345Y-98727052D01*
X131990500Y-98674162D01*
X131990500Y-98243820D01*
X131990525Y-98241344D01*
X131990580Y-98238646D01*
X131990658Y-98236176D01*
X131994332Y-98147346D01*
X132008966Y-97793523D01*
X132009283Y-97788418D01*
X132009701Y-97783368D01*
X132010226Y-97778293D01*
X132064559Y-97342400D01*
X132065286Y-97337409D01*
X132066141Y-97332284D01*
X132067068Y-97327352D01*
X132157215Y-96897420D01*
X132158359Y-96892482D01*
X132159619Y-96887507D01*
X132160962Y-96882630D01*
X132286293Y-96461647D01*
X132287857Y-96456770D01*
X132289512Y-96451952D01*
X132291269Y-96447161D01*
X132450912Y-96038027D01*
X132452861Y-96033323D01*
X132454947Y-96028569D01*
X132457076Y-96023976D01*
X132514225Y-95907078D01*
X132649981Y-95629384D01*
X132652270Y-95624935D01*
X132654752Y-95620350D01*
X132657272Y-95615917D01*
X132660033Y-95611284D01*
X132882100Y-95238606D01*
X132884796Y-95234290D01*
X132887592Y-95230011D01*
X132890442Y-95225838D01*
X133145682Y-94868352D01*
X133148686Y-94864322D01*
X133151879Y-94860219D01*
X133155065Y-94856297D01*
X133438939Y-94521129D01*
X133442286Y-94517338D01*
X133445793Y-94513528D01*
X133449298Y-94509876D01*
X133759876Y-94199298D01*
X133763528Y-94195793D01*
X133767338Y-94192286D01*
X133771129Y-94188939D01*
X134106297Y-93905065D01*
X134110219Y-93901879D01*
X134114322Y-93898686D01*
X134118352Y-93895682D01*
X134475838Y-93640442D01*
X134480028Y-93637581D01*
X134484307Y-93634786D01*
X134488644Y-93632078D01*
X134865971Y-93407239D01*
X134870386Y-93404732D01*
X134874915Y-93402281D01*
X134879392Y-93399977D01*
X135273999Y-93207065D01*
X135278592Y-93204936D01*
X135283330Y-93202858D01*
X135288019Y-93200916D01*
X135697176Y-93041263D01*
X135701952Y-93039512D01*
X135706783Y-93037852D01*
X135711647Y-93036293D01*
X136132630Y-92910962D01*
X136137507Y-92909619D01*
X136142482Y-92908359D01*
X136147420Y-92907215D01*
X136577352Y-92817068D01*
X136582284Y-92816141D01*
X136587409Y-92815286D01*
X136592400Y-92814559D01*
X137028293Y-92760226D01*
X137033346Y-92759703D01*
X137036935Y-92759405D01*
X137038418Y-92759283D01*
X137043518Y-92758966D01*
X137486205Y-92740655D01*
X137488657Y-92740579D01*
X137491358Y-92740524D01*
X137493832Y-92740500D01*
X143266517Y-92740500D01*
X143301449Y-92745521D01*
G37*
%TD.AperFunction*%
%TD*%
M02*
