ISO-10303-21;
HEADER;
/* Generated by software containing ST-Developer
 * from STEP Tools, Inc. (www.steptools.com) 
 */
/* OPTION: using custom renumber hook */

FILE_DESCRIPTION(
/* description */ ('STEP AP242',
'CAx-IF Rec.Pracs.---Representation and Presentation of Product Manufa
cturing Information (PMI)---4.0---2014-10-13',
'CAx-IF Rec.Pracs.---3D Tessellated Geometry---0.4---2014-09-14','2;1'),

/* implementation_level */ '2;1');

FILE_NAME(
/* name */ 'CES-101-01-T-S',
/* time_stamp */ '2026-09-07T21:12:04+02:00',
/* author */ ('License CC BY-ND 4.0'),
/* organization */ ('CADENAS'),
/* preprocessor_version */ 'ST-DEVELOPER v20',
/* originating_system */ 'PARTsolutions',
/* authorisation */ '  ');

FILE_SCHEMA (('AP242_MANAGED_MODEL_BASED_3D_ENGINEERING_MIM_LF { 1 0 10303 442 1 1 4 }'));
ENDSEC;

DATA;
#10=CIRCLE('',#979,0.015);
#11=CIRCLE('',#980,0.015);
#12=CIRCLE('',#985,0.005);
#13=CIRCLE('',#986,0.005);
#14=CYLINDRICAL_SURFACE('',#978,0.015);
#15=CYLINDRICAL_SURFACE('',#984,0.005);
#16=CONTEXT_DEPENDENT_SHAPE_REPRESENTATION(#22,#1490);
#17=CONTEXT_DEPENDENT_SHAPE_REPRESENTATION(#23,#1492);
#18=CONTEXT_DEPENDENT_SHAPE_REPRESENTATION(#24,#1494);
#19=NEXT_ASSEMBLY_USAGE_OCCURRENCE('NAUO1','CES-101-01-S_socket',
'CES-101-01-S_socket',#1495,#1496,'');
#20=NEXT_ASSEMBLY_USAGE_OCCURRENCE('NAUO2','010101TS','010101TS',#1495,
#1497,'');
#21=NEXT_ASSEMBLY_USAGE_OCCURRENCE('NAUO3','010101TS2','010101TS2',#1495,
#1498,'');
#22=(
REPRESENTATION_RELATIONSHIP(' ',' ',#934,#933)
REPRESENTATION_RELATIONSHIP_WITH_TRANSFORMATION(#25)
SHAPE_REPRESENTATION_RELATIONSHIP()
);
#23=(
REPRESENTATION_RELATIONSHIP(' ',' ',#935,#933)
REPRESENTATION_RELATIONSHIP_WITH_TRANSFORMATION(#26)
SHAPE_REPRESENTATION_RELATIONSHIP()
);
#24=(
REPRESENTATION_RELATIONSHIP(' ',' ',#936,#933)
REPRESENTATION_RELATIONSHIP_WITH_TRANSFORMATION(#27)
SHAPE_REPRESENTATION_RELATIONSHIP()
);
#25=ITEM_DEFINED_TRANSFORMATION(' ',' ',#937,#965);
#26=ITEM_DEFINED_TRANSFORMATION(' ',' ',#937,#972);
#27=ITEM_DEFINED_TRANSFORMATION(' ',' ',#937,#992);
#28=SHAPE_REPRESENTATION_RELATIONSHIP('','',#934,#31);
#29=SHAPE_REPRESENTATION_RELATIONSHIP('','',#935,#32);
#30=SHAPE_REPRESENTATION_RELATIONSHIP('','',#936,#33);
#31=ADVANCED_BREP_SHAPE_REPRESENTATION('',(#926),#1475);
#32=ADVANCED_BREP_SHAPE_REPRESENTATION('',(#927),#1476);
#33=ADVANCED_BREP_SHAPE_REPRESENTATION('',(#928),#1477);
#34=ORIENTED_EDGE('',*,*,#274,.T.);
#35=ORIENTED_EDGE('',*,*,#275,.T.);
#36=ORIENTED_EDGE('',*,*,#276,.T.);
#37=ORIENTED_EDGE('',*,*,#277,.F.);
#38=ORIENTED_EDGE('',*,*,#278,.T.);
#39=ORIENTED_EDGE('',*,*,#279,.F.);
#40=ORIENTED_EDGE('',*,*,#280,.T.);
#41=ORIENTED_EDGE('',*,*,#281,.F.);
#42=ORIENTED_EDGE('',*,*,#282,.F.);
#43=ORIENTED_EDGE('',*,*,#283,.T.);
#44=ORIENTED_EDGE('',*,*,#284,.F.);
#45=ORIENTED_EDGE('',*,*,#285,.F.);
#46=ORIENTED_EDGE('',*,*,#286,.F.);
#47=ORIENTED_EDGE('',*,*,#287,.T.);
#48=ORIENTED_EDGE('',*,*,#288,.T.);
#49=ORIENTED_EDGE('',*,*,#289,.F.);
#50=ORIENTED_EDGE('',*,*,#290,.T.);
#51=ORIENTED_EDGE('',*,*,#291,.T.);
#52=ORIENTED_EDGE('',*,*,#286,.T.);
#53=ORIENTED_EDGE('',*,*,#292,.T.);
#54=ORIENTED_EDGE('',*,*,#293,.T.);
#55=ORIENTED_EDGE('',*,*,#294,.F.);
#56=ORIENTED_EDGE('',*,*,#295,.F.);
#57=ORIENTED_EDGE('',*,*,#296,.T.);
#58=ORIENTED_EDGE('',*,*,#284,.T.);
#59=ORIENTED_EDGE('',*,*,#297,.F.);
#60=ORIENTED_EDGE('',*,*,#298,.F.);
#61=ORIENTED_EDGE('',*,*,#299,.F.);
#62=ORIENTED_EDGE('',*,*,#300,.F.);
#63=ORIENTED_EDGE('',*,*,#301,.T.);
#64=ORIENTED_EDGE('',*,*,#302,.F.);
#65=ORIENTED_EDGE('',*,*,#303,.F.);
#66=ORIENTED_EDGE('',*,*,#304,.F.);
#67=ORIENTED_EDGE('',*,*,#305,.F.);
#68=ORIENTED_EDGE('',*,*,#306,.F.);
#69=ORIENTED_EDGE('',*,*,#307,.F.);
#70=ORIENTED_EDGE('',*,*,#308,.T.);
#71=ORIENTED_EDGE('',*,*,#277,.T.);
#72=ORIENTED_EDGE('',*,*,#309,.F.);
#73=ORIENTED_EDGE('',*,*,#310,.T.);
#74=ORIENTED_EDGE('',*,*,#300,.T.);
#75=ORIENTED_EDGE('',*,*,#311,.T.);
#76=ORIENTED_EDGE('',*,*,#312,.T.);
#77=ORIENTED_EDGE('',*,*,#281,.T.);
#78=ORIENTED_EDGE('',*,*,#313,.F.);
#79=ORIENTED_EDGE('',*,*,#314,.T.);
#80=ORIENTED_EDGE('',*,*,#295,.T.);
#81=ORIENTED_EDGE('',*,*,#315,.T.);
#82=ORIENTED_EDGE('',*,*,#316,.F.);
#83=ORIENTED_EDGE('',*,*,#317,.F.);
#84=ORIENTED_EDGE('',*,*,#290,.F.);
#85=ORIENTED_EDGE('',*,*,#318,.F.);
#86=ORIENTED_EDGE('',*,*,#319,.F.);
#87=ORIENTED_EDGE('',*,*,#279,.T.);
#88=ORIENTED_EDGE('',*,*,#320,.F.);
#89=ORIENTED_EDGE('',*,*,#321,.F.);
#90=ORIENTED_EDGE('',*,*,#298,.T.);
#91=ORIENTED_EDGE('',*,*,#322,.F.);
#92=ORIENTED_EDGE('',*,*,#323,.T.);
#93=ORIENTED_EDGE('',*,*,#324,.T.);
#94=ORIENTED_EDGE('',*,*,#302,.T.);
#95=ORIENTED_EDGE('',*,*,#325,.F.);
#96=ORIENTED_EDGE('',*,*,#326,.F.);
#97=ORIENTED_EDGE('',*,*,#275,.F.);
#98=ORIENTED_EDGE('',*,*,#327,.F.);
#99=ORIENTED_EDGE('',*,*,#328,.F.);
#100=ORIENTED_EDGE('',*,*,#293,.F.);
#101=ORIENTED_EDGE('',*,*,#329,.T.);
#102=ORIENTED_EDGE('',*,*,#330,.F.);
#103=ORIENTED_EDGE('',*,*,#282,.T.);
#104=ORIENTED_EDGE('',*,*,#331,.F.);
#105=ORIENTED_EDGE('',*,*,#323,.F.);
#106=ORIENTED_EDGE('',*,*,#332,.F.);
#107=ORIENTED_EDGE('',*,*,#316,.T.);
#108=ORIENTED_EDGE('',*,*,#333,.F.);
#109=ORIENTED_EDGE('',*,*,#288,.F.);
#110=ORIENTED_EDGE('',*,*,#276,.F.);
#111=ORIENTED_EDGE('',*,*,#326,.T.);
#112=ORIENTED_EDGE('',*,*,#334,.F.);
#113=ORIENTED_EDGE('',*,*,#309,.T.);
#114=ORIENTED_EDGE('',*,*,#334,.T.);
#115=ORIENTED_EDGE('',*,*,#325,.T.);
#116=ORIENTED_EDGE('',*,*,#301,.F.);
#117=ORIENTED_EDGE('',*,*,#310,.F.);
#118=ORIENTED_EDGE('',*,*,#299,.T.);
#119=ORIENTED_EDGE('',*,*,#321,.T.);
#120=ORIENTED_EDGE('',*,*,#335,.F.);
#121=ORIENTED_EDGE('',*,*,#311,.F.);
#122=ORIENTED_EDGE('',*,*,#335,.T.);
#123=ORIENTED_EDGE('',*,*,#320,.T.);
#124=ORIENTED_EDGE('',*,*,#278,.F.);
#125=ORIENTED_EDGE('',*,*,#312,.F.);
#126=ORIENTED_EDGE('',*,*,#280,.F.);
#127=ORIENTED_EDGE('',*,*,#319,.T.);
#128=ORIENTED_EDGE('',*,*,#336,.F.);
#129=ORIENTED_EDGE('',*,*,#313,.T.);
#130=ORIENTED_EDGE('',*,*,#336,.T.);
#131=ORIENTED_EDGE('',*,*,#318,.T.);
#132=ORIENTED_EDGE('',*,*,#296,.F.);
#133=ORIENTED_EDGE('',*,*,#314,.F.);
#134=ORIENTED_EDGE('',*,*,#337,.T.);
#135=ORIENTED_EDGE('',*,*,#327,.T.);
#136=ORIENTED_EDGE('',*,*,#274,.F.);
#137=ORIENTED_EDGE('',*,*,#308,.F.);
#138=ORIENTED_EDGE('',*,*,#294,.T.);
#139=ORIENTED_EDGE('',*,*,#328,.T.);
#140=ORIENTED_EDGE('',*,*,#337,.F.);
#141=ORIENTED_EDGE('',*,*,#315,.F.);
#142=ORIENTED_EDGE('',*,*,#333,.T.);
#143=ORIENTED_EDGE('',*,*,#329,.F.);
#144=ORIENTED_EDGE('',*,*,#292,.F.);
#145=ORIENTED_EDGE('',*,*,#289,.T.);
#146=ORIENTED_EDGE('',*,*,#331,.T.);
#147=ORIENTED_EDGE('',*,*,#285,.T.);
#148=ORIENTED_EDGE('',*,*,#303,.T.);
#149=ORIENTED_EDGE('',*,*,#324,.F.);
#150=ORIENTED_EDGE('',*,*,#332,.T.);
#151=ORIENTED_EDGE('',*,*,#287,.F.);
#152=ORIENTED_EDGE('',*,*,#291,.F.);
#153=ORIENTED_EDGE('',*,*,#317,.T.);
#154=ORIENTED_EDGE('',*,*,#330,.T.);
#155=ORIENTED_EDGE('',*,*,#322,.T.);
#156=ORIENTED_EDGE('',*,*,#297,.T.);
#157=ORIENTED_EDGE('',*,*,#283,.F.);
#158=ORIENTED_EDGE('',*,*,#304,.T.);
#159=ORIENTED_EDGE('',*,*,#338,.F.);
#160=ORIENTED_EDGE('',*,*,#339,.F.);
#161=ORIENTED_EDGE('',*,*,#340,.T.);
#162=ORIENTED_EDGE('',*,*,#307,.T.);
#163=ORIENTED_EDGE('',*,*,#341,.F.);
#164=ORIENTED_EDGE('',*,*,#342,.F.);
#165=ORIENTED_EDGE('',*,*,#338,.T.);
#166=ORIENTED_EDGE('',*,*,#306,.T.);
#167=ORIENTED_EDGE('',*,*,#343,.F.);
#168=ORIENTED_EDGE('',*,*,#344,.F.);
#169=ORIENTED_EDGE('',*,*,#341,.T.);
#170=ORIENTED_EDGE('',*,*,#305,.T.);
#171=ORIENTED_EDGE('',*,*,#340,.F.);
#172=ORIENTED_EDGE('',*,*,#345,.F.);
#173=ORIENTED_EDGE('',*,*,#343,.T.);
#174=ORIENTED_EDGE('',*,*,#339,.T.);
#175=ORIENTED_EDGE('',*,*,#342,.T.);
#176=ORIENTED_EDGE('',*,*,#344,.T.);
#177=ORIENTED_EDGE('',*,*,#345,.T.);
#178=ORIENTED_EDGE('',*,*,#346,.T.);
#179=ORIENTED_EDGE('',*,*,#347,.T.);
#180=ORIENTED_EDGE('',*,*,#348,.T.);
#181=ORIENTED_EDGE('',*,*,#349,.T.);
#182=ORIENTED_EDGE('',*,*,#350,.F.);
#183=ORIENTED_EDGE('',*,*,#351,.F.);
#184=ORIENTED_EDGE('',*,*,#352,.F.);
#185=ORIENTED_EDGE('',*,*,#353,.F.);
#186=ORIENTED_EDGE('',*,*,#352,.T.);
#187=ORIENTED_EDGE('',*,*,#354,.F.);
#188=ORIENTED_EDGE('',*,*,#348,.F.);
#189=ORIENTED_EDGE('',*,*,#355,.T.);
#190=ORIENTED_EDGE('',*,*,#351,.T.);
#191=ORIENTED_EDGE('',*,*,#356,.F.);
#192=ORIENTED_EDGE('',*,*,#349,.F.);
#193=ORIENTED_EDGE('',*,*,#354,.T.);
#194=ORIENTED_EDGE('',*,*,#350,.T.);
#195=ORIENTED_EDGE('',*,*,#357,.F.);
#196=ORIENTED_EDGE('',*,*,#346,.F.);
#197=ORIENTED_EDGE('',*,*,#356,.T.);
#198=ORIENTED_EDGE('',*,*,#353,.T.);
#199=ORIENTED_EDGE('',*,*,#355,.F.);
#200=ORIENTED_EDGE('',*,*,#347,.F.);
#201=ORIENTED_EDGE('',*,*,#357,.T.);
#202=ORIENTED_EDGE('',*,*,#358,.T.);
#203=ORIENTED_EDGE('',*,*,#359,.T.);
#204=ORIENTED_EDGE('',*,*,#360,.T.);
#205=ORIENTED_EDGE('',*,*,#361,.T.);
#206=ORIENTED_EDGE('',*,*,#362,.F.);
#207=ORIENTED_EDGE('',*,*,#363,.F.);
#208=ORIENTED_EDGE('',*,*,#364,.F.);
#209=ORIENTED_EDGE('',*,*,#365,.F.);
#210=ORIENTED_EDGE('',*,*,#366,.F.);
#211=ORIENTED_EDGE('',*,*,#365,.T.);
#212=ORIENTED_EDGE('',*,*,#367,.F.);
#213=ORIENTED_EDGE('',*,*,#360,.F.);
#214=ORIENTED_EDGE('',*,*,#368,.F.);
#215=ORIENTED_EDGE('',*,*,#358,.F.);
#216=ORIENTED_EDGE('',*,*,#369,.T.);
#217=ORIENTED_EDGE('',*,*,#363,.T.);
#218=ORIENTED_EDGE('',*,*,#370,.F.);
#219=ORIENTED_EDGE('',*,*,#371,.T.);
#220=ORIENTED_EDGE('',*,*,#372,.F.);
#221=ORIENTED_EDGE('',*,*,#373,.F.);
#222=ORIENTED_EDGE('',*,*,#374,.F.);
#223=ORIENTED_EDGE('',*,*,#373,.T.);
#224=ORIENTED_EDGE('',*,*,#375,.F.);
#225=ORIENTED_EDGE('',*,*,#376,.F.);
#226=ORIENTED_EDGE('',*,*,#377,.F.);
#227=ORIENTED_EDGE('',*,*,#376,.T.);
#228=ORIENTED_EDGE('',*,*,#378,.F.);
#229=ORIENTED_EDGE('',*,*,#379,.F.);
#230=ORIENTED_EDGE('',*,*,#380,.F.);
#231=ORIENTED_EDGE('',*,*,#379,.T.);
#232=ORIENTED_EDGE('',*,*,#381,.T.);
#233=ORIENTED_EDGE('',*,*,#382,.F.);
#234=ORIENTED_EDGE('',*,*,#383,.F.);
#235=ORIENTED_EDGE('',*,*,#382,.T.);
#236=ORIENTED_EDGE('',*,*,#384,.F.);
#237=ORIENTED_EDGE('',*,*,#385,.F.);
#238=ORIENTED_EDGE('',*,*,#386,.F.);
#239=ORIENTED_EDGE('',*,*,#387,.T.);
#240=ORIENTED_EDGE('',*,*,#385,.T.);
#241=ORIENTED_EDGE('',*,*,#388,.T.);
#242=ORIENTED_EDGE('',*,*,#389,.F.);
#243=ORIENTED_EDGE('',*,*,#386,.T.);
#244=ORIENTED_EDGE('',*,*,#390,.F.);
#245=ORIENTED_EDGE('',*,*,#391,.F.);
#246=ORIENTED_EDGE('',*,*,#371,.F.);
#247=ORIENTED_EDGE('',*,*,#392,.T.);
#248=ORIENTED_EDGE('',*,*,#391,.T.);
#249=ORIENTED_EDGE('',*,*,#393,.F.);
#250=ORIENTED_EDGE('',*,*,#364,.T.);
#251=ORIENTED_EDGE('',*,*,#369,.F.);
#252=ORIENTED_EDGE('',*,*,#361,.F.);
#253=ORIENTED_EDGE('',*,*,#367,.T.);
#254=ORIENTED_EDGE('',*,*,#372,.T.);
#255=ORIENTED_EDGE('',*,*,#393,.T.);
#256=ORIENTED_EDGE('',*,*,#390,.T.);
#257=ORIENTED_EDGE('',*,*,#388,.F.);
#258=ORIENTED_EDGE('',*,*,#384,.T.);
#259=ORIENTED_EDGE('',*,*,#381,.F.);
#260=ORIENTED_EDGE('',*,*,#378,.T.);
#261=ORIENTED_EDGE('',*,*,#375,.T.);
#262=ORIENTED_EDGE('',*,*,#370,.T.);
#263=ORIENTED_EDGE('',*,*,#374,.T.);
#264=ORIENTED_EDGE('',*,*,#377,.T.);
#265=ORIENTED_EDGE('',*,*,#380,.T.);
#266=ORIENTED_EDGE('',*,*,#383,.T.);
#267=ORIENTED_EDGE('',*,*,#387,.F.);
#268=ORIENTED_EDGE('',*,*,#389,.T.);
#269=ORIENTED_EDGE('',*,*,#392,.F.);
#270=ORIENTED_EDGE('',*,*,#366,.T.);
#271=ORIENTED_EDGE('',*,*,#359,.F.);
#272=ORIENTED_EDGE('',*,*,#368,.T.);
#273=ORIENTED_EDGE('',*,*,#362,.T.);
#274=EDGE_CURVE('',#394,#395,#474,.T.);
#275=EDGE_CURVE('',#395,#396,#475,.T.);
#276=EDGE_CURVE('',#396,#397,#476,.T.);
#277=EDGE_CURVE('',#394,#397,#477,.T.);
#278=EDGE_CURVE('',#398,#399,#478,.T.);
#279=EDGE_CURVE('',#400,#399,#479,.T.);
#280=EDGE_CURVE('',#400,#401,#480,.T.);
#281=EDGE_CURVE('',#398,#401,#481,.T.);
#282=EDGE_CURVE('',#402,#403,#482,.T.);
#283=EDGE_CURVE('',#402,#404,#483,.T.);
#284=EDGE_CURVE('',#405,#404,#484,.T.);
#285=EDGE_CURVE('',#403,#405,#485,.T.);
#286=EDGE_CURVE('',#406,#407,#486,.T.);
#287=EDGE_CURVE('',#406,#408,#487,.T.);
#288=EDGE_CURVE('',#408,#409,#488,.T.);
#289=EDGE_CURVE('',#407,#409,#489,.T.);
#290=EDGE_CURVE('',#410,#411,#490,.T.);
#291=EDGE_CURVE('',#411,#406,#491,.T.);
#292=EDGE_CURVE('',#407,#412,#492,.T.);
#293=EDGE_CURVE('',#412,#413,#493,.T.);
#294=EDGE_CURVE('',#414,#413,#494,.T.);
#295=EDGE_CURVE('',#415,#414,#495,.T.);
#296=EDGE_CURVE('',#415,#410,#496,.T.);
#297=EDGE_CURVE('',#416,#404,#497,.T.);
#298=EDGE_CURVE('',#417,#416,#498,.T.);
#299=EDGE_CURVE('',#418,#417,#499,.T.);
#300=EDGE_CURVE('',#419,#418,#500,.T.);
#301=EDGE_CURVE('',#419,#420,#501,.T.);
#302=EDGE_CURVE('',#421,#420,#502,.T.);
#303=EDGE_CURVE('',#405,#421,#503,.T.);
#304=EDGE_CURVE('',#422,#423,#504,.T.);
#305=EDGE_CURVE('',#424,#422,#505,.T.);
#306=EDGE_CURVE('',#425,#424,#506,.T.);
#307=EDGE_CURVE('',#423,#425,#507,.T.);
#308=EDGE_CURVE('',#426,#394,#508,.T.);
#309=EDGE_CURVE('',#427,#397,#509,.T.);
#310=EDGE_CURVE('',#427,#419,#510,.T.);
#311=EDGE_CURVE('',#418,#428,#511,.T.);
#312=EDGE_CURVE('',#428,#398,#512,.T.);
#313=EDGE_CURVE('',#429,#401,#513,.T.);
#314=EDGE_CURVE('',#429,#415,#514,.T.);
#315=EDGE_CURVE('',#414,#426,#515,.T.);
#316=EDGE_CURVE('',#430,#431,#516,.T.);
#317=EDGE_CURVE('',#411,#430,#517,.T.);
#318=EDGE_CURVE('',#432,#410,#518,.T.);
#319=EDGE_CURVE('',#400,#432,#519,.T.);
#320=EDGE_CURVE('',#433,#399,#520,.T.);
#321=EDGE_CURVE('',#417,#433,#521,.T.);
#322=EDGE_CURVE('',#434,#416,#522,.T.);
#323=EDGE_CURVE('',#434,#435,#523,.T.);
#324=EDGE_CURVE('',#435,#421,#524,.T.);
#325=EDGE_CURVE('',#436,#420,#525,.T.);
#326=EDGE_CURVE('',#396,#436,#526,.T.);
#327=EDGE_CURVE('',#437,#395,#527,.T.);
#328=EDGE_CURVE('',#413,#437,#528,.T.);
#329=EDGE_CURVE('',#412,#431,#529,.T.);
#330=EDGE_CURVE('',#402,#434,#530,.T.);
#331=EDGE_CURVE('',#435,#403,#531,.T.);
#332=EDGE_CURVE('',#430,#408,#532,.T.);
#333=EDGE_CURVE('',#409,#431,#533,.T.);
#334=EDGE_CURVE('',#427,#436,#534,.T.);
#335=EDGE_CURVE('',#428,#433,#535,.T.);
#336=EDGE_CURVE('',#429,#432,#536,.T.);
#337=EDGE_CURVE('',#426,#437,#537,.T.);
#338=EDGE_CURVE('',#438,#423,#538,.T.);
#339=EDGE_CURVE('',#439,#438,#539,.T.);
#340=EDGE_CURVE('',#439,#422,#540,.T.);
#341=EDGE_CURVE('',#440,#425,#541,.T.);
#342=EDGE_CURVE('',#438,#440,#542,.T.);
#343=EDGE_CURVE('',#441,#424,#543,.T.);
#344=EDGE_CURVE('',#440,#441,#544,.T.);
#345=EDGE_CURVE('',#441,#439,#545,.T.);
#346=EDGE_CURVE('',#442,#443,#546,.T.);
#347=EDGE_CURVE('',#443,#444,#547,.T.);
#348=EDGE_CURVE('',#444,#445,#548,.T.);
#349=EDGE_CURVE('',#445,#442,#549,.T.);
#350=EDGE_CURVE('',#446,#447,#550,.T.);
#351=EDGE_CURVE('',#448,#446,#551,.T.);
#352=EDGE_CURVE('',#449,#448,#552,.T.);
#353=EDGE_CURVE('',#447,#449,#553,.T.);
#354=EDGE_CURVE('',#445,#448,#554,.T.);
#355=EDGE_CURVE('',#444,#449,#555,.T.);
#356=EDGE_CURVE('',#442,#446,#556,.T.);
#357=EDGE_CURVE('',#443,#447,#557,.T.);
#358=EDGE_CURVE('',#450,#451,#558,.T.);
#359=EDGE_CURVE('',#451,#452,#559,.T.);
#360=EDGE_CURVE('',#452,#453,#560,.T.);
#361=EDGE_CURVE('',#453,#450,#561,.T.);
#362=EDGE_CURVE('',#454,#455,#562,.T.);
#363=EDGE_CURVE('',#456,#454,#563,.T.);
#364=EDGE_CURVE('',#457,#456,#564,.T.);
#365=EDGE_CURVE('',#455,#457,#565,.T.);
#366=EDGE_CURVE('',#455,#452,#566,.T.);
#367=EDGE_CURVE('',#453,#457,#567,.T.);
#368=EDGE_CURVE('',#451,#454,#568,.T.);
#369=EDGE_CURVE('',#450,#456,#569,.T.);
#370=EDGE_CURVE('',#458,#459,#570,.T.);
#371=EDGE_CURVE('',#458,#460,#571,.T.);
#372=EDGE_CURVE('',#461,#460,#572,.T.);
#373=EDGE_CURVE('',#459,#461,#573,.T.);
#374=EDGE_CURVE('',#459,#462,#10,.T.);
#375=EDGE_CURVE('',#463,#461,#11,.T.);
#376=EDGE_CURVE('',#462,#463,#574,.T.);
#377=EDGE_CURVE('',#462,#464,#575,.T.);
#378=EDGE_CURVE('',#465,#463,#576,.T.);
#379=EDGE_CURVE('',#464,#465,#577,.T.);
#380=EDGE_CURVE('',#464,#466,#578,.T.);
#381=EDGE_CURVE('',#465,#467,#579,.T.);
#382=EDGE_CURVE('',#466,#467,#580,.T.);
#383=EDGE_CURVE('',#466,#468,#581,.T.);
#384=EDGE_CURVE('',#469,#467,#582,.T.);
#385=EDGE_CURVE('',#468,#469,#583,.T.);
#386=EDGE_CURVE('',#470,#471,#584,.T.);
#387=EDGE_CURVE('',#470,#468,#12,.T.);
#388=EDGE_CURVE('',#469,#471,#13,.T.);
#389=EDGE_CURVE('',#470,#472,#585,.T.);
#390=EDGE_CURVE('',#473,#471,#586,.T.);
#391=EDGE_CURVE('',#472,#473,#587,.T.);
#392=EDGE_CURVE('',#458,#472,#588,.T.);
#393=EDGE_CURVE('',#460,#473,#589,.T.);
#394=VERTEX_POINT('',#1224);
#395=VERTEX_POINT('',#1225);
#396=VERTEX_POINT('',#1227);
#397=VERTEX_POINT('',#1229);
#398=VERTEX_POINT('',#1233);
#399=VERTEX_POINT('',#1234);
#400=VERTEX_POINT('',#1236);
#401=VERTEX_POINT('',#1238);
#402=VERTEX_POINT('',#1242);
#403=VERTEX_POINT('',#1243);
#404=VERTEX_POINT('',#1245);
#405=VERTEX_POINT('',#1247);
#406=VERTEX_POINT('',#1251);
#407=VERTEX_POINT('',#1252);
#408=VERTEX_POINT('',#1254);
#409=VERTEX_POINT('',#1256);
#410=VERTEX_POINT('',#1260);
#411=VERTEX_POINT('',#1261);
#412=VERTEX_POINT('',#1264);
#413=VERTEX_POINT('',#1266);
#414=VERTEX_POINT('',#1268);
#415=VERTEX_POINT('',#1270);
#416=VERTEX_POINT('',#1274);
#417=VERTEX_POINT('',#1276);
#418=VERTEX_POINT('',#1278);
#419=VERTEX_POINT('',#1280);
#420=VERTEX_POINT('',#1282);
#421=VERTEX_POINT('',#1284);
#422=VERTEX_POINT('',#1288);
#423=VERTEX_POINT('',#1289);
#424=VERTEX_POINT('',#1291);
#425=VERTEX_POINT('',#1293);
#426=VERTEX_POINT('',#1296);
#427=VERTEX_POINT('',#1298);
#428=VERTEX_POINT('',#1301);
#429=VERTEX_POINT('',#1304);
#430=VERTEX_POINT('',#1309);
#431=VERTEX_POINT('',#1310);
#432=VERTEX_POINT('',#1313);
#433=VERTEX_POINT('',#1316);
#434=VERTEX_POINT('',#1319);
#435=VERTEX_POINT('',#1321);
#436=VERTEX_POINT('',#1324);
#437=VERTEX_POINT('',#1327);
#438=VERTEX_POINT('',#1354);
#439=VERTEX_POINT('',#1356);
#440=VERTEX_POINT('',#1360);
#441=VERTEX_POINT('',#1364);
#442=VERTEX_POINT('',#1372);
#443=VERTEX_POINT('',#1373);
#444=VERTEX_POINT('',#1375);
#445=VERTEX_POINT('',#1377);
#446=VERTEX_POINT('',#1381);
#447=VERTEX_POINT('',#1382);
#448=VERTEX_POINT('',#1384);
#449=VERTEX_POINT('',#1386);
#450=VERTEX_POINT('',#1399);
#451=VERTEX_POINT('',#1400);
#452=VERTEX_POINT('',#1402);
#453=VERTEX_POINT('',#1404);
#454=VERTEX_POINT('',#1408);
#455=VERTEX_POINT('',#1409);
#456=VERTEX_POINT('',#1411);
#457=VERTEX_POINT('',#1413);
#458=VERTEX_POINT('',#1423);
#459=VERTEX_POINT('',#1424);
#460=VERTEX_POINT('',#1426);
#461=VERTEX_POINT('',#1428);
#462=VERTEX_POINT('',#1432);
#463=VERTEX_POINT('',#1434);
#464=VERTEX_POINT('',#1438);
#465=VERTEX_POINT('',#1440);
#466=VERTEX_POINT('',#1444);
#467=VERTEX_POINT('',#1446);
#468=VERTEX_POINT('',#1450);
#469=VERTEX_POINT('',#1452);
#470=VERTEX_POINT('',#1456);
#471=VERTEX_POINT('',#1457);
#472=VERTEX_POINT('',#1462);
#473=VERTEX_POINT('',#1464);
#474=LINE('',#1223,#590);
#475=LINE('',#1226,#591);
#476=LINE('',#1228,#592);
#477=LINE('',#1230,#593);
#478=LINE('',#1232,#594);
#479=LINE('',#1235,#595);
#480=LINE('',#1237,#596);
#481=LINE('',#1239,#597);
#482=LINE('',#1241,#598);
#483=LINE('',#1244,#599);
#484=LINE('',#1246,#600);
#485=LINE('',#1248,#601);
#486=LINE('',#1250,#602);
#487=LINE('',#1253,#603);
#488=LINE('',#1255,#604);
#489=LINE('',#1257,#605);
#490=LINE('',#1259,#606);
#491=LINE('',#1262,#607);
#492=LINE('',#1263,#608);
#493=LINE('',#1265,#609);
#494=LINE('',#1267,#610);
#495=LINE('',#1269,#611);
#496=LINE('',#1271,#612);
#497=LINE('',#1273,#613);
#498=LINE('',#1275,#614);
#499=LINE('',#1277,#615);
#500=LINE('',#1279,#616);
#501=LINE('',#1281,#617);
#502=LINE('',#1283,#618);
#503=LINE('',#1285,#619);
#504=LINE('',#1287,#620);
#505=LINE('',#1290,#621);
#506=LINE('',#1292,#622);
#507=LINE('',#1294,#623);
#508=LINE('',#1295,#624);
#509=LINE('',#1297,#625);
#510=LINE('',#1299,#626);
#511=LINE('',#1300,#627);
#512=LINE('',#1302,#628);
#513=LINE('',#1303,#629);
#514=LINE('',#1305,#630);
#515=LINE('',#1306,#631);
#516=LINE('',#1308,#632);
#517=LINE('',#1311,#633);
#518=LINE('',#1312,#634);
#519=LINE('',#1314,#635);
#520=LINE('',#1315,#636);
#521=LINE('',#1317,#637);
#522=LINE('',#1318,#638);
#523=LINE('',#1320,#639);
#524=LINE('',#1322,#640);
#525=LINE('',#1323,#641);
#526=LINE('',#1325,#642);
#527=LINE('',#1326,#643);
#528=LINE('',#1328,#644);
#529=LINE('',#1329,#645);
#530=LINE('',#1331,#646);
#531=LINE('',#1332,#647);
#532=LINE('',#1334,#648);
#533=LINE('',#1335,#649);
#534=LINE('',#1337,#650);
#535=LINE('',#1340,#651);
#536=LINE('',#1343,#652);
#537=LINE('',#1346,#653);
#538=LINE('',#1353,#654);
#539=LINE('',#1355,#655);
#540=LINE('',#1357,#656);
#541=LINE('',#1359,#657);
#542=LINE('',#1361,#658);
#543=LINE('',#1363,#659);
#544=LINE('',#1365,#660);
#545=LINE('',#1367,#661);
#546=LINE('',#1371,#662);
#547=LINE('',#1374,#663);
#548=LINE('',#1376,#664);
#549=LINE('',#1378,#665);
#550=LINE('',#1380,#666);
#551=LINE('',#1383,#667);
#552=LINE('',#1385,#668);
#553=LINE('',#1387,#669);
#554=LINE('',#1389,#670);
#555=LINE('',#1390,#671);
#556=LINE('',#1392,#672);
#557=LINE('',#1394,#673);
#558=LINE('',#1398,#674);
#559=LINE('',#1401,#675);
#560=LINE('',#1403,#676);
#561=LINE('',#1405,#677);
#562=LINE('',#1407,#678);
#563=LINE('',#1410,#679);
#564=LINE('',#1412,#680);
#565=LINE('',#1414,#681);
#566=LINE('',#1416,#682);
#567=LINE('',#1417,#683);
#568=LINE('',#1419,#684);
#569=LINE('',#1420,#685);
#570=LINE('',#1422,#686);
#571=LINE('',#1425,#687);
#572=LINE('',#1427,#688);
#573=LINE('',#1429,#689);
#574=LINE('',#1435,#690);
#575=LINE('',#1437,#691);
#576=LINE('',#1439,#692);
#577=LINE('',#1441,#693);
#578=LINE('',#1443,#694);
#579=LINE('',#1445,#695);
#580=LINE('',#1447,#696);
#581=LINE('',#1449,#697);
#582=LINE('',#1451,#698);
#583=LINE('',#1453,#699);
#584=LINE('',#1455,#700);
#585=LINE('',#1461,#701);
#586=LINE('',#1463,#702);
#587=LINE('',#1465,#703);
#588=LINE('',#1467,#704);
#589=LINE('',#1468,#705);
#590=VECTOR('',#997,39.3700787401575);
#591=VECTOR('',#998,39.3700787401575);
#592=VECTOR('',#999,39.3700787401575);
#593=VECTOR('',#1000,39.3700787401575);
#594=VECTOR('',#1003,39.3700787401575);
#595=VECTOR('',#1004,39.3700787401575);
#596=VECTOR('',#1005,39.3700787401575);
#597=VECTOR('',#1006,39.3700787401575);
#598=VECTOR('',#1009,39.3700787401575);
#599=VECTOR('',#1010,39.3700787401575);
#600=VECTOR('',#1011,39.3700787401575);
#601=VECTOR('',#1012,39.3700787401575);
#602=VECTOR('',#1015,39.3700787401575);
#603=VECTOR('',#1016,39.3700787401575);
#604=VECTOR('',#1017,39.3700787401575);
#605=VECTOR('',#1018,39.3700787401575);
#606=VECTOR('',#1021,39.3700787401575);
#607=VECTOR('',#1022,39.3700787401575);
#608=VECTOR('',#1023,39.3700787401575);
#609=VECTOR('',#1024,39.3700787401575);
#610=VECTOR('',#1025,39.3700787401575);
#611=VECTOR('',#1026,39.3700787401575);
#612=VECTOR('',#1027,39.3700787401575);
#613=VECTOR('',#1030,39.3700787401575);
#614=VECTOR('',#1031,39.3700787401575);
#615=VECTOR('',#1032,39.3700787401575);
#616=VECTOR('',#1033,39.3700787401575);
#617=VECTOR('',#1034,39.3700787401575);
#618=VECTOR('',#1035,39.3700787401575);
#619=VECTOR('',#1036,39.3700787401575);
#620=VECTOR('',#1039,39.3700787401575);
#621=VECTOR('',#1040,39.3700787401575);
#622=VECTOR('',#1041,39.3700787401575);
#623=VECTOR('',#1042,39.3700787401575);
#624=VECTOR('',#1043,39.3700787401575);
#625=VECTOR('',#1044,39.3700787401575);
#626=VECTOR('',#1045,39.3700787401575);
#627=VECTOR('',#1046,39.3700787401575);
#628=VECTOR('',#1047,39.3700787401575);
#629=VECTOR('',#1048,39.3700787401575);
#630=VECTOR('',#1049,39.3700787401575);
#631=VECTOR('',#1050,39.3700787401575);
#632=VECTOR('',#1053,39.3700787401575);
#633=VECTOR('',#1054,39.3700787401575);
#634=VECTOR('',#1055,39.3700787401575);
#635=VECTOR('',#1056,39.3700787401575);
#636=VECTOR('',#1057,39.3700787401575);
#637=VECTOR('',#1058,39.3700787401575);
#638=VECTOR('',#1059,39.3700787401575);
#639=VECTOR('',#1060,39.3700787401575);
#640=VECTOR('',#1061,39.3700787401575);
#641=VECTOR('',#1062,39.3700787401575);
#642=VECTOR('',#1063,39.3700787401575);
#643=VECTOR('',#1064,39.3700787401575);
#644=VECTOR('',#1065,39.3700787401575);
#645=VECTOR('',#1066,39.3700787401575);
#646=VECTOR('',#1069,39.3700787401575);
#647=VECTOR('',#1070,39.3700787401575);
#648=VECTOR('',#1073,39.3700787401575);
#649=VECTOR('',#1074,39.3700787401575);
#650=VECTOR('',#1077,39.3700787401575);
#651=VECTOR('',#1082,39.3700787401575);
#652=VECTOR('',#1087,39.3700787401575);
#653=VECTOR('',#1092,39.3700787401575);
#654=VECTOR('',#1105,39.3700787401575);
#655=VECTOR('',#1106,39.3700787401575);
#656=VECTOR('',#1107,39.3700787401575);
#657=VECTOR('',#1110,39.3700787401575);
#658=VECTOR('',#1111,39.3700787401575);
#659=VECTOR('',#1114,39.3700787401575);
#660=VECTOR('',#1115,39.3700787401575);
#661=VECTOR('',#1118,39.3700787401575);
#662=VECTOR('',#1125,39.3700787401575);
#663=VECTOR('',#1126,39.3700787401575);
#664=VECTOR('',#1127,39.3700787401575);
#665=VECTOR('',#1128,39.3700787401575);
#666=VECTOR('',#1131,39.3700787401575);
#667=VECTOR('',#1132,39.3700787401575);
#668=VECTOR('',#1133,39.3700787401575);
#669=VECTOR('',#1134,39.3700787401575);
#670=VECTOR('',#1137,39.3700787401575);
#671=VECTOR('',#1138,39.3700787401575);
#672=VECTOR('',#1141,39.3700787401575);
#673=VECTOR('',#1144,39.3700787401575);
#674=VECTOR('',#1151,39.3700787401575);
#675=VECTOR('',#1152,39.3700787401575);
#676=VECTOR('',#1153,39.3700787401575);
#677=VECTOR('',#1154,39.3700787401575);
#678=VECTOR('',#1157,39.3700787401575);
#679=VECTOR('',#1158,39.3700787401575);
#680=VECTOR('',#1159,39.3700787401575);
#681=VECTOR('',#1160,39.3700787401575);
#682=VECTOR('',#1163,39.3700787401575);
#683=VECTOR('',#1164,39.3700787401575);
#684=VECTOR('',#1167,39.3700787401575);
#685=VECTOR('',#1168,39.3700787401575);
#686=VECTOR('',#1171,39.3700787401575);
#687=VECTOR('',#1172,39.3700787401575);
#688=VECTOR('',#1173,39.3700787401575);
#689=VECTOR('',#1174,39.3700787401575);
#690=VECTOR('',#1181,39.3700787401575);
#691=VECTOR('',#1184,39.3700787401575);
#692=VECTOR('',#1185,39.3700787401575);
#693=VECTOR('',#1186,39.3700787401575);
#694=VECTOR('',#1189,39.3700787401575);
#695=VECTOR('',#1190,39.3700787401575);
#696=VECTOR('',#1191,39.3700787401575);
#697=VECTOR('',#1194,39.3700787401575);
#698=VECTOR('',#1195,39.3700787401575);
#699=VECTOR('',#1196,39.3700787401575);
#700=VECTOR('',#1199,39.3700787401575);
#701=VECTOR('',#1206,39.3700787401575);
#702=VECTOR('',#1207,39.3700787401575);
#703=VECTOR('',#1208,39.3700787401575);
#704=VECTOR('',#1211,39.3700787401575);
#705=VECTOR('',#1212,39.3700787401575);
#706=EDGE_LOOP('',(#34,#35,#36,#37));
#707=EDGE_LOOP('',(#38,#39,#40,#41));
#708=EDGE_LOOP('',(#42,#43,#44,#45));
#709=EDGE_LOOP('',(#46,#47,#48,#49));
#710=EDGE_LOOP('',(#50,#51,#52,#53,#54,#55,#56,#57));
#711=EDGE_LOOP('',(#58,#59,#60,#61,#62,#63,#64,#65));
#712=EDGE_LOOP('',(#66,#67,#68,#69));
#713=EDGE_LOOP('',(#70,#71,#72,#73,#74,#75,#76,#77,#78,#79,#80,#81));
#714=EDGE_LOOP('',(#82,#83,#84,#85,#86,#87,#88,#89,#90,#91,#92,#93,#94,
#95,#96,#97,#98,#99,#100,#101));
#715=EDGE_LOOP('',(#102,#103,#104,#105));
#716=EDGE_LOOP('',(#106,#107,#108,#109));
#717=EDGE_LOOP('',(#110,#111,#112,#113));
#718=EDGE_LOOP('',(#114,#115,#116,#117));
#719=EDGE_LOOP('',(#118,#119,#120,#121));
#720=EDGE_LOOP('',(#122,#123,#124,#125));
#721=EDGE_LOOP('',(#126,#127,#128,#129));
#722=EDGE_LOOP('',(#130,#131,#132,#133));
#723=EDGE_LOOP('',(#134,#135,#136,#137));
#724=EDGE_LOOP('',(#138,#139,#140,#141));
#725=EDGE_LOOP('',(#142,#143,#144,#145));
#726=EDGE_LOOP('',(#146,#147,#148,#149));
#727=EDGE_LOOP('',(#150,#151,#152,#153));
#728=EDGE_LOOP('',(#154,#155,#156,#157));
#729=EDGE_LOOP('',(#158,#159,#160,#161));
#730=EDGE_LOOP('',(#162,#163,#164,#165));
#731=EDGE_LOOP('',(#166,#167,#168,#169));
#732=EDGE_LOOP('',(#170,#171,#172,#173));
#733=EDGE_LOOP('',(#174,#175,#176,#177));
#734=EDGE_LOOP('',(#178,#179,#180,#181));
#735=EDGE_LOOP('',(#182,#183,#184,#185));
#736=EDGE_LOOP('',(#186,#187,#188,#189));
#737=EDGE_LOOP('',(#190,#191,#192,#193));
#738=EDGE_LOOP('',(#194,#195,#196,#197));
#739=EDGE_LOOP('',(#198,#199,#200,#201));
#740=EDGE_LOOP('',(#202,#203,#204,#205));
#741=EDGE_LOOP('',(#206,#207,#208,#209));
#742=EDGE_LOOP('',(#210,#211,#212,#213));
#743=EDGE_LOOP('',(#214,#215,#216,#217));
#744=EDGE_LOOP('',(#218,#219,#220,#221));
#745=EDGE_LOOP('',(#222,#223,#224,#225));
#746=EDGE_LOOP('',(#226,#227,#228,#229));
#747=EDGE_LOOP('',(#230,#231,#232,#233));
#748=EDGE_LOOP('',(#234,#235,#236,#237));
#749=EDGE_LOOP('',(#238,#239,#240,#241));
#750=EDGE_LOOP('',(#242,#243,#244,#245));
#751=EDGE_LOOP('',(#246,#247,#248,#249));
#752=EDGE_LOOP('',(#250,#251,#252,#253));
#753=EDGE_LOOP('',(#254,#255,#256,#257,#258,#259,#260,#261));
#754=EDGE_LOOP('',(#262,#263,#264,#265,#266,#267,#268,#269));
#755=EDGE_LOOP('',(#270,#271,#272,#273));
#756=FACE_BOUND('',#706,.T.);
#757=FACE_BOUND('',#707,.T.);
#758=FACE_BOUND('',#708,.T.);
#759=FACE_BOUND('',#709,.T.);
#760=FACE_BOUND('',#710,.T.);
#761=FACE_BOUND('',#711,.T.);
#762=FACE_BOUND('',#712,.T.);
#763=FACE_BOUND('',#713,.T.);
#764=FACE_BOUND('',#714,.T.);
#765=FACE_BOUND('',#715,.T.);
#766=FACE_BOUND('',#716,.T.);
#767=FACE_BOUND('',#717,.T.);
#768=FACE_BOUND('',#718,.T.);
#769=FACE_BOUND('',#719,.T.);
#770=FACE_BOUND('',#720,.T.);
#771=FACE_BOUND('',#721,.T.);
#772=FACE_BOUND('',#722,.T.);
#773=FACE_BOUND('',#723,.T.);
#774=FACE_BOUND('',#724,.T.);
#775=FACE_BOUND('',#725,.T.);
#776=FACE_BOUND('',#726,.T.);
#777=FACE_BOUND('',#727,.T.);
#778=FACE_BOUND('',#728,.T.);
#779=FACE_BOUND('',#729,.T.);
#780=FACE_BOUND('',#730,.T.);
#781=FACE_BOUND('',#731,.T.);
#782=FACE_BOUND('',#732,.T.);
#783=FACE_BOUND('',#733,.T.);
#784=FACE_BOUND('',#734,.T.);
#785=FACE_BOUND('',#735,.T.);
#786=FACE_BOUND('',#736,.T.);
#787=FACE_BOUND('',#737,.T.);
#788=FACE_BOUND('',#738,.T.);
#789=FACE_BOUND('',#739,.T.);
#790=FACE_BOUND('',#740,.T.);
#791=FACE_BOUND('',#741,.T.);
#792=FACE_BOUND('',#742,.T.);
#793=FACE_BOUND('',#743,.T.);
#794=FACE_BOUND('',#744,.T.);
#795=FACE_BOUND('',#745,.T.);
#796=FACE_BOUND('',#746,.T.);
#797=FACE_BOUND('',#747,.T.);
#798=FACE_BOUND('',#748,.T.);
#799=FACE_BOUND('',#749,.T.);
#800=FACE_BOUND('',#750,.T.);
#801=FACE_BOUND('',#751,.T.);
#802=FACE_BOUND('',#752,.T.);
#803=FACE_BOUND('',#753,.T.);
#804=FACE_BOUND('',#754,.T.);
#805=FACE_BOUND('',#755,.T.);
#806=PLANE('',#938);
#807=PLANE('',#939);
#808=PLANE('',#940);
#809=PLANE('',#941);
#810=PLANE('',#942);
#811=PLANE('',#943);
#812=PLANE('',#944);
#813=PLANE('',#945);
#814=PLANE('',#946);
#815=PLANE('',#947);
#816=PLANE('',#948);
#817=PLANE('',#949);
#818=PLANE('',#950);
#819=PLANE('',#951);
#820=PLANE('',#952);
#821=PLANE('',#953);
#822=PLANE('',#954);
#823=PLANE('',#955);
#824=PLANE('',#956);
#825=PLANE('',#957);
#826=PLANE('',#958);
#827=PLANE('',#959);
#828=PLANE('',#960);
#829=PLANE('',#961);
#830=PLANE('',#962);
#831=PLANE('',#963);
#832=PLANE('',#964);
#833=PLANE('',#966);
#834=PLANE('',#967);
#835=PLANE('',#968);
#836=PLANE('',#969);
#837=PLANE('',#970);
#838=PLANE('',#971);
#839=PLANE('',#973);
#840=PLANE('',#974);
#841=PLANE('',#975);
#842=PLANE('',#976);
#843=PLANE('',#977);
#844=PLANE('',#981);
#845=PLANE('',#982);
#846=PLANE('',#983);
#847=PLANE('',#987);
#848=PLANE('',#988);
#849=PLANE('',#989);
#850=PLANE('',#990);
#851=PLANE('',#991);
#852=ADVANCED_FACE('',(#756),#806,.F.);
#853=ADVANCED_FACE('',(#757),#807,.F.);
#854=ADVANCED_FACE('',(#758),#808,.F.);
#855=ADVANCED_FACE('',(#759),#809,.F.);
#856=ADVANCED_FACE('',(#760),#810,.F.);
#857=ADVANCED_FACE('',(#761),#811,.F.);
#858=ADVANCED_FACE('',(#762,#763),#812,.T.);
#859=ADVANCED_FACE('',(#764),#813,.T.);
#860=ADVANCED_FACE('',(#765),#814,.T.);
#861=ADVANCED_FACE('',(#766),#815,.T.);
#862=ADVANCED_FACE('',(#767),#816,.F.);
#863=ADVANCED_FACE('',(#768),#817,.F.);
#864=ADVANCED_FACE('',(#769),#818,.F.);
#865=ADVANCED_FACE('',(#770),#819,.F.);
#866=ADVANCED_FACE('',(#771),#820,.F.);
#867=ADVANCED_FACE('',(#772),#821,.F.);
#868=ADVANCED_FACE('',(#773),#822,.F.);
#869=ADVANCED_FACE('',(#774),#823,.F.);
#870=ADVANCED_FACE('',(#775),#824,.F.);
#871=ADVANCED_FACE('',(#776),#825,.F.);
#872=ADVANCED_FACE('',(#777),#826,.F.);
#873=ADVANCED_FACE('',(#778),#827,.F.);
#874=ADVANCED_FACE('',(#779),#828,.F.);
#875=ADVANCED_FACE('',(#780),#829,.F.);
#876=ADVANCED_FACE('',(#781),#830,.F.);
#877=ADVANCED_FACE('',(#782),#831,.F.);
#878=ADVANCED_FACE('',(#783),#832,.T.);
#879=ADVANCED_FACE('',(#784),#833,.T.);
#880=ADVANCED_FACE('',(#785),#834,.F.);
#881=ADVANCED_FACE('',(#786),#835,.F.);
#882=ADVANCED_FACE('',(#787),#836,.F.);
#883=ADVANCED_FACE('',(#788),#837,.F.);
#884=ADVANCED_FACE('',(#789),#838,.F.);
#885=ADVANCED_FACE('',(#790),#839,.T.);
#886=ADVANCED_FACE('',(#791),#840,.F.);
#887=ADVANCED_FACE('',(#792),#841,.F.);
#888=ADVANCED_FACE('',(#793),#842,.F.);
#889=ADVANCED_FACE('',(#794),#843,.F.);
#890=ADVANCED_FACE('',(#795),#14,.T.);
#891=ADVANCED_FACE('',(#796),#844,.F.);
#892=ADVANCED_FACE('',(#797),#845,.F.);
#893=ADVANCED_FACE('',(#798),#846,.F.);
#894=ADVANCED_FACE('',(#799),#15,.F.);
#895=ADVANCED_FACE('',(#800),#847,.F.);
#896=ADVANCED_FACE('',(#801,#802),#848,.F.);
#897=ADVANCED_FACE('',(#803),#849,.T.);
#898=ADVANCED_FACE('',(#804),#850,.T.);
#899=ADVANCED_FACE('',(#805),#851,.T.);
#900=CLOSED_SHELL('',(#852,#853,#854,#855,#856,#857,#858,#859,#860,#861,
#862,#863,#864,#865,#866,#867,#868,#869,#870,#871,#872,#873,#874,#875,#876,
#877,#878));
#901=CLOSED_SHELL('',(#879,#880,#881,#882,#883,#884));
#902=CLOSED_SHELL('',(#885,#886,#887,#888,#889,#890,#891,#892,#893,#894,
#895,#896,#897,#898,#899));
#903=STYLED_ITEM('',(#906),#926);
#904=STYLED_ITEM('',(#907),#927);
#905=STYLED_ITEM('',(#908),#928);
#906=PRESENTATION_STYLE_ASSIGNMENT((#909));
#907=PRESENTATION_STYLE_ASSIGNMENT((#910));
#908=PRESENTATION_STYLE_ASSIGNMENT((#911));
#909=SURFACE_STYLE_USAGE(.BOTH.,#912);
#910=SURFACE_STYLE_USAGE(.BOTH.,#913);
#911=SURFACE_STYLE_USAGE(.BOTH.,#914);
#912=SURFACE_SIDE_STYLE('',(#915));
#913=SURFACE_SIDE_STYLE('',(#916));
#914=SURFACE_SIDE_STYLE('',(#917));
#915=SURFACE_STYLE_FILL_AREA(#918);
#916=SURFACE_STYLE_FILL_AREA(#919);
#917=SURFACE_STYLE_FILL_AREA(#920);
#918=FILL_AREA_STYLE('',(#921));
#919=FILL_AREA_STYLE('',(#922));
#920=FILL_AREA_STYLE('',(#923));
#921=FILL_AREA_STYLE_COLOUR('',#924);
#922=FILL_AREA_STYLE_COLOUR('',#925);
#923=FILL_AREA_STYLE_COLOUR('',#925);
#924=COLOUR_RGB('',0.689999997615814,0.689999997615814,0.689999997615814);
#925=COLOUR_RGB('',0.769999980926514,0.769999980926514,0.769999980926514);
#926=MANIFOLD_SOLID_BREP('CES-101-01-S_socket',#900);
#927=MANIFOLD_SOLID_BREP('010101TS',#901);
#928=MANIFOLD_SOLID_BREP('010101TS2',#902);
#929=SHAPE_DEFINITION_REPRESENTATION(#1488,#933);
#930=SHAPE_DEFINITION_REPRESENTATION(#1489,#934);
#931=SHAPE_DEFINITION_REPRESENTATION(#1491,#935);
#932=SHAPE_DEFINITION_REPRESENTATION(#1493,#936);
#933=SHAPE_REPRESENTATION('CES-101-01-T-S',(#937,#965,#972,#992),#1474);
#934=SHAPE_REPRESENTATION('CES-101-01-S_socket',(#937),#1475);
#935=SHAPE_REPRESENTATION('010101TS',(#937),#1476);
#936=SHAPE_REPRESENTATION('010101TS2',(#937),#1477);
#937=AXIS2_PLACEMENT_3D('',#1221,#993,#994);
#938=AXIS2_PLACEMENT_3D('',#1222,#995,#996);
#939=AXIS2_PLACEMENT_3D('',#1231,#1001,#1002);
#940=AXIS2_PLACEMENT_3D('',#1240,#1007,#1008);
#941=AXIS2_PLACEMENT_3D('',#1249,#1013,#1014);
#942=AXIS2_PLACEMENT_3D('',#1258,#1019,#1020);
#943=AXIS2_PLACEMENT_3D('',#1272,#1028,#1029);
#944=AXIS2_PLACEMENT_3D('',#1286,#1037,#1038);
#945=AXIS2_PLACEMENT_3D('',#1307,#1051,#1052);
#946=AXIS2_PLACEMENT_3D('',#1330,#1067,#1068);
#947=AXIS2_PLACEMENT_3D('',#1333,#1071,#1072);
#948=AXIS2_PLACEMENT_3D('',#1336,#1075,#1076);
#949=AXIS2_PLACEMENT_3D('',#1338,#1078,#1079);
#950=AXIS2_PLACEMENT_3D('',#1339,#1080,#1081);
#951=AXIS2_PLACEMENT_3D('',#1341,#1083,#1084);
#952=AXIS2_PLACEMENT_3D('',#1342,#1085,#1086);
#953=AXIS2_PLACEMENT_3D('',#1344,#1088,#1089);
#954=AXIS2_PLACEMENT_3D('',#1345,#1090,#1091);
#955=AXIS2_PLACEMENT_3D('',#1347,#1093,#1094);
#956=AXIS2_PLACEMENT_3D('',#1348,#1095,#1096);
#957=AXIS2_PLACEMENT_3D('',#1349,#1097,#1098);
#958=AXIS2_PLACEMENT_3D('',#1350,#1099,#1100);
#959=AXIS2_PLACEMENT_3D('',#1351,#1101,#1102);
#960=AXIS2_PLACEMENT_3D('',#1352,#1103,#1104);
#961=AXIS2_PLACEMENT_3D('',#1358,#1108,#1109);
#962=AXIS2_PLACEMENT_3D('',#1362,#1112,#1113);
#963=AXIS2_PLACEMENT_3D('',#1366,#1116,#1117);
#964=AXIS2_PLACEMENT_3D('',#1368,#1119,#1120);
#965=AXIS2_PLACEMENT_3D('',#1369,#1121,#1122);
#966=AXIS2_PLACEMENT_3D('',#1370,#1123,#1124);
#967=AXIS2_PLACEMENT_3D('',#1379,#1129,#1130);
#968=AXIS2_PLACEMENT_3D('',#1388,#1135,#1136);
#969=AXIS2_PLACEMENT_3D('',#1391,#1139,#1140);
#970=AXIS2_PLACEMENT_3D('',#1393,#1142,#1143);
#971=AXIS2_PLACEMENT_3D('',#1395,#1145,#1146);
#972=AXIS2_PLACEMENT_3D('',#1396,#1147,#1148);
#973=AXIS2_PLACEMENT_3D('',#1397,#1149,#1150);
#974=AXIS2_PLACEMENT_3D('',#1406,#1155,#1156);
#975=AXIS2_PLACEMENT_3D('',#1415,#1161,#1162);
#976=AXIS2_PLACEMENT_3D('',#1418,#1165,#1166);
#977=AXIS2_PLACEMENT_3D('',#1421,#1169,#1170);
#978=AXIS2_PLACEMENT_3D('',#1430,#1175,#1176);
#979=AXIS2_PLACEMENT_3D('',#1431,#1177,#1178);
#980=AXIS2_PLACEMENT_3D('',#1433,#1179,#1180);
#981=AXIS2_PLACEMENT_3D('',#1436,#1182,#1183);
#982=AXIS2_PLACEMENT_3D('',#1442,#1187,#1188);
#983=AXIS2_PLACEMENT_3D('',#1448,#1192,#1193);
#984=AXIS2_PLACEMENT_3D('',#1454,#1197,#1198);
#985=AXIS2_PLACEMENT_3D('',#1458,#1200,#1201);
#986=AXIS2_PLACEMENT_3D('',#1459,#1202,#1203);
#987=AXIS2_PLACEMENT_3D('',#1460,#1204,#1205);
#988=AXIS2_PLACEMENT_3D('',#1466,#1209,#1210);
#989=AXIS2_PLACEMENT_3D('',#1469,#1213,#1214);
#990=AXIS2_PLACEMENT_3D('',#1470,#1215,#1216);
#991=AXIS2_PLACEMENT_3D('',#1471,#1217,#1218);
#992=AXIS2_PLACEMENT_3D('',#1472,#1219,#1220);
#993=DIRECTION('',(0.,0.,1.));
#994=DIRECTION('',(1.,0.,0.));
#995=DIRECTION('',(1.,0.,0.));
#996=DIRECTION('',(0.,0.,-1.));
#997=DIRECTION('',(0.,-1.,0.));
#998=DIRECTION('',(0.,0.,1.));
#999=DIRECTION('',(0.,1.,0.));
#1000=DIRECTION('',(0.,0.,1.));
#1001=DIRECTION('',(-1.,0.,0.));
#1002=DIRECTION('',(0.,0.,1.));
#1003=DIRECTION('',(0.,-1.,0.));
#1004=DIRECTION('',(0.,0.,1.));
#1005=DIRECTION('',(0.,1.,0.));
#1006=DIRECTION('',(0.,0.,-1.));
#1007=DIRECTION('',(0.,1.,0.));
#1008=DIRECTION('',(0.,0.,1.));
#1009=DIRECTION('',(-1.,0.,0.));
#1010=DIRECTION('',(0.,0.,1.));
#1011=DIRECTION('',(1.,0.,0.));
#1012=DIRECTION('',(0.,0.,1.));
#1013=DIRECTION('',(0.,1.,0.));
#1014=DIRECTION('',(0.,0.,1.));
#1015=DIRECTION('',(-1.,0.,0.));
#1016=DIRECTION('',(0.,0.,1.));
#1017=DIRECTION('',(-1.,0.,0.));
#1018=DIRECTION('',(0.,0.,1.));
#1019=DIRECTION('',(0.,0.,1.));
#1020=DIRECTION('',(1.,0.,0.));
#1021=DIRECTION('',(-1.,0.,0.));
#1022=DIRECTION('',(-0.258819045102521,-0.965925826289068,0.));
#1023=DIRECTION('',(-0.25881904510252,0.965925826289068,0.));
#1024=DIRECTION('',(-1.,0.,0.));
#1025=DIRECTION('',(0.,-1.,0.));
#1026=DIRECTION('',(-1.,0.,0.));
#1027=DIRECTION('',(0.,-1.,0.));
#1028=DIRECTION('',(0.,0.,-1.));
#1029=DIRECTION('',(-1.,0.,0.));
#1030=DIRECTION('',(-0.258819045102521,-0.965925826289068,0.));
#1031=DIRECTION('',(-1.,0.,0.));
#1032=DIRECTION('',(0.,-1.,0.));
#1033=DIRECTION('',(1.,0.,0.));
#1034=DIRECTION('',(0.,-1.,0.));
#1035=DIRECTION('',(-1.,0.,0.));
#1036=DIRECTION('',(-0.25881904510252,0.965925826289068,0.));
#1037=DIRECTION('',(0.,1.,0.));
#1038=DIRECTION('',(0.,0.,1.));
#1039=DIRECTION('',(-1.,0.,0.));
#1040=DIRECTION('',(0.,0.,-1.));
#1041=DIRECTION('',(1.,0.,0.));
#1042=DIRECTION('',(0.,0.,1.));
#1043=DIRECTION('',(-1.,0.,0.));
#1044=DIRECTION('',(-1.,0.,0.));
#1045=DIRECTION('',(0.342020143325669,0.,0.939692620785908));
#1046=DIRECTION('',(0.342020143325669,0.,-0.939692620785908));
#1047=DIRECTION('',(1.,0.,0.));
#1048=DIRECTION('',(1.,0.,0.));
#1049=DIRECTION('',(-0.342020143325668,0.,-0.939692620785909));
#1050=DIRECTION('',(-0.342020143325669,0.,0.939692620785908));
#1051=DIRECTION('',(0.,-1.,0.));
#1052=DIRECTION('',(0.,0.,-1.));
#1053=DIRECTION('',(-1.,0.,0.));
#1054=DIRECTION('',(0.,0.,1.));
#1055=DIRECTION('',(-0.342020143325668,0.,-0.939692620785909));
#1056=DIRECTION('',(-1.,0.,0.));
#1057=DIRECTION('',(1.,0.,0.));
#1058=DIRECTION('',(0.342020143325669,0.,-0.939692620785908));
#1059=DIRECTION('',(0.,0.,1.));
#1060=DIRECTION('',(-1.,0.,0.));
#1061=DIRECTION('',(0.,0.,1.));
#1062=DIRECTION('',(0.342020143325669,0.,0.939692620785908));
#1063=DIRECTION('',(1.,0.,0.));
#1064=DIRECTION('',(-1.,0.,0.));
#1065=DIRECTION('',(-0.342020143325669,0.,0.939692620785908));
#1066=DIRECTION('',(0.,0.,1.));
#1067=DIRECTION('',(0.,0.,-1.));
#1068=DIRECTION('',(-1.,0.,0.));
#1069=DIRECTION('',(0.258819045102521,0.965925826289068,0.));
#1070=DIRECTION('',(0.258819045102521,-0.965925826289068,0.));
#1071=DIRECTION('',(0.,0.,1.));
#1072=DIRECTION('',(1.,0.,0.));
#1073=DIRECTION('',(-0.258819045102521,-0.965925826289068,0.));
#1074=DIRECTION('',(-0.258819045102521,0.965925826289068,0.));
#1075=DIRECTION('',(0.,0.,-1.));
#1076=DIRECTION('',(-1.,0.,0.));
#1077=DIRECTION('',(0.,-1.,0.));
#1078=DIRECTION('',(0.939692620785908,0.,-0.342020143325669));
#1079=DIRECTION('',(-0.342020143325669,0.,-0.939692620785908));
#1080=DIRECTION('',(-0.939692620785908,0.,-0.342020143325669));
#1081=DIRECTION('',(-0.342020143325669,0.,0.939692620785908));
#1082=DIRECTION('',(0.,-1.,0.));
#1083=DIRECTION('',(0.,0.,-1.));
#1084=DIRECTION('',(-1.,0.,0.));
#1085=DIRECTION('',(0.,0.,1.));
#1086=DIRECTION('',(1.,0.,0.));
#1087=DIRECTION('',(0.,-1.,0.));
#1088=DIRECTION('',(-0.939692620785909,0.,0.342020143325668));
#1089=DIRECTION('',(0.342020143325668,0.,0.939692620785909));
#1090=DIRECTION('',(0.,0.,1.));
#1091=DIRECTION('',(1.,0.,0.));
#1092=DIRECTION('',(0.,-1.,0.));
#1093=DIRECTION('',(0.939692620785908,0.,0.342020143325669));
#1094=DIRECTION('',(0.342020143325669,0.,-0.939692620785908));
#1095=DIRECTION('',(0.965925826289068,0.258819045102521,0.));
#1096=DIRECTION('',(-0.258819045102521,0.965925826289068,0.));
#1097=DIRECTION('',(0.965925826289068,0.258819045102521,0.));
#1098=DIRECTION('',(-0.258819045102521,0.965925826289068,0.));
#1099=DIRECTION('',(-0.965925826289068,0.258819045102521,0.));
#1100=DIRECTION('',(-0.258819045102521,-0.965925826289068,0.));
#1101=DIRECTION('',(-0.965925826289068,0.258819045102521,0.));
#1102=DIRECTION('',(-0.258819045102521,-0.965925826289068,0.));
#1103=DIRECTION('',(0.,0.,-1.));
#1104=DIRECTION('',(-1.,0.,0.));
#1105=DIRECTION('',(0.,1.,0.));
#1106=DIRECTION('',(-1.,0.,0.));
#1107=DIRECTION('',(0.,1.,0.));
#1108=DIRECTION('',(-1.,0.,0.));
#1109=DIRECTION('',(0.,0.,1.));
#1110=DIRECTION('',(0.,1.,0.));
#1111=DIRECTION('',(0.,0.,1.));
#1112=DIRECTION('',(0.,0.,1.));
#1113=DIRECTION('',(1.,0.,0.));
#1114=DIRECTION('',(0.,1.,0.));
#1115=DIRECTION('',(1.,0.,0.));
#1116=DIRECTION('',(1.,0.,0.));
#1117=DIRECTION('',(0.,0.,-1.));
#1118=DIRECTION('',(0.,0.,-1.));
#1119=DIRECTION('',(0.,1.,0.));
#1120=DIRECTION('',(0.,0.,1.));
#1121=DIRECTION('',(0.,0.,1.));
#1122=DIRECTION('',(1.,0.,0.));
#1123=DIRECTION('',(1.,0.,0.));
#1124=DIRECTION('',(0.,0.,-1.));
#1125=DIRECTION('',(0.,0.,-1.));
#1126=DIRECTION('',(0.,1.,0.));
#1127=DIRECTION('',(0.,0.,1.));
#1128=DIRECTION('',(0.,-1.,0.));
#1129=DIRECTION('',(1.,0.,0.));
#1130=DIRECTION('',(0.,0.,-1.));
#1131=DIRECTION('',(0.,0.,-1.));
#1132=DIRECTION('',(0.,-1.,0.));
#1133=DIRECTION('',(0.,0.,1.));
#1134=DIRECTION('',(0.,1.,0.));
#1135=DIRECTION('',(0.,-1.,0.));
#1136=DIRECTION('',(0.,0.,-1.));
#1137=DIRECTION('',(-1.,0.,0.));
#1138=DIRECTION('',(-1.,0.,0.));
#1139=DIRECTION('',(0.,0.,-1.));
#1140=DIRECTION('',(-1.,0.,0.));
#1141=DIRECTION('',(-1.,0.,0.));
#1142=DIRECTION('',(0.,1.,0.));
#1143=DIRECTION('',(0.,0.,1.));
#1144=DIRECTION('',(-1.,0.,0.));
#1145=DIRECTION('',(0.,0.,1.));
#1146=DIRECTION('',(1.,0.,0.));
#1147=DIRECTION('',(0.,0.,1.));
#1148=DIRECTION('',(1.,0.,0.));
#1149=DIRECTION('',(1.,0.,0.));
#1150=DIRECTION('',(0.,0.,-1.));
#1151=DIRECTION('',(0.,1.,0.));
#1152=DIRECTION('',(0.,1.28055374703012E-18,1.));
#1153=DIRECTION('',(0.,-1.,0.));
#1154=DIRECTION('',(0.,0.,-1.));
#1155=DIRECTION('',(1.,0.,0.));
#1156=DIRECTION('',(0.,0.,-1.));
#1157=DIRECTION('',(0.,1.28055374703012E-18,1.));
#1158=DIRECTION('',(0.,1.,0.));
#1159=DIRECTION('',(0.,0.,-1.));
#1160=DIRECTION('',(0.,-1.,0.));
#1161=DIRECTION('',(0.,0.,-1.));
#1162=DIRECTION('',(-1.,0.,0.));
#1163=DIRECTION('',(1.,0.,0.));
#1164=DIRECTION('',(-1.,0.,0.));
#1165=DIRECTION('',(0.,0.,1.));
#1166=DIRECTION('',(1.,0.,0.));
#1167=DIRECTION('',(-1.,0.,0.));
#1168=DIRECTION('',(-1.,0.,0.));
#1169=DIRECTION('',(0.,-0.759256602365297,-0.650791373455969));
#1170=DIRECTION('',(0.,0.650791373455969,-0.759256602365296));
#1171=DIRECTION('',(1.75817158610532E-17,-0.650791373455969,0.759256602365296));
#1172=DIRECTION('',(-1.,0.,0.));
#1173=DIRECTION('',(0.,0.650791373455969,-0.759256602365296));
#1174=DIRECTION('',(-1.,0.,0.));
#1175=DIRECTION('',(-1.,0.,0.));
#1176=DIRECTION('',(0.,0.,1.));
#1177=DIRECTION('',(1.,2.70159018360786E-17,0.));
#1178=DIRECTION('',(-2.70159018360786E-17,1.,0.));
#1179=DIRECTION('',(-1.,0.,0.));
#1180=DIRECTION('',(0.,0.,1.));
#1181=DIRECTION('',(-1.,0.,0.));
#1182=DIRECTION('',(0.,0.,-1.));
#1183=DIRECTION('',(-1.,0.,0.));
#1184=DIRECTION('',(2.70159018360786E-17,-1.,0.));
#1185=DIRECTION('',(0.,1.,0.));
#1186=DIRECTION('',(-1.,0.,0.));
#1187=DIRECTION('',(0.,1.,0.));
#1188=DIRECTION('',(0.,0.,1.));
#1189=DIRECTION('',(0.,0.,-1.));
#1190=DIRECTION('',(0.,0.,-1.));
#1191=DIRECTION('',(-1.,0.,0.));
#1192=DIRECTION('',(0.,0.,1.));
#1193=DIRECTION('',(1.,0.,0.));
#1194=DIRECTION('',(-2.70159018360786E-17,1.,0.));
#1195=DIRECTION('',(0.,-1.,0.));
#1196=DIRECTION('',(-1.,0.,0.));
#1197=DIRECTION('',(-1.,0.,0.));
#1198=DIRECTION('',(0.,0.,1.));
#1199=DIRECTION('',(-1.,0.,0.));
#1200=DIRECTION('',(1.,2.70159018360786E-17,0.));
#1201=DIRECTION('',(-2.70159018360786E-17,1.,0.));
#1202=DIRECTION('',(-1.,0.,0.));
#1203=DIRECTION('',(0.,0.,1.));
#1204=DIRECTION('',(0.,0.759256602365296,0.650791373455969));
#1205=DIRECTION('',(0.,-0.650791373455969,0.759256602365296));
#1206=DIRECTION('',(-1.75817158610532E-17,0.650791373455969,-0.759256602365297));
#1207=DIRECTION('',(0.,-0.650791373455969,0.759256602365297));
#1208=DIRECTION('',(-1.,0.,0.));
#1209=DIRECTION('',(0.,1.,0.));
#1210=DIRECTION('',(0.,0.,1.));
#1211=DIRECTION('',(0.,0.,-1.));
#1212=DIRECTION('',(0.,0.,-1.));
#1213=DIRECTION('',(-1.,0.,0.));
#1214=DIRECTION('',(0.,0.,1.));
#1215=DIRECTION('',(1.,2.70159018360786E-17,0.));
#1216=DIRECTION('',(-2.70159018360786E-17,1.,0.));
#1217=DIRECTION('',(0.,1.,-1.28055374703012E-18));
#1218=DIRECTION('',(0.,1.28055374703012E-18,1.));
#1219=DIRECTION('',(0.,0.,1.));
#1220=DIRECTION('',(1.,0.,0.));
#1221=CARTESIAN_POINT('',(0.,0.,0.));
#1222=CARTESIAN_POINT('',(-0.05,0.2,-0.06));
#1223=CARTESIAN_POINT('',(-0.05,0.2,-0.05));
#1224=CARTESIAN_POINT('',(-0.05,0.2,-0.05));
#1225=CARTESIAN_POINT('',(-0.05,0.02,-0.05));
#1226=CARTESIAN_POINT('',(-0.05,0.02,-0.04));
#1227=CARTESIAN_POINT('',(-0.05,0.02,0.05));
#1228=CARTESIAN_POINT('',(-0.05,0.2,0.05));
#1229=CARTESIAN_POINT('',(-0.05,0.2,0.05));
#1230=CARTESIAN_POINT('',(-0.05,0.2,-0.06));
#1231=CARTESIAN_POINT('',(0.05,0.2,0.06));
#1232=CARTESIAN_POINT('',(0.05,0.2,0.05));
#1233=CARTESIAN_POINT('',(0.05,0.2,0.05));
#1234=CARTESIAN_POINT('',(0.05,0.02,0.05));
#1235=CARTESIAN_POINT('',(0.05,0.02,-0.04));
#1236=CARTESIAN_POINT('',(0.05,0.02,-0.05));
#1237=CARTESIAN_POINT('',(0.05,0.2,-0.05));
#1238=CARTESIAN_POINT('',(0.05,0.2,-0.05));
#1239=CARTESIAN_POINT('',(0.05,0.2,0.06));
#1240=CARTESIAN_POINT('',(0.,0.,0.));
#1241=CARTESIAN_POINT('',(0.05,0.,0.04));
#1242=CARTESIAN_POINT('',(0.00964101615137755,0.,0.04));
#1243=CARTESIAN_POINT('',(-0.00964101615137755,0.,0.04));
#1244=CARTESIAN_POINT('',(0.00964101615137755,0.,-0.06));
#1245=CARTESIAN_POINT('',(0.00964101615137755,0.,0.06));
#1246=CARTESIAN_POINT('',(-0.05,0.,0.06));
#1247=CARTESIAN_POINT('',(-0.00964101615137755,0.,0.06));
#1248=CARTESIAN_POINT('',(-0.00964101615137755,0.,-0.06));
#1249=CARTESIAN_POINT('',(0.,0.,0.));
#1250=CARTESIAN_POINT('',(0.05,0.,-0.06));
#1251=CARTESIAN_POINT('',(0.00964101615137755,0.,-0.06));
#1252=CARTESIAN_POINT('',(-0.00964101615137755,0.,-0.06));
#1253=CARTESIAN_POINT('',(0.00964101615137755,0.,-0.06));
#1254=CARTESIAN_POINT('',(0.00964101615137755,0.,-0.04));
#1255=CARTESIAN_POINT('',(0.05,0.,-0.04));
#1256=CARTESIAN_POINT('',(-0.00964101615137755,0.,-0.04));
#1257=CARTESIAN_POINT('',(-0.00964101615137755,0.,-0.06));
#1258=CARTESIAN_POINT('',(0.05,0.2,-0.06));
#1259=CARTESIAN_POINT('',(0.085,0.02,-0.06));
#1260=CARTESIAN_POINT('',(0.035,0.02,-0.06));
#1261=CARTESIAN_POINT('',(0.015,0.02,-0.06));
#1262=CARTESIAN_POINT('',(0.015,0.02,-0.06));
#1263=CARTESIAN_POINT('',(-0.00964101615137755,0.,-0.06));
#1264=CARTESIAN_POINT('',(-0.015,0.02,-0.06));
#1265=CARTESIAN_POINT('',(-0.015,0.02,-0.06));
#1266=CARTESIAN_POINT('',(-0.035,0.02,-0.06));
#1267=CARTESIAN_POINT('',(-0.035,0.2,-0.06));
#1268=CARTESIAN_POINT('',(-0.035,0.2,-0.06));
#1269=CARTESIAN_POINT('',(0.05,0.2,-0.06));
#1270=CARTESIAN_POINT('',(0.035,0.2,-0.06));
#1271=CARTESIAN_POINT('',(0.035,0.2,-0.06));
#1272=CARTESIAN_POINT('',(-0.05,0.2,0.06));
#1273=CARTESIAN_POINT('',(0.015,0.02,0.06));
#1274=CARTESIAN_POINT('',(0.015,0.02,0.06));
#1275=CARTESIAN_POINT('',(0.085,0.02,0.06));
#1276=CARTESIAN_POINT('',(0.035,0.02,0.06));
#1277=CARTESIAN_POINT('',(0.035,0.2,0.06));
#1278=CARTESIAN_POINT('',(0.035,0.2,0.06));
#1279=CARTESIAN_POINT('',(-0.05,0.2,0.06));
#1280=CARTESIAN_POINT('',(-0.035,0.2,0.06));
#1281=CARTESIAN_POINT('',(-0.035,0.2,0.06));
#1282=CARTESIAN_POINT('',(-0.035,0.02,0.06));
#1283=CARTESIAN_POINT('',(-0.015,0.02,0.06));
#1284=CARTESIAN_POINT('',(-0.015,0.02,0.06));
#1285=CARTESIAN_POINT('',(-0.00964101615137755,0.,0.06));
#1286=CARTESIAN_POINT('',(0.,0.2,0.));
#1287=CARTESIAN_POINT('',(0.014,0.2,-0.014));
#1288=CARTESIAN_POINT('',(0.014,0.2,-0.014));
#1289=CARTESIAN_POINT('',(-0.014,0.2,-0.014));
#1290=CARTESIAN_POINT('',(0.014,0.2,0.014));
#1291=CARTESIAN_POINT('',(0.014,0.2,0.014));
#1292=CARTESIAN_POINT('',(-0.014,0.2,0.014));
#1293=CARTESIAN_POINT('',(-0.014,0.2,0.014));
#1294=CARTESIAN_POINT('',(-0.014,0.2,-0.014));
#1295=CARTESIAN_POINT('',(-0.038639702342662,0.2,-0.05));
#1296=CARTESIAN_POINT('',(-0.038639702342662,0.2,-0.05));
#1297=CARTESIAN_POINT('',(0.,0.2,0.05));
#1298=CARTESIAN_POINT('',(-0.038639702342662,0.2,0.05));
#1299=CARTESIAN_POINT('',(-0.038639702342662,0.2,0.05));
#1300=CARTESIAN_POINT('',(0.035,0.2,0.06));
#1301=CARTESIAN_POINT('',(0.038639702342662,0.2,0.05));
#1302=CARTESIAN_POINT('',(0.038639702342662,0.2,0.05));
#1303=CARTESIAN_POINT('',(0.,0.2,-0.05));
#1304=CARTESIAN_POINT('',(0.038639702342662,0.2,-0.05));
#1305=CARTESIAN_POINT('',(0.038639702342662,0.2,-0.05));
#1306=CARTESIAN_POINT('',(-0.035,0.2,-0.06));
#1307=CARTESIAN_POINT('',(0.05,0.02,-0.04));
#1308=CARTESIAN_POINT('',(0.05,0.02,-0.04));
#1309=CARTESIAN_POINT('',(0.015,0.02,-0.04));
#1310=CARTESIAN_POINT('',(-0.015,0.02,-0.04));
#1311=CARTESIAN_POINT('',(0.015,0.02,-0.06));
#1312=CARTESIAN_POINT('',(0.038639702342662,0.02,-0.05));
#1313=CARTESIAN_POINT('',(0.038639702342662,0.02,-0.05));
#1314=CARTESIAN_POINT('',(0.061360297657338,0.02,-0.05));
#1315=CARTESIAN_POINT('',(0.038639702342662,0.02,0.05));
#1316=CARTESIAN_POINT('',(0.038639702342662,0.02,0.05));
#1317=CARTESIAN_POINT('',(0.035,0.02,0.06));
#1318=CARTESIAN_POINT('',(0.015,0.02,-0.06));
#1319=CARTESIAN_POINT('',(0.015,0.02,0.04));
#1320=CARTESIAN_POINT('',(0.05,0.02,0.04));
#1321=CARTESIAN_POINT('',(-0.015,0.02,0.04));
#1322=CARTESIAN_POINT('',(-0.015,0.02,-0.06));
#1323=CARTESIAN_POINT('',(-0.038639702342662,0.02,0.05));
#1324=CARTESIAN_POINT('',(-0.038639702342662,0.02,0.05));
#1325=CARTESIAN_POINT('',(-0.061360297657338,0.02,0.05));
#1326=CARTESIAN_POINT('',(-0.038639702342662,0.02,-0.05));
#1327=CARTESIAN_POINT('',(-0.038639702342662,0.02,-0.05));
#1328=CARTESIAN_POINT('',(-0.035,0.02,-0.06));
#1329=CARTESIAN_POINT('',(-0.015,0.02,-0.06));
#1330=CARTESIAN_POINT('',(0.05,0.02,0.04));
#1331=CARTESIAN_POINT('',(0.0173445554337723,0.02875,0.04));
#1332=CARTESIAN_POINT('',(-0.0106458256229943,0.00375000000000001,0.04));
#1333=CARTESIAN_POINT('',(0.05,0.,-0.04));
#1334=CARTESIAN_POINT('',(0.0123445554337723,0.0100897459621556,-0.04));
#1335=CARTESIAN_POINT('',(-0.00564582562299427,-0.0149102540378444,-0.04));
#1336=CARTESIAN_POINT('',(-0.061360297657338,0.2,0.05));
#1337=CARTESIAN_POINT('',(-0.038639702342662,0.2,0.05));
#1338=CARTESIAN_POINT('',(-0.038639702342662,0.2,0.05));
#1339=CARTESIAN_POINT('',(0.035,0.2,0.06));
#1340=CARTESIAN_POINT('',(0.038639702342662,0.2,0.05));
#1341=CARTESIAN_POINT('',(0.038639702342662,0.2,0.05));
#1342=CARTESIAN_POINT('',(0.061360297657338,0.2,-0.05));
#1343=CARTESIAN_POINT('',(0.038639702342662,0.2,-0.05));
#1344=CARTESIAN_POINT('',(0.038639702342662,0.2,-0.05));
#1345=CARTESIAN_POINT('',(-0.038639702342662,0.2,-0.05));
#1346=CARTESIAN_POINT('',(-0.038639702342662,0.2,-0.05));
#1347=CARTESIAN_POINT('',(-0.035,0.2,-0.06));
#1348=CARTESIAN_POINT('',(-0.00964101615137755,0.,-0.06));
#1349=CARTESIAN_POINT('',(-0.00964101615137755,0.,-0.06));
#1350=CARTESIAN_POINT('',(0.015,0.02,-0.06));
#1351=CARTESIAN_POINT('',(0.015,0.02,-0.06));
#1352=CARTESIAN_POINT('',(0.014,0.03,-0.014));
#1353=CARTESIAN_POINT('',(-0.014,0.03,-0.014));
#1354=CARTESIAN_POINT('',(-0.014,0.03,-0.014));
#1355=CARTESIAN_POINT('',(0.014,0.03,-0.014));
#1356=CARTESIAN_POINT('',(0.014,0.03,-0.014));
#1357=CARTESIAN_POINT('',(0.014,0.03,-0.014));
#1358=CARTESIAN_POINT('',(-0.014,0.03,-0.014));
#1359=CARTESIAN_POINT('',(-0.014,0.03,0.014));
#1360=CARTESIAN_POINT('',(-0.014,0.03,0.014));
#1361=CARTESIAN_POINT('',(-0.014,0.03,-0.014));
#1362=CARTESIAN_POINT('',(-0.014,0.03,0.014));
#1363=CARTESIAN_POINT('',(0.014,0.03,0.014));
#1364=CARTESIAN_POINT('',(0.014,0.03,0.014));
#1365=CARTESIAN_POINT('',(-0.014,0.03,0.014));
#1366=CARTESIAN_POINT('',(0.014,0.03,0.014));
#1367=CARTESIAN_POINT('',(0.014,0.03,0.014));
#1368=CARTESIAN_POINT('',(0.,0.03,0.));
#1369=CARTESIAN_POINT('',(0.,0.,0.));
#1370=CARTESIAN_POINT('',(0.04,-0.00229967461235207,-0.01));
#1371=CARTESIAN_POINT('',(0.04,0.03,0.045));
#1372=CARTESIAN_POINT('',(0.04,0.03,0.045));
#1373=CARTESIAN_POINT('',(0.04,0.03,-0.045));
#1374=CARTESIAN_POINT('',(0.04,0.03,-0.045));
#1375=CARTESIAN_POINT('',(0.04,0.17,-0.045));
#1376=CARTESIAN_POINT('',(0.04,0.17,-0.045));
#1377=CARTESIAN_POINT('',(0.04,0.17,0.045));
#1378=CARTESIAN_POINT('',(0.04,0.17,0.045));
#1379=CARTESIAN_POINT('',(-0.04,-0.00229967461235207,-0.01));
#1380=CARTESIAN_POINT('',(-0.04,0.03,-0.04));
#1381=CARTESIAN_POINT('',(-0.04,0.03,0.045));
#1382=CARTESIAN_POINT('',(-0.04,0.03,-0.045));
#1383=CARTESIAN_POINT('',(-0.04,0.17,0.045));
#1384=CARTESIAN_POINT('',(-0.04,0.17,0.045));
#1385=CARTESIAN_POINT('',(-0.04,0.17,-0.045));
#1386=CARTESIAN_POINT('',(-0.04,0.17,-0.045));
#1387=CARTESIAN_POINT('',(-0.04,0.03,-0.045));
#1388=CARTESIAN_POINT('',(0.04,0.17,-0.045));
#1389=CARTESIAN_POINT('',(0.04,0.17,0.045));
#1390=CARTESIAN_POINT('',(0.04,0.17,-0.045));
#1391=CARTESIAN_POINT('',(0.04,0.17,0.045));
#1392=CARTESIAN_POINT('',(0.04,0.03,0.045));
#1393=CARTESIAN_POINT('',(0.04,0.03,-0.04));
#1394=CARTESIAN_POINT('',(0.04,0.03,-0.045));
#1395=CARTESIAN_POINT('',(0.04,0.03,-0.045));
#1396=CARTESIAN_POINT('',(0.,0.,0.));
#1397=CARTESIAN_POINT('',(0.04,-0.00229967461235207,-0.01));
#1398=CARTESIAN_POINT('',(0.04,0.03,-0.045));
#1399=CARTESIAN_POINT('',(0.04,0.03,-0.045));
#1400=CARTESIAN_POINT('',(0.04,0.032,-0.045));
#1401=CARTESIAN_POINT('',(0.04,0.032,-0.01));
#1402=CARTESIAN_POINT('',(0.04,0.032,0.045));
#1403=CARTESIAN_POINT('',(0.04,0.17,0.045));
#1404=CARTESIAN_POINT('',(0.04,0.03,0.045));
#1405=CARTESIAN_POINT('',(0.04,0.03,0.045));
#1406=CARTESIAN_POINT('',(-0.04,-0.00229967461235207,-0.01));
#1407=CARTESIAN_POINT('',(-0.04,0.032,-0.01));
#1408=CARTESIAN_POINT('',(-0.04,0.032,-0.045));
#1409=CARTESIAN_POINT('',(-0.04,0.032,0.045));
#1410=CARTESIAN_POINT('',(-0.04,0.03,-0.045));
#1411=CARTESIAN_POINT('',(-0.04,0.03,-0.045));
#1412=CARTESIAN_POINT('',(-0.04,0.03,-0.04));
#1413=CARTESIAN_POINT('',(-0.04,0.03,0.045));
#1414=CARTESIAN_POINT('',(-0.04,0.17,0.045));
#1415=CARTESIAN_POINT('',(0.04,0.17,0.045));
#1416=CARTESIAN_POINT('',(0.04,0.032,0.045));
#1417=CARTESIAN_POINT('',(0.04,0.03,0.045));
#1418=CARTESIAN_POINT('',(0.04,0.03,-0.045));
#1419=CARTESIAN_POINT('',(0.04,0.032,-0.045));
#1420=CARTESIAN_POINT('',(0.04,0.03,-0.045));
#1421=CARTESIAN_POINT('',(0.04,0.03,-0.0246340925711785));
#1422=CARTESIAN_POINT('',(0.0125,0.03,-0.0246340925711785));
#1423=CARTESIAN_POINT('',(0.0125,0.03,-0.0246340925711785));
#1424=CARTESIAN_POINT('',(0.0125,0.00908917442312738,-0.00023812939816047));
#1425=CARTESIAN_POINT('',(0.04,0.03,-0.0246340925711785));
#1426=CARTESIAN_POINT('',(-0.0125,0.03,-0.0246340925711784));
#1427=CARTESIAN_POINT('',(-0.0125,0.03,-0.0246340925711785));
#1428=CARTESIAN_POINT('',(-0.0125,0.00908917442312738,-0.00023812939816047));
#1429=CARTESIAN_POINT('',(0.04,0.00908917442312738,-0.00023812939816047));
#1430=CARTESIAN_POINT('',(0.04,-0.00229967461235207,-0.01));
#1431=CARTESIAN_POINT('',(0.0125,-0.00229967461235207,-0.01));
#1432=CARTESIAN_POINT('',(0.0125,-0.00229967461235207,0.005));
#1433=CARTESIAN_POINT('',(-0.0125,-0.00229967461235207,-0.01));
#1434=CARTESIAN_POINT('',(-0.0125,-0.00229967461235207,0.005));
#1435=CARTESIAN_POINT('',(0.04,-0.00229967461235207,0.005));
#1436=CARTESIAN_POINT('',(0.04,-0.00229967461235207,0.005));
#1437=CARTESIAN_POINT('',(0.0125,-0.00229967461235207,0.005));
#1438=CARTESIAN_POINT('',(0.0125,-0.128,0.00500000000000008));
#1439=CARTESIAN_POINT('',(-0.0125,-0.00229967461235207,0.005));
#1440=CARTESIAN_POINT('',(-0.0125,-0.128,0.00500000000000008));
#1441=CARTESIAN_POINT('',(0.04,-0.128,0.005));
#1442=CARTESIAN_POINT('',(0.04,-0.128,0.005));
#1443=CARTESIAN_POINT('',(0.0125,-0.128,0.24));
#1444=CARTESIAN_POINT('',(0.0125,-0.128,-0.00499999999999995));
#1445=CARTESIAN_POINT('',(-0.0125,-0.128,0.24));
#1446=CARTESIAN_POINT('',(-0.0125,-0.128,-0.00499999999999995));
#1447=CARTESIAN_POINT('',(0.04,-0.128,-0.005));
#1448=CARTESIAN_POINT('',(0.04,-0.128,-0.005));
#1449=CARTESIAN_POINT('',(0.0125,-0.128,-0.005));
#1450=CARTESIAN_POINT('',(0.0125,-0.00229967461235207,-0.005));
#1451=CARTESIAN_POINT('',(-0.0125,-0.128,-0.005));
#1452=CARTESIAN_POINT('',(-0.0125,-0.00229967461235206,-0.005));
#1453=CARTESIAN_POINT('',(0.04,-0.00229967461235207,-0.005));
#1454=CARTESIAN_POINT('',(0.04,-0.00229967461235206,-0.01));
#1455=CARTESIAN_POINT('',(0.04,0.00149660839947442,-0.00674604313272015));
#1456=CARTESIAN_POINT('',(0.0125,0.00149660839947442,-0.00674604313272015));
#1457=CARTESIAN_POINT('',(-0.0125,0.00149660839947442,-0.00674604313272015));
#1458=CARTESIAN_POINT('',(0.0125,-0.00229967461235206,-0.01));
#1459=CARTESIAN_POINT('',(-0.0125,-0.00229967461235206,-0.01));
#1460=CARTESIAN_POINT('',(0.04,0.00149660839947442,-0.00674604313272016));
#1461=CARTESIAN_POINT('',(0.0125,0.00149660839947442,-0.00674604313272016));
#1462=CARTESIAN_POINT('',(0.0125,0.03,-0.0399999999999999));
#1463=CARTESIAN_POINT('',(-0.0125,0.00149660839947442,-0.00674604313272016));
#1464=CARTESIAN_POINT('',(-0.0125,0.03,-0.0399999999999999));
#1465=CARTESIAN_POINT('',(0.04,0.03,-0.04));
#1466=CARTESIAN_POINT('',(0.04,0.03,-0.04));
#1467=CARTESIAN_POINT('',(0.0125,0.03,0.24));
#1468=CARTESIAN_POINT('',(-0.0125,0.03,0.24));
#1469=CARTESIAN_POINT('',(-0.0125,-0.128,0.24));
#1470=CARTESIAN_POINT('',(0.0125,0.03,0.24));
#1471=CARTESIAN_POINT('',(10.,0.032,10.));
#1472=CARTESIAN_POINT('',(0.,0.,0.));
#1473=MECHANICAL_DESIGN_GEOMETRIC_PRESENTATION_REPRESENTATION('',(#903,
#904,#905),#1474);
#1474=(
GEOMETRIC_REPRESENTATION_CONTEXT(3)
GLOBAL_UNCERTAINTY_ASSIGNED_CONTEXT((#1478))
GLOBAL_UNIT_ASSIGNED_CONTEXT((#1484,#1483,#1482))
REPRESENTATION_CONTEXT('CES-101-01-T-S','TOP_LEVEL_ASSEMBLY_PART')
);
#1475=(
GEOMETRIC_REPRESENTATION_CONTEXT(3)
GLOBAL_UNCERTAINTY_ASSIGNED_CONTEXT((#1479))
GLOBAL_UNIT_ASSIGNED_CONTEXT((#1484,#1483,#1482))
REPRESENTATION_CONTEXT('CES-101-01-S_socket','COMPONENT_PART')
);
#1476=(
GEOMETRIC_REPRESENTATION_CONTEXT(3)
GLOBAL_UNCERTAINTY_ASSIGNED_CONTEXT((#1480))
GLOBAL_UNIT_ASSIGNED_CONTEXT((#1484,#1483,#1482))
REPRESENTATION_CONTEXT('010101TS','COMPONENT_PART')
);
#1477=(
GEOMETRIC_REPRESENTATION_CONTEXT(3)
GLOBAL_UNCERTAINTY_ASSIGNED_CONTEXT((#1481))
GLOBAL_UNIT_ASSIGNED_CONTEXT((#1484,#1483,#1482))
REPRESENTATION_CONTEXT('010101TS2','COMPONENT_PART')
);
#1478=UNCERTAINTY_MEASURE_WITH_UNIT(LENGTH_MEASURE(3.93700787401575E-7),
#1484,'DISTANCE_ACCURACY_VALUE','Maximum Tolerance applied to model');
#1479=UNCERTAINTY_MEASURE_WITH_UNIT(LENGTH_MEASURE(3.93700787401575E-7),
#1484,'DISTANCE_ACCURACY_VALUE','Maximum Tolerance applied to model');
#1480=UNCERTAINTY_MEASURE_WITH_UNIT(LENGTH_MEASURE(3.93700787401575E-7),
#1484,'DISTANCE_ACCURACY_VALUE','Maximum Tolerance applied to model');
#1481=UNCERTAINTY_MEASURE_WITH_UNIT(LENGTH_MEASURE(3.93700787401575E-7),
#1484,'DISTANCE_ACCURACY_VALUE','Maximum Tolerance applied to model');
#1482=(
NAMED_UNIT(*)
SI_UNIT($,.STERADIAN.)
SOLID_ANGLE_UNIT()
);
#1483=(
NAMED_UNIT(*)
PLANE_ANGLE_UNIT()
SI_UNIT($,.RADIAN.)
);
#1484=(
CONVERSION_BASED_UNIT('INCH',#1486)
LENGTH_UNIT()
NAMED_UNIT(#1485)
);
#1485=DIMENSIONAL_EXPONENTS(1.,0.,0.,0.,0.,0.,0.);
#1486=LENGTH_MEASURE_WITH_UNIT(LENGTH_MEASURE(25.4),#1487);
#1487=(
LENGTH_UNIT()
NAMED_UNIT(*)
SI_UNIT(.MILLI.,.METRE.)
);
#1488=PRODUCT_DEFINITION_SHAPE('','',#1495);
#1489=PRODUCT_DEFINITION_SHAPE('','',#1496);
#1490=PRODUCT_DEFINITION_SHAPE(' ','NAUO PRDDFN',#19);
#1491=PRODUCT_DEFINITION_SHAPE('','',#1497);
#1492=PRODUCT_DEFINITION_SHAPE(' ','NAUO PRDDFN',#20);
#1493=PRODUCT_DEFINITION_SHAPE('','',#1498);
#1494=PRODUCT_DEFINITION_SHAPE(' ','NAUO PRDDFN',#21);
#1495=PRODUCT_DEFINITION('','',#1503,#1499);
#1496=PRODUCT_DEFINITION('','',#1504,#1500);
#1497=PRODUCT_DEFINITION('','',#1505,#1501);
#1498=PRODUCT_DEFINITION('','',#1506,#1502);
#1499=PRODUCT_DEFINITION_CONTEXT('',#1524,'design');
#1500=PRODUCT_DEFINITION_CONTEXT('',#1524,'design');
#1501=PRODUCT_DEFINITION_CONTEXT('',#1524,'design');
#1502=PRODUCT_DEFINITION_CONTEXT('',#1524,'design');
#1503=PRODUCT_DEFINITION_FORMATION_WITH_SPECIFIED_SOURCE('','',#1511,
 .NOT_KNOWN.);
#1504=PRODUCT_DEFINITION_FORMATION_WITH_SPECIFIED_SOURCE('','',#1512,
 .NOT_KNOWN.);
#1505=PRODUCT_DEFINITION_FORMATION_WITH_SPECIFIED_SOURCE('','',#1513,
 .NOT_KNOWN.);
#1506=PRODUCT_DEFINITION_FORMATION_WITH_SPECIFIED_SOURCE('','',#1514,
 .NOT_KNOWN.);
#1507=PRODUCT_RELATED_PRODUCT_CATEGORY('','',(#1511));
#1508=PRODUCT_RELATED_PRODUCT_CATEGORY('','',(#1512));
#1509=PRODUCT_RELATED_PRODUCT_CATEGORY('','',(#1513));
#1510=PRODUCT_RELATED_PRODUCT_CATEGORY('','',(#1514));
#1511=PRODUCT('CES-101-01-T-S','CES-101-01-T-S','CES-101-01-T-S',(#1519));
#1512=PRODUCT('CES-101-01-S_socket','CES-101-01-S_socket',
'CES-101-01-S_socket',(#1520));
#1513=PRODUCT('010101TS','010101TS','010101TS',(#1521));
#1514=PRODUCT('010101TS2','010101TS2','010101TS2',(#1522));
#1515=PRODUCT_CATEGORY('','');
#1516=PRODUCT_CATEGORY('','');
#1517=PRODUCT_CATEGORY('','');
#1518=PRODUCT_CATEGORY('','');
#1519=PRODUCT_CONTEXT('',#1524,'mechanical');
#1520=PRODUCT_CONTEXT('',#1524,'mechanical');
#1521=PRODUCT_CONTEXT('',#1524,'mechanical');
#1522=PRODUCT_CONTEXT('',#1524,'mechanical');
#1523=APPLICATION_PROTOCOL_DEFINITION('international standard',
'ap242_managed_model_based_3d_engineering',2011,#1524);
#1524=APPLICATION_CONTEXT('managed model based 3d engineering');
ENDSEC;
END-ISO-10303-21;
